<ttFont>
          <CharString index="0">
            57 -22 rlineto
            -5 16 11 -2 13 hhcurveto
            81 hlineto
            9 7 7 9 8 -5 4 -3 2 hvcurveto
            -83 70 rlineto
            15 -21 -11 4 -15 hhcurveto
            -112 hlineto
            -15 -11 -4 -15 -21 hvcurveto
            -83 -70 rlineto
            -3 -2 -5 -4 -8 vvcurveto
            -9 7 -7 9 -13 callgsubr
            13 11 2 5 16 hvcurveto
            endchar
          </CharString>
          <CharString index="1">
            rmoveto
            63 334 vlineto
            -105 callsubr
            130 vlineto
            -106 callgsubr
            -334 63 389 hlineto
            -105 callsubr
            -38 callgsubr
            -106 callgsubr
            -622 hlineto
            -100 callgsubr
            632 hlineto
            -105 callsubr
            -38 callgsubr
            -106 callgsubr
            return
          </CharString>
          <CharString index="2">
            -102 callgsubr
            hvcurveto
            return
          </CharString>
          <CharString index="3">
            hintmask 11000000
            -105 callgsubr
            return
          </CharString>
          <CharString index="4">
            rmoveto
            -84 callgsubr
            -73 vlineto
            -13 10 -10 13 vhcurveto
            116 hlineto
            13 10 10 13 hvcurveto
            73 vlineto
            13 -10 10 -13 vhcurveto
            -367 hmoveto
            -84 callgsubr
            -73 vlineto
            -13 10 -10 13 vhcurveto
            116 hlineto
            13 10 10 13 hvcurveto
            73 vlineto
            13 -10 10 -13 vhcurveto
            return
          </CharString>
          <CharString index="5">
            rmoveto
            -57 22 rlineto
            5 -16 -11 2 -13 hhcurveto
            -81 hlineto
            -9 -7 -7 -9 -8 5 -4 3 -2 hvcurveto
            83 -70 rlineto
            -15 21 11 -4 15 hhcurveto
            112 hlineto
            15 11 4 15 21 hvcurveto
            83 70 rlineto
            3 2 5 4 8 vvcurveto
            9 -7 7 -9 vhcurveto
            -81 hlineto
            -13 -11 -2 -5 -16 hvcurveto
            endchar
          </CharString>
          <CharString index="6">
            12 -95 callgsubr
            return
          </CharString>
          <CharString index="7">
            -15 -12 -12 -15 hvcurveto
            -94 callgsubr
            return
          </CharString>
          <CharString index="8">
            rmoveto
            -22 -12 -12 -13 -8 hvcurveto
            -116 -196 -113 198 rlineto
            12 -7 -13 11 -21 hhcurveto
            -211 hlineto
            -50 callsubr
            -6 2 -3 1 -2 hvcurveto
            251 -417 rlineto
            -223 vlineto
            -104 callgsubr
            213 hlineto
            -105 callsubr
            223 vlineto
            252 417 rlineto
            1 2 2 3 7 vvcurveto
            11 -10 -41 callsubr
            return
          </CharString>
          <CharString index="9">
            375 rmoveto
            237 289 rlineto
            4 5 1 5 4 vvcurveto
            12 -10 -41 callsubr
            -241 hlineto
            -19 -11 -9 -8 -7 hvcurveto
            -158 -198 rlineto
            188 vlineto
            15 -12 12 -15 vhcurveto
            -206 -7 callsubr
            204 vlineto
            174 -215 rlineto
            -6 5 12 -10 19 hhcurveto
            258 -82 callsubr
            6 -2 4 -2 3 hvcurveto
            return
          </CharString>
          <CharString index="10">
            428 205 rmoveto
            312 292 rlineto
            9 8 4 11 14 vvcurveto
            143 vlineto
            -106 callgsubr
            -600 hlineto
            -100 callsubr
            283 hlineto
            -316 -289 rlineto
            -5 -4 -10 -12 -19 vvcurveto
            -144 vlineto
            -104 callgsubr
            642 hlineto
            -105 callsubr
            151 vlineto
            -106 callgsubr
            return
          </CharString>
          <CharString index="11">
            rmoveto
            -9 -4 -7 -16 -30 hhcurveto
            -30 -8 17 8 -2 hvcurveto
            7 -2 -5 6 -12 hhcurveto
            -99 hlineto
            -12 -7 -6 -7 -58 57 -54 120 hvcurveto
            return
          </CharString>
          <CharString index="12">
            rmoveto
            -2 -4 -3 -4 -5 vvcurveto
            -10 6 -6 10 vhcurveto
            101 hlineto
            4 4 0 4 hhcurveto
            10 10 1 6 8 hvcurveto
            75 80 rlineto
            3 3 2 4 5 vvcurveto
            12 -7 8 -12 vhcurveto
            -138 hlineto
            -15 -1 -8 -1 -14 -17 rrcurveto
            return
          </CharString>
          <CharString index="13">
            797 412 rmoveto
            3 vlineto
            31 12 rlineto
            16 6 6 9 18 vvcurveto
            108 vlineto
            12 -9 9 -12 -2 -4 -1 -2 -5 vhcurveto
            -59 -23 rlineto
            102 -61 -126 46 -147 hhcurveto
            -206 -166 -89 -212 hvcurveto
            -119 vlineto
            -4 vlineto
            -31 -12 rlineto
            -16 -6 -6 -9 -18 vvcurveto
            -108 vlineto
            -12 9 -9 12 2 4 1 2 5 vhcurveto
            57 22 rlineto
            -105 59 125 -43 152 hhcurveto
            211 161 85 214 hvcurveto
            -372 -104 rmoveto
            -45 -35 16 31 -14 hvcurveto
            196 77 rlineto
            -38 vlineto
            -56 -27 callgsubr
            vhcurveto
            -102 246 rmoveto
            55 41 30 61 45 33 -16 -31 15 vhcurveto
            -195 -77 rlineto
            return
          </CharString>
          <CharString index="14">
            80 700 -52 callgsubr
            215 -458 -63 callgsubr
            458 215 vlineto
            -105 callsubr
            161 vlineto
            -106 callgsubr
            return
          </CharString>
          <CharString index="15">
            768 673 rmoveto
            -106 callgsubr
            -608 hlineto
            -100 callsubr
            365 -225 hlineto
            -55 -27 callgsubr
            -61 -25 29 31 -10 vhcurveto
            13 -4 -9 9 -12 hhcurveto
            -226 hlineto
            -50 callsubr
            -114 120 -141 254 211 156 89 212 hvcurveto
            return
          </CharString>
          <CharString index="16">
            -104 callgsubr
            319 hlineto
            211 161 79 220 hvcurveto
            102 vlineto
            214 -161 85 -211 vhcurveto
            -86 -195 rmoveto
            91 hlineto
            25 callgsubr
            hvcurveto
            -138 vlineto
            -56 -27 callgsubr
            vhcurveto
            -91 return
          </CharString>
          <CharString index="17">
            293 hmoveto
            265 43 95 223 95 hvcurveto
            150 351 rlineto
            2 4 -1 3 3 vvcurveto
            11 -11 -41 callsubr
            -207 hlineto
            -20 -9 -12 -12 -5 hvcurveto
            -98 -262 -112 262 rlineto
            11 -5 -7 13 -20 hhcurveto
            -219 hlineto
            -13 -10 -11 -13 -2 hvcurveto
            -2 0 -2 1 -3 vhcurveto
            217 -447 rlineto
            -7 -5 -19 -1 -38 hhcurveto
            -141 hlineto
            -15 -12 -12 -15 hvcurveto
            -160 vlineto
            -104 callgsubr
            return
          </CharString>
          <CharString index="18">
            12 -10 -41 callsubr
            -216 hlineto
            -17 -10 -10 -16 -8 hvcurveto
            -31 -16 -19 -25 -61 hhcurveto
            -61 -41 30 55 hvcurveto
            return
          </CharString>
          <CharString index="19">
            rmoveto
            -84 callgsubr
            -73 vlineto
            -13 10 -10 13 vhcurveto
            367 hlineto
            13 10 10 13 hvcurveto
            73 vlineto
            13 -10 10 -13 vhcurveto
            endchar
          </CharString>
          <CharString index="20">
            -150 48 -48 61 14 53 -23 -21 58 193 -193 233 256 229 -29 callsubr
            hstemhm
            326 242 hintmask 1010100110000000
            -36 callgsubr
            hintmask 1010101010000000
            -8 9 8 -4 14 hhcurveto
            -3 callsubr
            14 10 9 13 87 -121 120 -221 -203 -130 -94 -136 -132 108 -64 175 -21 hvcurveto
            120 -14 29 -11 -24 vvcurveto
            -22 -42 -7 -53 -47 -26 4 23 -24 vhcurveto
            hintmask 1010011010000000
            8 -8 -9 5 -17 hhcurveto
            -205 hlineto
            -14 -9 -9 -13 -102 96 -94 204 -15 hvcurveto
            -14 -45 rlineto
            -1 -3 -1 -3 -3 vvcurveto
            -8 5 -5 10 vhcurveto
            44 hlineto
            hintmask 1001101010000000
            19 2 9 27 hhcurveto
            20 8 -7 -10 -10 -8 -9 -21 hvcurveto
            hintmask 0110101010000000
            -35 8 13 -25 hhcurveto
            -61 hlineto
            -7 -6 -3 -8 -34 66 -16 60 51 65 17 50 40 -40 21 -51 -7 -21 0 -4 -9 hvcurveto
            6 17 rlineto
            197 7 140 88 140 vvcurveto
            129 -82 66 -221 25 vhcurveto
            endchar
          </CharString>
          <CharString index="21">
            hlineto
            -15 -12 -12 -15 hvcurveto
            -161 vlineto
            -104 callgsubr
            return
          </CharString>
          <CharString index="22">
            733 rmoveto
            109 27 78 25 10 -7 9 -12 hvcurveto
            -84 hlineto
            -7 -5 -4 -5 -3 hvcurveto
            -9 -6 -13 -3 -16 hhcurveto
            hintmask 00001000
            -33 -23 24 -52 hhcurveto
            -110 -26 -79 -25 -10 9 -8 10 hvcurveto
            84 hlineto
            7 5 4 5 3 hvcurveto
            8 6 12 4 17 hhcurveto
            hintmask 00100000
            33 23 -24 52 hhcurveto
            return
          </CharString>
          <CharString index="23">
            rmoveto
            7 -6 6 -8 vhcurveto
            -110 hlineto
            -3 -2 0 -2 -3 hvcurveto
            -113 -73 -6 -5 -2 -9 3 -6 rlinecurve
            44 -69 4 -6 9 -2 6 4 rlinecurve
            50 32 rlineto
            return
          </CharString>
          <CharString index="24">
            -79 callsubr
            53 -4 callgsubr
            101 -26 callgsubr
            hintmask 00010000
            490 -85 callsubr
            hintmask 11000110
            62 -33 -48 callsubr
          </CharString>
          <CharString index="25">
            hlineto
            12 10 10 12 return
          </CharString>
          <CharString index="26">
            0 195 63 184 63 195 return
          </CharString>
          <CharString index="27">
            6 -84 callsubr
            -200 vlineto
            -7 6 -7 7 vhcurveto
            110 hlineto
            8 6 7 7 hvcurveto
            return
          </CharString>
          <CharString index="28">
            21 -64 callsubr
            return
          </CharString>
          <CharString index="29">
            -142 90 73 -21 104 195 401 -20 hstemhm
            643 116 -116 193 hintmask 11110100
            550 104 rmoveto
            25 -70 rlineto
            -16 6 12 -18 27 hhcurveto
            25 hlineto
            -2 -8 0 -9 -9 vvcurveto
            -72 41 -44 111 vhcurveto
            14 hlineto
            15 12 9 15 hvcurveto
            41 vlineto
            16 -12 9 -15 vhcurveto
            -7 hlineto
            hintmask 11111000
            -34 -9 11 15 14 8 11 28 1 hvcurveto
            14 hlineto
            12 10 -20 callsubr
            -1 3 hvcurveto
            -218 639 rlineto
            15 -4 -14 18 -27 hhcurveto
            -278 hlineto
            -27 -14 -18 -15 -4 hvcurveto
            -218 -639 rlineto
            -1 -3 0 -2 -1 -65 callgsubr
            189 hlineto
            27 12 18 16 6 hvcurveto
            25 70 rlineto
            193 195 rmoveto
            -142 hlineto
            71 208 rlineto
            endchar
          </CharString>
          <CharString index="30">
            170 hlineto
            13 10 10 13 hvcurveto
            159 vlineto
            13 -10 10 -13 vhcurveto
            -562 hlineto
            -84 callgsubr
            -159 vlineto
            -13 10 -10 13 vhcurveto
            153 -468 hlineto
            -104 callgsubr
            185 hlineto
            -105 callsubr
            return
          </CharString>
          <CharString index="31">
            -142 90 52 205 290 205 hstemhm
            576 116 -116 193 hintmask 11101000
            742 495 rmoveto
            -105 callsubr
            151 vlineto
            -106 callgsubr
            -634 hlineto
            -100 callsubr
            183 -290 -183 hlineto
            -100 callsubr
            470 hlineto
            -2 -8 0 -9 -9 vvcurveto
            -72 41 -44 111 vhcurveto
            14 hlineto
            15 12 9 15 hvcurveto
            41 vlineto
            16 -12 9 -15 vhcurveto
            -7 hlineto
            hintmask 11110000
            0 callsubr
            hintmask 11101000
            6 callsubr
            endchar
          </CharString>
          <CharString index="32">
            -211 171 20 -21 62 -21 231 209 55 205 hstemhm
            206 239 146 216 hintmask 10111110
            591 55 rmoveto
            -63 -34 -30 -45 -2 vhcurveto
            hintmask 01111110
            -22 -1 rlineto
            -15 -12 -12 -15 hvcurveto
            -116 vlineto
            hintmask 10111110
            -104 callgsubr
            70 hlineto
            147 100 127 211 hvcurveto
            46 vlineto
            178 -83 89 -213 vhcurveto
            -66 55 -77 callsubr
            204 66 vlineto
            49 31 -19 -46 hvcurveto
            endchar
          </CharString>
          <CharString index="33">
            rmoveto
            12 -6 9 -8 7 vhcurveto
            -213 202 rlineto
            5 -6 -7 0 -1 hhcurveto
            -12 -9 -9 -12 hvcurveto
            -154 vlineto
            -13 4 -3 14 -13 vhcurveto
            57 -54 -57 -54 rlineto
            -14 -13 -4 -3 -13 vvcurveto
            -154 vlineto
            -12 9 -9 12 1 7 0 5 6 vhcurveto
            213 202 rlineto
            8 7 6 9 12 vvcurveto
            return
          </CharString>
          <CharString index="34">
            9 4 0 23 26 hhcurveto
            19 1 -11 -9 -27 -77 -43 -96 -61 hvcurveto
            -15 -9 1 -14 -5 vvcurveto
            -67 vlineto
            -8 7 -6 7 vhcurveto
            313 hlineto
            7 7 6 8 hvcurveto
            82 vlineto
            7 -7 6 -7 vhcurveto
            endchar
          </CharString>
          <CharString index="35">
            0 187 63 208 -163 182 223 -20 hstemhm
            33 200 126 200 91 200 hintmask 11011110
            559 673 rmoveto
            -106 callgsubr
            -146 hlineto
            -15 -12 -12 -15 hvcurveto
            -215 -126 215 vlineto
            -106 callgsubr
            -146 -23 callgsubr
            146 hlineto
            -105 callsubr
            223 126 -223 vlineto
            -104 callgsubr
            199 hlineto
            161 104 105 135 hvcurveto
            hintmask 10111110
            145 -106 92 -160 vhcurveto
            -25 hlineto
            -182 vmoveto
            25 hlineto
            40 26 -18 -34 -34 -23 -22 -43 hvcurveto
            -25 hlineto
            endchar
          </CharString>
          <CharString index="36">
            -32 callsubr
            25 callsubr
            -49 callsubr
            -392 655 -88 callgsubr
          </CharString>
          <CharString index="37">
            -92 callgsubr
            endchar
          </CharString>
          <CharString index="38">
            4 callgsubr
            -164 -21 515 195 -10 -20 hstemhm
            7 215 398 230 hintmask 01011100
            222 673 rmoveto
            -106 callgsubr
            -161 hlineto
            -15 -12 -12 -15 hvcurveto
            -646 16 callgsubr
            216 71 vlineto
            hintmask 10101100
            -165 23 83 -88 169 hhcurveto
            212 70 128 231 231 -70 130 -212 -168 -84 -81 -166 -23 hvcurveto
            -71 hlineto
            294 -35 rmoveto
            65 20 22 32 32 20 -22 -66 vhcurveto
            -154 vlineto
            -66 -20 -22 -32 -32 -20 22 65 vhcurveto
            endchar
          </CharString>
          <CharString index="39">
            -103 -21 124 215 485 -20 hstemhm
            27 214 66 206 68 205 -151 215 hintmask 11111010
            635 hmoveto
            -97 vlineto
            -15 12 -12 24 callsubr
            285 vlineto
            -106 callgsubr
            hintmask 11111100
            -37 458 hlineto
            -106 callgsubr
            -151 hlineto
            -15 -12 -12 -15 hvcurveto
            -458 -68 458 vlineto
            -106 callgsubr
            -152 hlineto
            -15 -12 -11 -16 hvcurveto
            -458 -66 458 vlineto
            -106 callgsubr
            -160 hlineto
            -15 -12 -11 -16 hvcurveto
            -646 9 callsubr
          </CharString>
          <CharString index="40">
            0 187 108 182 223 -20 hstem
            17 230 111 220 28 228 vstem
            247 295 rmoveto
            45 hlineto
            30 36 -8 -44 -34 -23 -22 -43 hvcurveto
            -45 hlineto
            486 vmoveto
            -106 callgsubr
            -176 hlineto
            -100 callgsubr
            249 hlineto
            181 104 105 135 145 -106 92 -180 hvcurveto
            -45 hlineto
            560 -477 rmoveto
            -105 callsubr
            646 vlineto
            -106 callgsubr
            -174 -24 callgsubr
          </CharString>
          <CharString index="41">
            21 -21 104 195 401 -20 return
          </CharString>
          <CharString index="42">
            20 callgsubr
            119 vlineto
            184 74 rlineto
            16 6 6 9 18 vvcurveto
            108 vlineto
            12 -9 9 -12 -2 -4 -1 -2 -5 vhcurveto
            -174 -70 rlineto
            186 15 callgsubr
            -293 vlineto
            -33 -13 rlineto
            -16 -6 -6 -9 -18 vvcurveto
            -108 vlineto
            -12 9 -9 12 2 4 1 2 5 vhcurveto
            23 9 rlineto
            -190 -6 callgsubr
            endchar
          </CharString>
          <CharString index="43">
            -21 700 -20 return
          </CharString>
          <CharString index="44">
            21 -21 221 209 65 205 hstem
            206 239 134 240 vstem
            579 27 rmoveto
            -104 callgsubr
            186 hlineto
            -105 callsubr
            136 vlineto
            178 -107 89 -193 vhcurveto
            -74 65 -77 callsubr
            194 74 vlineto
            39 21 -19 -46 hvcurveto
            endchar
          </CharString>
          <CharString index="45">
            -99 callgsubr
            hintmask 00001100
            return
          </CharString>
          <CharString index="46">
            -49 callgsubr
            -646 vlineto
            return
          </CharString>
          <CharString index="47">
            rmoveto
            -100 callgsubr
            return
          </CharString>
          <CharString index="48">
            -41 callgsubr
            vhcurveto
            return
          </CharString>
          <CharString index="49">
            rmoveto
            -106 callgsubr
            -35 hlineto
            -15 -12 -12 -15 hvcurveto
            -36 vlineto
            -104 callgsubr
            35 hlineto
            -105 callsubr
            354 -779 -38 callsubr
            return
          </CharString>
          <CharString index="50">
            0 187 108 182 29 194 hstem
            596 250 vstem
            415 673 rmoveto
            -106 callgsubr
            -326 hlineto
            -15 -12 -12 -15 hvcurveto
            -140 vlineto
            -104 callgsubr
            93 -479 hlineto
            -13 callsubr
            -182 vmoveto
            115 hlineto
            30 36 -8 -44 -34 -23 -22 -43 hvcurveto
            -115 hlineto
            endchar
          </CharString>
          <CharString index="51">
            0 215 485 -20 hstem
            41 214 71 196 72 215 vstem
            782 hmoveto
            -105 callsubr
            646 vlineto
            16 -12 11 -15 vhcurveto
            -161 hlineto
            -15 -12 -12 -15 hvcurveto
            -458 -72 458 vlineto
            -106 callgsubr
            -142 hlineto
            -15 -12 -12 -15 hvcurveto
            -458 -71 458 vlineto
            -106 callgsubr
            -160 -24 callgsubr
          </CharString>
          <CharString index="52">
            rmoveto
            17 4 16 19 19 4 -15 -18 vhcurveto
            -94 vlineto
            -19 -5 -15 -18 -18 -5 15 19 vhcurveto
            149 83 rmoveto
            94 -49 54 -77 -77 -50 -53 -96 vhcurveto
            -72 vlineto
            -96 45 -53 82 82 44 54 94 vhcurveto
            return
          </CharString>
          <CharString index="53">
            -7 6 -6 8 vhcurveto
            148 hlineto
            -75 -37 rlineto
            -6 -3 -5 -7 -11 vvcurveto
            -41 vlineto
            return
          </CharString>
          <CharString index="54">
            rmoveto
            2 0 -2 2 vvcurveto
            12 -10 -41 callsubr
            -128 hlineto
            -26 -15 -19 -13 -5 hvcurveto
            -95 -241 rlineto
            -1 -3 0 -2 -2 -65 callgsubr
            185 hlineto
            27 18 21 18 3 hvcurveto
            return
          </CharString>
          <CharString index="55">
            vlineto
            -106 callgsubr
            -209 hlineto
            -15 -12 -12 -15 hvcurveto
            return
          </CharString>
          <CharString index="56">
            rmoveto
            69 47 65 33 57 vvcurveto
            72 -50 42 -106 -105 -64 -48 -77 -7 5 -6 7 vhcurveto
            109 hlineto
            6 6 -1 7 2 hvcurveto
            return
          </CharString>
          <CharString index="57">
            -12 -10 -10 -12 return
          </CharString>
          <CharString index="58">
            hintmask 11100000
            350 195 -106 callsubr
            hintmask 00011000
            return
          </CharString>
          <CharString index="59">
            -98 callgsubr
            endchar
          </CharString>
          <CharString index="60">
            446 -56 callgsubr
            17 18 11 49 46 15 -12 -10 11 vhcurveto
            return
          </CharString>
          <CharString index="61">
            -43 callgsubr
            150 -20 hstem
            599 231 vstem
            462 485 rmoveto
            341 hlineto
            17 10 12 15 hvcurveto
            311 vlineto
            -106 callgsubr
            -177 hlineto
            -15 -12 -12 -15 hvcurveto
            -123 -369 vlineto
            -100 callgsubr
            206 hlineto
            -105 callsubr
            endchar
          </CharString>
          <CharString index="62">
            rmoveto
            1 2 1 2 3 vvcurveto
            6 -5 5 -7 vhcurveto
            -112 hlineto
            -11 -6 -7 -3 -3 hvcurveto
            -85 -106 rlineto
            -40 -50 -11 -39 -26 vvcurveto
            -81 78 -48 101 101 73 55 80 vhcurveto
            hintmask 11011000
            96 -85 30 -53 -4 vhcurveto
            5 -124 rmoveto
            -22 -21 -12 -22 -22 -21 12 22 21 21 12 22 24 19 -12 -21 vhcurveto
            endchar
          </CharString>
          <CharString index="63">
            21 -21 484 216 hstem
            75 250 200 250 vstem
            102 -27 callsubr
            -16 -10 callsubr
            196 hlineto
            -105 callsubr
            457 200 -457 vlineto
            -104 callgsubr
            196 hlineto
            -105 callsubr
            646 vlineto
            -106 callgsubr
            endchar
          </CharString>
          <CharString index="64">
            rmoveto
            -199 161 -161 199 199 161 161 199 199 -161 161 -199 -199 -161 -161 -199 vhcurveto
            94 hmoveto
            151 115 122 151 151 115 -122 -151 -151 -115 -122 -151 -151 -115 122 151 vhcurveto
            return
          </CharString>
          <CharString index="65">
            5 -2 5 -3 3 vhcurveto
            endchar
          </CharString>
          <CharString index="66">
            10 -12 vhcurveto
            return
          </CharString>
          <CharString index="67">
            rmoveto
            13 14 7 17 17 13 -7 -13 -13 -13 -7 -17 -17 -14 7 13 vhcurveto
            return
          </CharString>
          <CharString index="68">
            -82 callsubr
            114 return
          </CharString>
          <CharString index="69">
            rmoveto
            -90 callgsubr
            return
          </CharString>
          <CharString index="70">
            rmoveto
            -18 -15 -14 -19 hvcurveto
            -372 vlineto
            -192 104 -123 239 228 130 121 190 vhcurveto
            96 vlineto
            187 -127 126 -231 vhcurveto
            -1 -198 rmoveto
            80 12 -51 -60 hvcurveto
            -110 vlineto
            -67 -29 -40 -63 -64 -28 39 69 vhcurveto
            220 vlineto
            endchar
          </CharString>
          <CharString index="71">
            rmoveto
            -15 -12 -12 -15 hvcurveto
            -171 vlineto
            -104 callgsubr
            78 -16 callgsubr
            -165 -179 vlineto
            -15 -12 -12 -15 hvcurveto
            -161 vlineto
            -104 callgsubr
            422 -21 callsubr
            100 4 callsubr
            endchar
          </CharString>
          <CharString index="72">
            -21 485 215 return
          </CharString>
          <CharString index="73">
            700 -60 callsubr
            return
          </CharString>
          <CharString index="74">
            552 -85 callgsubr
            return
          </CharString>
          <CharString index="75">
            -81 callsubr
            31 119 hstemhm
            return
          </CharString>
          <CharString index="76">
            -21 223 185 106 186 return
          </CharString>
          <CharString index="77">
            195 rmoveto
            63 334 vlineto
            -105 callsubr
            130 vlineto
            -106 callgsubr
            -334 63 389 hlineto
            -105 callsubr
            -38 callgsubr
            -106 callgsubr
            -622 hlineto
            -100 callgsubr
            return
          </CharString>
          <CharString index="78">
            -195 195 return
          </CharString>
          <CharString index="79">
            rmoveto
            -15 -12 -12 -15 hvcurveto
            -116 vlineto
            -104 callgsubr
            return
          </CharString>
          <CharString index="80">
            -85 callgsubr
            -646 vlineto
            return
          </CharString>
          <CharString index="81">
            71 30 -29 -76 hvcurveto
            return
          </CharString>
          <CharString index="82">
            9 5 12 24 hhcurveto
            22 17 -11 -20 -20 -15 -12 -24 -17 -11 7 11 -9 hvcurveto
            endchar
          </CharString>
          <CharString index="83">
            vlineto
            -104 callgsubr
            186 hlineto
            -105 callsubr
            return
          </CharString>
          <CharString index="84">
            vlineto
            229 -145 return
          </CharString>
          <CharString index="85">
            19 -14 14 -19 vhcurveto
            -194 hlineto
            -18 -15 -14 -19 hvcurveto
            -372 vlineto
            -192 124 -113 239 228 140 111 190 vhcurveto
            108 vlineto
            return
          </CharString>
          <CharString index="86">
            hlineto
            -105 callsubr
            354 -23 callsubr
            return
          </CharString>
          <CharString index="87">
            10 12 1 0 2 return
          </CharString>
          <CharString index="88">
            rmoveto
            -15 -12 -12 -15 hvcurveto
            -136 vlineto
            -104 callgsubr
            705 hlineto
            -105 callsubr
            136 vlineto
            -106 callgsubr
            endchar
          </CharString>
          <CharString index="89">
            52 -39 callgsubr
            hstemhm
            hintmask 11000000
            return
          </CharString>
          <CharString index="90">
            rmoveto
            -15 -12 -12 -15 hvcurveto
            -301 vlineto
            -104 callgsubr
            144 hlineto
            -105 callsubr
            301 vlineto
            -106 callgsubr
            return
          </CharString>
          <CharString index="91">
            21 -21 240 228 return
          </CharString>
          <CharString index="92">
            -84 211 211 return
          </CharString>
          <CharString index="93">
            -5 callsubr
            hstem
            return
          </CharString>
          <CharString index="94">
            -104 callgsubr
            349 hlineto
            181 134 85 155 155 -136 82 -180 hvcurveto
            -115 hlineto
            return
          </CharString>
          <CharString index="95">
            -5 callgsubr
            700 -20 hstemhm
            return
          </CharString>
          <CharString index="96">
            -21 302 -20 hstem
            return
          </CharString>
          <CharString index="97">
            12 -11 15 vhcurveto
            return
          </CharString>
          <CharString index="98">
            -10 86 -55 -21 135 82 56 87 return
          </CharString>
          <CharString index="99">
            205 495 -20 return
          </CharString>
          <CharString index="100">
            hlineto
            -100 callgsubr
            206 hlineto
            -105 callsubr
            return
          </CharString>
          <CharString index="101">
            -10 200 510 -20 return
          </CharString>
          <CharString index="102">
            0 -8 callsubr
            return
          </CharString>
          <CharString index="103">
            -2 vvcurveto
            -12 10 return
          </CharString>
          <CharString index="104">
            215 hlineto
            return
          </CharString>
          <CharString index="105" raw="1">
            4e0a7c97 7f9a1e0b  
          </CharString>
          <CharString index="106">
            99 -99 125 25 95 -83 83 16 99 hstemhm
            return
          </CharString>
          <CharString index="107">
            13 callsubr
            11 33 hvcurveto
            7 hlineto
            return
          </CharString>
          <CharString index="108">
            -79 callsubr
            hstem
            582 return
          </CharString>
          <CharString index="109">
            109 113 138 -100 100 return
          </CharString>
          <CharString index="110">
            85 214 vhcurveto
            return
          </CharString>
          <CharString index="111">
            -226 vhcurveto
            return
          </CharString>
          <CharString index="112">
            194 -92 92 67 99 hstemhm
            248 133 86 134 hintmask 10111000
            312 return
          </CharString>
          <CharString index="113">
            -105 callsubr
            151 vlineto
            -106 callgsubr
            -181 290 hlineto
            return
          </CharString>
          <CharString index="114">
            -21 callsubr
            90 4 callsubr
            return
          </CharString>
          <CharString index="115">
            48 40 48 hstemhm
            324 202 -71 71 return
          </CharString>
          <CharString index="116">
            vlineto
            -104 callgsubr
            endchar
          </CharString>
          <CharString index="117">
            21 -21 310 3 callgsubr
            return
          </CharString>
          <CharString index="118">
            -20 hstem
            326 198 vstem
            return
          </CharString>
          <CharString index="119">
            -21 477 -20 hstemhm
            335 return
          </CharString>
          <CharString index="120">
            -34 -9 11 15 15 10 return
          </CharString>
          <CharString index="121">
            vlineto
            -104 callgsubr
            201 hlineto
            -105 callsubr
            return
          </CharString>
          <CharString index="122">
            vlineto
            -104 callgsubr
            -19 callgsubr
            -105 callsubr
            return
          </CharString>
          <CharString index="123">
            vlineto
            -5 5 -5 6 vhcurveto
            78 hlineto
            6 5 5 5 hvcurveto
            return
          </CharString>
          <CharString index="124">
            -64 callsubr
            hstem
            -48 callgsubr
            vstem
            return
          </CharString>
          <CharString index="125">
            0 200 295 205 hstem
            return
          </CharString>
          <CharString index="126">
            731 119 hstem
            return
          </CharString>
          <CharString index="127">
            -66 callsubr
            51 119 hstemhm
            return
          </CharString>
          <CharString index="128">
            92 -21 516 -20 hstem
            return
          </CharString>
          <CharString index="129">
            -209 hlineto
            -15 -12 -12 -15 hvcurveto
            -382 vlineto
            return
          </CharString>
          <CharString index="130">
            0 200 110 90 95 205 hstemhm
            return
          </CharString>
          <CharString index="131">
            15 vhcurveto
            161 hlineto
            -105 callsubr
            return
          </CharString>
          <CharString index="132">
            334 182 return
          </CharString>
        <CharString name=".notdef">
          endchar
        </CharString>
        <CharString name="A">
          -66 callsubr
          hstem
          550 104 rmoveto
          25 -70 rlineto
          -16 6 12 -18 27 hhcurveto
          189 hlineto
          12 10 -20 callsubr
          -1 3 hvcurveto
          -218 639 rlineto
          15 -4 -14 18 -27 hhcurveto
          -278 hlineto
          -27 -14 -18 -15 -4 hvcurveto
          -218 -639 rlineto
          -1 -3 0 -2 -1 -65 callgsubr
          189 hlineto
          27 12 18 16 6 hvcurveto
          25 70 rlineto
          193 195 rmoveto
          -142 hlineto
          71 208 rlineto
          endchar
        </CharString>
        <CharString name="AE">
          0 195 -91 195 -41 184 63 195 hstemhm
          422 250 hintmask 01011000
          1 callgsubr
          hintmask 10111000
          13 callgsubr
          hlineto
          -105 callsubr
          -38 callgsubr
          -106 callgsubr
          -142 63 108 hlineto
          -105 callsubr
          130 vlineto
          -106 callgsubr
          -108 63 132 hlineto
          -105 callsubr
          -38 callgsubr
          -106 callgsubr
          -521 hlineto
          -27 -13 -18 -15 -5 hvcurveto
          -228 -639 rlineto
          -1 -3 0 -2 -1 -65 callgsubr
          179 hlineto
          27 12 18 16 6 hvcurveto
          hintmask 01011000
          -20 callgsubr
          endchar
        </CharString>
        <CharString name="AEacute">
          0 195 -91 195 -41 184 63 195 31 119 hstemhm
          422 250 hintmask 01010100
          1 callgsubr
          hintmask 10110100
          13 callgsubr
          hlineto
          -105 callsubr
          -38 callgsubr
          -106 callgsubr
          -142 63 108 hlineto
          -105 callsubr
          130 vlineto
          -106 callgsubr
          -108 63 132 hlineto
          -105 callsubr
          -38 callgsubr
          -106 callgsubr
          -521 hlineto
          -27 -13 -18 -15 -5 hvcurveto
          -228 -639 rlineto
          -1 -3 0 -2 -1 -65 callgsubr
          179 hlineto
          27 12 18 16 6 hvcurveto
          hintmask 01010100
          -20 callgsubr
          hintmask 00001000
          -21 253 -107 callgsubr
          endchar
        </CharString>
        <CharString name="Aacute">
          20 callsubr
          hintmask 11100000
          306 104 rmoveto
          -25 -70 rlineto
          -16 -6 -12 -18 -27 hhcurveto
          -189 hlineto
          -12 -10 -20 callsubr
          1 3 hvcurveto
          218 639 rlineto
          15 4 14 18 27 hhcurveto
          278 hlineto
          27 14 -18 -15 4 hvcurveto
          218 -639 rlineto
          1 -3 0 -2 -1 vvcurveto
          -50 callsubr
          vhcurveto
          -189 hlineto
          -27 -12 18 16 -6 hvcurveto
          -25 70 rlineto
          -122 403 rmoveto
          -71 -208 rlineto
          142 hlineto
          hintmask 00010000
          -150 461 -107 callgsubr
          endchar
        </CharString>
        <CharString name="Abreve">
          -66 callsubr
          50 -10 callgsubr
          hintmask 11100000
          550 104 rmoveto
          25 -70 rlineto
          -16 6 12 -18 27 hhcurveto
          189 hlineto
          12 10 -20 callsubr
          -1 3 hvcurveto
          -218 639 rlineto
          15 -4 -14 18 -27 hhcurveto
          -278 hlineto
          -27 -14 -18 -15 -4 hvcurveto
          -218 -639 rlineto
          -1 -3 0 -2 -1 -65 callgsubr
          189 hlineto
          27 12 18 16 6 hvcurveto
          25 70 rlineto
          193 195 rmoveto
          -142 hlineto
          71 208 rlineto
          41 335 -96 callsubr
          hintmask 00010000
          -80 callgsubr
          hintmask 00001000
          -46 callgsubr
        </CharString>
        <CharString name="Acircumflex">
          -66 callsubr
          72 -39 callgsubr
          hstemhm
          hintmask 11100000
          306 104 rmoveto
          -25 -70 rlineto
          -16 -6 -12 -18 -27 hhcurveto
          -189 hlineto
          -12 -10 -20 callsubr
          1 3 hvcurveto
          218 639 rlineto
          15 4 14 18 27 hhcurveto
          278 hlineto
          27 14 -18 -15 4 hvcurveto
          218 -639 rlineto
          1 -3 0 -2 -1 vvcurveto
          -50 callsubr
          vhcurveto
          -189 hlineto
          -27 -12 18 16 -6 hvcurveto
          -25 70 rlineto
          -122 403 rmoveto
          -71 -208 rlineto
          142 hlineto
          hintmask 00011000
          -72 461 rmoveto
          -107 callsubr
        </CharString>
        <CharString name="Acute">
          19 callsubr
          291 760 -107 callgsubr
          endchar
        </CharString>
        <CharString name="Adieresis">
          20 callsubr
          hintmask 11100000
          550 104 rmoveto
          25 -70 rlineto
          -16 6 12 -18 27 hhcurveto
          189 hlineto
          12 10 -20 callsubr
          -1 3 hvcurveto
          -218 639 rlineto
          15 -4 -14 18 -27 hhcurveto
          -278 hlineto
          -27 -14 -18 -15 -4 hvcurveto
          -218 -639 rlineto
          -1 -3 0 -2 -1 -65 callgsubr
          189 hlineto
          27 12 18 16 6 hvcurveto
          25 70 rlineto
          193 195 rmoveto
          -142 hlineto
          71 208 rlineto
          17 324 rmoveto
          -14 17 -8 1 -15 1 rrcurveto
          -158 hlineto
          -12 -7 -8 -12 -5 2 -4 3 -3 hvcurveto
          95 -80 rlineto
          -6 8 10 -1 10 4 4 0 4 hhcurveto
          121 hlineto
          10 6 6 10 hvcurveto
          hintmask 00010000
          -42 callsubr
        </CharString>
        <CharString name="Agrave">
          20 callsubr
          222 -30 callgsubr
          hintmask 11100000
          306 104 rmoveto
          -25 -70 rlineto
          -16 -6 -12 -18 -27 hhcurveto
          -189 hlineto
          -12 -10 -20 callsubr
          1 3 hvcurveto
          218 639 rlineto
          15 4 14 18 27 hhcurveto
          278 hlineto
          27 14 -18 -15 4 hvcurveto
          218 -639 rlineto
          1 -3 0 -2 -1 vvcurveto
          -50 callsubr
          vhcurveto
          -189 hlineto
          -27 -12 18 16 -6 hvcurveto
          -25 70 rlineto
          -122 403 rmoveto
          -71 -208 rlineto
          142 hlineto
          hintmask 00011100
          -3 551 -103 callsubr
          endchar
        </CharString>
        <CharString name="Amacron">
          20 callsubr
          hintmask 11100000
          306 104 rmoveto
          -25 -70 rlineto
          -16 -6 -12 -18 -27 hhcurveto
          -189 hlineto
          -12 -10 -20 callsubr
          1 3 hvcurveto
          218 639 rlineto
          15 4 14 18 27 hhcurveto
          278 hlineto
          27 14 -18 -15 4 hvcurveto
          218 -639 rlineto
          1 -3 0 -2 -1 vvcurveto
          -50 callsubr
          vhcurveto
          -189 hlineto
          -27 -12 18 16 -6 hvcurveto
          -25 70 rlineto
          -122 403 rmoveto
          -71 -208 rlineto
          142 hlineto
          hintmask 00010000
          -257 551 -88 callsubr
        </CharString>
        <CharString name="Aogonek">
          -78 callsubr
        </CharString>
        <CharString name="Aring">
          -66 callsubr
          39 48 40 48 hstemhm
          323 202 -71 71 hintmask 11100000
          306 104 rmoveto
          -25 -70 rlineto
          -16 -6 -12 -18 -27 hhcurveto
          -189 hlineto
          -12 -10 -20 callsubr
          1 3 hvcurveto
          218 639 rlineto
          15 4 14 18 27 hhcurveto
          278 hlineto
          27 14 -18 -15 4 hvcurveto
          218 -639 rlineto
          1 -3 0 -2 -1 vvcurveto
          -50 callsubr
          vhcurveto
          -189 hlineto
          -27 -12 18 16 -6 hvcurveto
          -25 70 rlineto
          -122 403 rmoveto
          -71 -208 rlineto
          142 hlineto
          hintmask 00011010
          -106 488 -40 callsubr
          hintmask 00011100
          -47 callgsubr
        </CharString>
        <CharString name="Atilde">
          -66 callsubr
          50 19 callgsubr
          hintmask 11100000
          306 104 rmoveto
          -25 -70 rlineto
          -16 -6 -12 -18 -27 hhcurveto
          -189 hlineto
          -12 -10 -20 callsubr
          1 3 hvcurveto
          218 639 rlineto
          15 4 14 18 27 hhcurveto
          278 hlineto
          27 14 -18 -15 4 hvcurveto
          218 -639 rlineto
          1 -3 0 -2 -1 vvcurveto
          -50 callsubr
          vhcurveto
          -189 hlineto
          -27 -12 18 16 -6 hvcurveto
          -25 70 rlineto
          -122 403 rmoveto
          -71 -208 rlineto
          142 hlineto
          hintmask 00010010
          -12 431 rmoveto
          109 27 76 25 hvcurveto
          hintmask 00000100
          10 -7 9 -12 vhcurveto
          -84 hlineto
          hintmask 00001010
          -23 2 -19 -29 -33 -23 24 -52 hhcurveto
          -110 -26 -77 -25 -10 9 -8 10 hvcurveto
          84 hlineto
          23 -3 19 30 hhcurveto
          hintmask 00010010
          33 23 -24 52 hhcurveto
          endchar
        </CharString>
        <CharString name="B">
          -91 callgsubr
        </CharString>
        <CharString name="Breve">
          730 -10 callgsubr
          hintmask 10000000
          465 842 -96 callsubr
          hintmask 01000000
          -80 callgsubr
          -46 callgsubr
        </CharString>
        <CharString name="C">
          -79 callgsubr
          hstem
          333 430 rmoveto
          55 41 30 61 61 19 -25 -31 16 vhcurveto
          -16 8 10 -10 17 hhcurveto
          216 -39 callsubr
          -115 141 -254 7 callgsubr
          254 -14 callgsubr
          114 -89 callsubr
          endchar
        </CharString>
        <CharString name="CR">
          endchar
        </CharString>
        <CharString name="Cacute">
          -79 callgsubr
          21 119 hstemhm
          hintmask 11000000
          333 430 rmoveto
          55 41 30 61 61 19 -25 -31 16 vhcurveto
          -16 8 10 -10 17 hhcurveto
          216 -39 callsubr
          -115 141 -254 7 callgsubr
          254 -14 callgsubr
          114 -89 callsubr
          hintmask 00100000
          6 490 -107 callgsubr
          endchar
        </CharString>
        <CharString name="Caron">
          752 -39 callgsubr
          hstem
          425 821 -102 callsubr
        </CharString>
        <CharString name="Ccaron">
          -79 callgsubr
          42 -39 callgsubr
          hstemhm
          hintmask 11000000
          333 430 rmoveto
          55 41 30 61 61 19 -25 -31 16 vhcurveto
          -16 8 10 -10 17 hhcurveto
          216 -39 callsubr
          -115 141 -254 7 callgsubr
          254 -14 callgsubr
          114 -89 callsubr
          hintmask 00110000
          96 551 -102 callsubr
        </CharString>
        <CharString name="Ccedilla">
          -150 48 -48 61 14 53 -23 -21 57 194 330 195 hstemhm
          341 242 hintmask 10101110
          333 430 rmoveto
          55 41 30 61 61 19 -25 -31 16 vhcurveto
          -16 8 10 -10 17 hhcurveto
          216 -39 callsubr
          -115 141 -254 -206 -166 -91 -210 hvcurveto
          -118 vlineto
          -190 136 -93 179 -15 vhcurveto
          -15 -46 rlineto
          -1 -3 -1 -3 -3 vvcurveto
          -8 5 -5 10 vhcurveto
          44 hlineto
          hintmask 10011110
          19 2 9 27 hhcurveto
          20 8 -7 -10 -10 -8 -9 -21 hvcurveto
          hintmask 01101110
          -35 8 13 -25 hhcurveto
          -61 hlineto
          -7 -6 -3 -8 -34 66 -16 60 51 65 17 50 40 -40 21 -51 -7 -21 0 -4 -9 hvcurveto
          6 17 rlineto
          236 9 107 135 110 vvcurveto
          -89 callsubr
          endchar
        </CharString>
        <CharString name="Ccircumflex">
          -79 callgsubr
          42 -39 callgsubr
          hstemhm
          hintmask 11000000
          333 430 rmoveto
          55 41 30 61 61 19 -25 -31 16 vhcurveto
          -16 8 10 -10 17 hhcurveto
          216 -39 callsubr
          -115 141 -254 7 callgsubr
          254 -14 callgsubr
          114 -89 callsubr
          hintmask 00110000
          99 490 rmoveto
          -107 callsubr
        </CharString>
        <CharString name="Cdotaccent">
          -79 callgsubr
          21 119 hstemhm
          336 182 hintmask 11000000
          333 430 rmoveto
          55 41 30 61 61 19 -25 -31 16 vhcurveto
          -16 8 10 -10 17 hhcurveto
          216 -39 callsubr
          -115 141 -254 7 callgsubr
          254 -14 callgsubr
          114 -89 callsubr
          hintmask 00110000
          26 580 -88 callgsubr
        </CharString>
        <CharString name="Cedilla">
          -150 48 -48 61 14 53 -53 120 -90 -21 hstemhm
          341 242 hintmask 10100100
          363 -53 rmoveto
          -1 -3 -1 -3 -3 vvcurveto
          -8 5 -5 10 vhcurveto
          44 hlineto
          hintmask 10001100
          19 2 9 27 hhcurveto
          20 8 -7 -10 -10 -8 -9 -21 hvcurveto
          hintmask 01100100
          -35 8 13 -25 hhcurveto
          -61 hlineto
          -7 -6 -3 -8 -34 66 -16 60 51 65 17 50 40 -40 21 -51 -7 -21 0 -4 -9 hvcurveto
          18 51 rlineto
          1 2 1 5 2 vvcurveto
          hintmask 10010100
          9 -11 2 -12 vhcurveto
          -28 hlineto
          -15 -14 0 -12 -4 hvcurveto
          endchar
        </CharString>
        <CharString name="Circumflex">
          752 -39 callgsubr
          hstem
          425 760 rmoveto
          -107 callsubr
        </CharString>
        <CharString name="D">
          0 195 310 195 hstem
          103 700 rmoveto
          -15 -12 -12 -15 hvcurveto
          -646 vlineto
          -91 callsubr
          hlineto
          endchar
        </CharString>
        <CharString name="Dcaron">
          0 195 310 195 -18 callsubr
          103 700 rmoveto
          -15 -12 -12 -15 hvcurveto
          -646 vlineto
          -91 callsubr
          hlineto
          hintmask 00110000
          49 626 -102 callsubr
        </CharString>
        <CharString name="Dcroat">
          0 195 79 155 76 -18 callgsubr
          -244 -49 vlineto
          -15 -12 -12 -15 hvcurveto
          -101 vlineto
          -104 callgsubr
          49 -247 hlineto
          -91 callsubr
          79 35 hlineto
          -105 callsubr
          101 vlineto
          -106 callgsubr
          -35 hlineto
          endchar
        </CharString>
        <CharString name="Dieresis">
          19 callsubr
          219 -30 callgsubr
          vstem
          493 850 -103 callsubr
          endchar
        </CharString>
        <CharString name="Dotaccent">
          19 callsubr
          25 callsubr
          vstem
          357 850 -88 callgsubr
        </CharString>
        <CharString name="E">
          -81 callsubr
          hstem
          cntrmask 11100000
          350 195 -106 callsubr
          endchar
        </CharString>
        <CharString name="Eacute">
          -81 callsubr
          35 119 hstemhm
          hintmask 00010000
          348 764 -107 callgsubr
          hintmask 11100000
          -46 -640 -106 callsubr
          endchar
        </CharString>
        <CharString name="Ebreve">
          -81 callsubr
          30 -10 callgsubr
          hintmask 11100000
          350 195 -106 callsubr
          -274 647 -96 callsubr
          hintmask 00010000
          -80 callgsubr
          hintmask 00001000
          -46 callgsubr
        </CharString>
        <CharString name="Ecaron">
          -81 callsubr
          52 -39 callgsubr
          hstemhm
          -49 callsubr
          -324 626 -102 callsubr
        </CharString>
        <CharString name="Ecircumflex">
          -81 callsubr
          52 -39 callgsubr
          hstemhm
          hintmask 11100000
          360 195 -106 callsubr
          hintmask 00011000
          -335 565 rmoveto
          -107 callsubr
        </CharString>
        <CharString name="Edieresis">
          -32 callsubr
          226 -30 callgsubr
          hintmask 11100000
          360 195 -106 callsubr
          hintmask 00011100
          -259 655 -103 callsubr
          endchar
        </CharString>
        <CharString name="Edotaccent">
          -71 callsubr
        </CharString>
        <CharString name="Egrave">
          -32 callsubr
          hintmask 11100000
          360 195 -106 callsubr
          -271 636 rmoveto
          -14 17 -8 1 -15 1 rrcurveto
          -158 hlineto
          -12 -7 -8 -12 -5 2 -4 3 -3 hvcurveto
          95 -80 rlineto
          -6 8 10 -1 10 4 4 0 4 hhcurveto
          121 hlineto
          10 6 6 10 hvcurveto
          hintmask 00010000
          -42 callsubr
        </CharString>
        <CharString name="Emacron">
          -32 callsubr
          hintmask 11100000
          350 195 -106 callsubr
          hintmask 00010000
          -517 655 -88 callsubr
        </CharString>
        <CharString name="Eng">
          -66 callgsubr
        </CharString>
        <CharString name="Eogonek">
          -75 callgsubr
        </CharString>
        <CharString name="Eth">
          0 195 79 155 76 -18 callgsubr
          -244 -49 vlineto
          -15 -12 -12 -15 hvcurveto
          -101 vlineto
          -104 callgsubr
          49 -247 hlineto
          -91 callsubr
          79 85 hlineto
          -105 callsubr
          101 vlineto
          -106 callgsubr
          -85 hlineto
          endchar
        </CharString>
        <CharString name="Euro">
          4 callgsubr
          81 170 79 195 hstem
          27 436 -28 callsubr
          41 hlineto
          -192 13 160 -84 198 hhcurveto
          254 -14 callgsubr
          114 12 -10 10 -12 hvcurveto
          -216 hlineto
          -17 -10 -10 -16 -8 hvcurveto
          -31 -16 -19 -25 -61 hhcurveto
          -60 -40 28 53 -2 hvcurveto
          95 hlineto
          -105 callsubr
          116 vlineto
          -106 callgsubr
          -95 hlineto
          51 3 40 28 59 hhcurveto
          61 19 -25 -31 16 hvcurveto
          -16 8 10 -10 17 hhcurveto
          216 -39 callsubr
          -115 141 -254 -197 -160 -84 -190 -14 hvcurveto
          endchar
        </CharString>
        <CharString name="F">
          21 -21 225 205 64 206 hstem
          127 -34 callsubr
          -19 callgsubr
          -102 callgsubr
          hvcurveto
          198 328 vlineto
          -105 callsubr
          151 vlineto
          -106 callgsubr
          -328 64 393 hlineto
          -105 callsubr
          152 vlineto
          -106 callgsubr
          endchar
        </CharString>
        <CharString name="G">
          4 callgsubr
          72 165 43 245 -29 callsubr
          hstemhm
          -99 callgsubr
          endchar
        </CharString>
        <CharString name="Gbreve">
          4 callgsubr
          72 165 43 245 -29 callsubr
          20 -10 callgsubr
          -99 callgsubr
          -320 420 -96 callsubr
          hintmask 00001000
          -80 callgsubr
          hintmask 00000100
          -46 callgsubr
        </CharString>
        <CharString name="Gcircumflex">
          4 callgsubr
          72 165 43 245 -29 callsubr
          42 -39 callgsubr
          hstemhm
          -62 callsubr
          -353 338 rmoveto
          -107 callsubr
        </CharString>
        <CharString name="Gcommaaccent">
          -15 callgsubr
          21 195 72 165 43 245 -29 callsubr
          hstemhm
          hintmask 01101000
          495 422 rmoveto
          -15 -12 -12 -15 hvcurveto
          -111 vlineto
          -104 callgsubr
          62 hlineto
          -33 -1 -30 -39 -91 hhcurveto
          -61 -46 30 55 hvcurveto
          170 vlineto
          45 46 30 61 61 23 -29 -10 8 vhcurveto
          hintmask 01110000
          -7 6 8 -4 15 hhcurveto
          226 -82 callsubr
          48 -86 175 -283 -206 -171 -89 -212 hvcurveto
          -118 vlineto
          -217 166 -15 callsubr
          166 3 callsubr
          106 vlineto
          -106 callgsubr
          hintmask 10000000
          -520 -543 -107 callgsubr
          endchar
        </CharString>
        <CharString name="Gdotaccent">
          4 callgsubr
          72 165 43 245 -29 callsubr
          21 119 hstemhm
          25 callsubr
          -62 callsubr
          -428 428 -88 callgsubr
        </CharString>
        <CharString name="Grave">
          19 callsubr
          501 831 rmoveto
          -14 17 -8 1 -15 1 rrcurveto
          -158 hlineto
          -12 -7 -8 -12 -5 2 -4 3 -3 hvcurveto
          95 -80 rlineto
          -6 8 10 -1 10 4 4 0 4 hhcurveto
          121 hlineto
          10 6 6 10 5 -2 5 -3 3 hvcurveto
          endchar
        </CharString>
        <CharString name="H">
          -16 callsubr
          232 21 callgsubr
          -205 -200 205 vlineto
          -61 callsubr
          -16 12 -11 15 vhcurveto
          206 hlineto
          -105 callsubr
          213 200 -213 vlineto
          -83 callgsubr
          endchar
        </CharString>
        <CharString name="Hbar">
          -16 callsubr
          44 125 63 21 callgsubr
          -36 -200 36 vlineto
          -61 callsubr
          -16 12 -11 15 vhcurveto
          206 hlineto
          -105 callsubr
          213 200 -213 vlineto
          -83 callgsubr
          -433 -232 rmoveto
          44 200 -44 vlineto
          endchar
        </CharString>
        <CharString name="Hcircumflex">
          -16 callsubr
          232 -20 72 -39 callgsubr
          hstemhm
          hintmask 11100000
          -33 callsubr
          -205 -200 205 vlineto
          -61 callsubr
          -16 12 -11 15 vhcurveto
          206 hlineto
          -105 callsubr
          213 200 -213 vlineto
          -83 callgsubr
          hintmask 00011000
          -336 60 rmoveto
          -107 callsubr
        </CharString>
        <CharString name="Hungarumlaut">
          19 callsubr
          195 760 -95 callsubr
          195 -71 -95 callsubr
          endchar
        </CharString>
        <CharString name="I">
          -74 callgsubr
          hstem
          -105 callgsubr
          endchar
        </CharString>
        <CharString name="Iacute">
          0 callgsubr
          -104 callsubr
          hintmask 00100000
          -212 265 -107 callgsubr
          endchar
        </CharString>
        <CharString name="Ibreve">
          -74 callgsubr
          30 -10 callgsubr
          -104 callsubr
          -95 347 -96 callsubr
          hintmask 00100000
          -80 callgsubr
          hintmask 00010000
          -46 callgsubr
        </CharString>
        <CharString name="Icircumflex">
          -74 callgsubr
          52 -21 119 -20 hstemhm
          -104 callsubr
          hintmask 00110000
          -136 265 rmoveto
          -107 callsubr
        </CharString>
        <CharString name="Idieresis">
          0 callgsubr
          218 162 89 162 -104 callsubr
          hintmask 00111000
          -69 355 -103 callsubr
          endchar
        </CharString>
        <CharString name="Idotaccent">
          0 callgsubr
          25 callsubr
          -104 callsubr
          hintmask 00110000
          -204 355 -88 callgsubr
        </CharString>
        <CharString name="Igrave">
          0 callgsubr
          -104 callsubr
          -87 336 rmoveto
          -14 17 -8 1 -15 1 rrcurveto
          -158 hlineto
          -12 -7 -8 -12 -5 2 -4 3 -3 hvcurveto
          95 -80 rlineto
          -6 8 10 -1 10 4 4 0 4 hhcurveto
          121 hlineto
          10 6 6 10 hvcurveto
          hintmask 00100000
          -42 callsubr
        </CharString>
        <CharString name="Iogonek">
          -76 callsubr
        </CharString>
        <CharString name="Itilde">
          -74 callgsubr
          30 19 callgsubr
          -104 callsubr
          hintmask 00100100
          -74 235 -78 callgsubr
        </CharString>
        <CharString name="J">
          4 callgsubr
          310 205 hstem
          -92 callsubr
          endchar
        </CharString>
        <CharString name="Jcircumflex">
          4 callgsubr
          310 205 -18 callsubr
          -92 callsubr
          hintmask 00110000
          -333 469 rmoveto
          -107 callsubr
        </CharString>
        <CharString name="K">
          -79 callsubr
          hstem
          568 -98 callsubr
          endchar
        </CharString>
        <CharString name="Kcommaaccent">
          -12 callsubr
          hintmask 01100000
          568 -98 callsubr
          hintmask 10000000
          -577 -156 -107 callgsubr
          endchar
        </CharString>
        <CharString name="L">
          0 205 495 -20 hstem
          410 205 -70 callsubr
        </CharString>
        <CharString name="Lacute">
          -5 callsubr
          51 119 hstemhm
          hintmask 11000000
          410 205 -92 callgsubr
          hintmask 00100000
          -569 555 -107 callgsubr
          endchar
        </CharString>
        <CharString name="Lcaron">
          -62 callgsubr
        </CharString>
        <CharString name="Lcommaaccent">
          -15 callgsubr
          31 -8 callsubr
          hstemhm
          hintmask 01100000
          410 205 -92 callgsubr
          hintmask 10000000
          -468 -326 -107 callgsubr
          endchar
        </CharString>
        <CharString name="Ldot">
          -61 callgsubr
        </CharString>
        <CharString name="Lslash">
          -65 callsubr
        </CharString>
        <CharString name="M">
          -79 callsubr
          hstem
          41 235 298 235 vstem
          425 433 rmoveto
          -131 240 rlineto
          7 -4 -12 20 -27 hhcurveto
          -183 hlineto
          -100 callgsubr
          181 hlineto
          -105 callsubr
          310 vlineto
          73 -144 rlineto
          -5 2 13 -20 27 hhcurveto
          68 hlineto
          27 13 20 5 2 hvcurveto
          73 144 rlineto
          -310 vlineto
          -104 callgsubr
          181 hlineto
          -105 callsubr
          646 vlineto
          -106 callgsubr
          -183 hlineto
          -27 -12 -20 -7 -4 hvcurveto
          endchar
        </CharString>
        <CharString name="Macron">
          19 callsubr
          242 850 -88 callsubr
        </CharString>
        <CharString name="N">
          21 17 callsubr
          552 700 -48 callsubr
        </CharString>
        <CharString name="NULL">
          -107 endchar
        </CharString>
        <CharString name="Nacute">
          -8 callgsubr
          79 240 206 240 hintmask 11011000
          552 700 -98 callgsubr
          hintmask 00100000
          -407 60 -107 callgsubr
          endchar
        </CharString>
        <CharString name="Ncaron">
          -79 callsubr
          72 -39 callgsubr
          -26 callgsubr
          hintmask 11001100
          552 700 -98 callgsubr
          hintmask 00110000
          -313 121 -102 callsubr
        </CharString>
        <CharString name="Ncommaaccent">
          -12 callsubr
          79 240 206 240 hintmask 01111000
          552 700 -98 callgsubr
          hintmask 10000000
          -477 -821 -107 callgsubr
          endchar
        </CharString>
        <CharString name="Ntilde">
          -83 callsubr
        </CharString>
        <CharString name="O">
          -79 callgsubr
          hstem
          797 411 rmoveto
          209 -166 90 -206 -206 -166 -89 -212 vhcurveto
          -118 vlineto
          -217 161 -15 callsubr
          161 3 callsubr
          -474 141 rmoveto
          55 41 30 61 25 callgsubr
          -7 callgsubr
          vlineto
          -56 -27 callgsubr
          -61 -41 30 55 vhcurveto
          endchar
        </CharString>
        <CharString name="OE">
          -81 callsubr
          hstem
          54 240 102 240 cntrmask 11100000
          778 hmoveto
          -105 callsubr
          -38 callgsubr
          -106 callgsubr
          -142 63 108 hlineto
          -105 callsubr
          130 vlineto
          -106 callgsubr
          -108 63 132 hlineto
          -105 callsubr
          -38 callgsubr
          -106 callgsubr
          -372 hlineto
          -206 -136 -89 -212 hvcurveto
          -99 vlineto
          -217 131 -83 211 vhcurveto
          -102 420 rmoveto
          55 41 30 61 vhcurveto
          -310 vlineto
          -61 -41 29 55 hvcurveto
          endchar
        </CharString>
        <CharString name="Oacute">
          -79 callgsubr
          21 119 hstemhm
          hintmask 11000000
          797 411 rmoveto
          209 -166 90 -206 -206 -166 -89 -212 vhcurveto
          -118 vlineto
          -217 161 -15 callsubr
          161 3 callsubr
          -474 141 rmoveto
          55 41 30 61 25 callgsubr
          -7 callgsubr
          vlineto
          -56 -27 callgsubr
          -61 -41 30 55 vhcurveto
          hintmask 00100000
          6 490 -107 callgsubr
          endchar
        </CharString>
        <CharString name="Obreve">
          -79 callgsubr
          20 -10 callgsubr
          hintmask 11000000
          797 411 rmoveto
          209 -166 90 -206 -206 -166 -89 -212 vhcurveto
          -118 vlineto
          -217 161 -15 callsubr
          161 3 callsubr
          -474 141 rmoveto
          55 41 30 61 25 callgsubr
          -7 callgsubr
          vlineto
          -56 -27 callgsubr
          -61 -41 30 55 vhcurveto
          141 572 -96 callsubr
          hintmask 00100000
          -80 callgsubr
          hintmask 00010000
          -46 callgsubr
        </CharString>
        <CharString name="Ocircumflex">
          -79 callgsubr
          42 -39 callgsubr
          hstemhm
          hintmask 11000000
          797 411 rmoveto
          209 -166 90 -206 -206 -166 -89 -212 vhcurveto
          -118 vlineto
          -217 161 -15 callsubr
          161 3 callsubr
          -474 141 rmoveto
          55 41 30 61 25 callgsubr
          -7 callgsubr
          vlineto
          -56 -27 callgsubr
          -61 -41 30 55 vhcurveto
          hintmask 00110000
          103 490 rmoveto
          -107 callsubr
        </CharString>
        <CharString name="Odieresis">
          -79 callgsubr
          25 119 hstemhm
          219 -30 callgsubr
          hintmask 00111000
          493 854 -103 callsubr
          hintmask 11000000
          439 -443 rmoveto
          209 -166 90 -206 -206 -166 -89 -212 vhcurveto
          -118 vlineto
          -217 161 -15 callsubr
          161 3 callsubr
          -474 141 rmoveto
          55 41 30 61 25 callgsubr
          -7 callgsubr
          vlineto
          -56 -27 callgsubr
          -61 -41 30 55 vhcurveto
          endchar
        </CharString>
        <CharString name="Ogonek">
          -150 90 52 90 hstemhm
          329 116 -116 193 hintmask 11100000
          495 -60 rmoveto
          -7 hlineto
          0 callsubr
          hintmask 11010000
          15 12 4 16 hvcurveto
          50 vlineto
          16 -12 4 -15 vhcurveto
          -14 hlineto
          -111 -41 -45 -71 -72 41 -44 111 hvcurveto
          14 hlineto
          15 12 9 15 hvcurveto
          41 vlineto
          16 -12 9 -15 vhcurveto
          endchar
        </CharString>
        <CharString name="Ograve">
          -79 callgsubr
          21 119 hstemhm
          hintmask 11000000
          797 411 rmoveto
          209 -166 90 -206 -206 -166 -89 -212 vhcurveto
          -118 vlineto
          -217 161 -15 callsubr
          161 3 callsubr
          -474 141 rmoveto
          55 41 30 61 25 callgsubr
          -7 callgsubr
          vlineto
          -56 -27 callgsubr
          -61 -41 30 55 vhcurveto
          136 561 rmoveto
          -14 17 -8 1 -15 1 rrcurveto
          -158 hlineto
          -12 -7 -8 -12 -5 2 -4 3 -3 hvcurveto
          95 -80 rlineto
          -6 8 10 -1 10 4 4 0 4 hhcurveto
          121 hlineto
          10 6 6 10 hvcurveto
          hintmask 00100000
          -42 callsubr
        </CharString>
        <CharString name="Ohungarumlaut">
          -79 callgsubr
          21 119 hstemhm
          hintmask 11000000
          797 411 rmoveto
          209 -166 90 -206 -206 -166 -89 -212 vhcurveto
          -118 vlineto
          -217 161 -15 callsubr
          161 3 callsubr
          -474 141 rmoveto
          55 41 30 61 25 callgsubr
          -7 callgsubr
          vlineto
          -56 -27 callgsubr
          -61 -41 30 55 vhcurveto
          hintmask 00100000
          -72 490 -95 callsubr
          195 -71 -95 callsubr
          endchar
        </CharString>
        <CharString name="Omacron">
          -79 callgsubr
          21 119 hstemhm
          hintmask 11000000
          797 411 rmoveto
          209 -166 90 -206 -206 -166 -89 -212 vhcurveto
          -118 vlineto
          -217 161 -15 callsubr
          161 3 callsubr
          -474 141 rmoveto
          55 41 30 61 25 callgsubr
          -7 callgsubr
          vlineto
          -56 -27 callgsubr
          -61 -41 30 55 vhcurveto
          hintmask 00100000
          -81 580 -88 callsubr
        </CharString>
        <CharString name="Oslash">
          4 callgsubr
          331 195 hstem
          -94 callsubr
          endchar
        </CharString>
        <CharString name="Oslashacute">
          4 callgsubr
          331 195 20 119 hstemhm
          hintmask 11000000
          -94 callsubr
          hintmask 00100000
          8 368 -107 callgsubr
          endchar
        </CharString>
        <CharString name="Otilde">
          -79 callgsubr
          23 -4 callgsubr
          101 hstemhm
          hintmask 00010000
          494 -85 callsubr
          hintmask 11000000
          303 -322 rmoveto
          209 -166 90 -206 -206 -166 -89 -212 vhcurveto
          -118 vlineto
          -217 161 -15 callsubr
          161 3 callsubr
          -474 141 rmoveto
          55 41 30 61 25 callgsubr
          -7 callgsubr
          vlineto
          -56 -27 callgsubr
          -61 -41 30 55 vhcurveto
          endchar
        </CharString>
        <CharString name="P">
          21 -21 219 185 110 186 hstem
          153 -34 callsubr
          -3 callsubr
          -102 callgsubr
          hvcurveto
          192 132 vlineto
          240 68 104 135 135 -114 107 -194 hvcurveto
          -131 -186 rmoveto
          127 hlineto
          33 19 -24 -33 -33 -21 -20 -31 hvcurveto
          -127 hlineto
          endchar
        </CharString>
        <CharString name="Q">
          -65 250 -29 callsubr
          330 195 hstemhm
          hintmask 01100000
          796 411 rmoveto
          214 -161 85 -211 -211 -161 -84 -217 vhcurveto
          -118 vlineto
          -217 161 -84 211 23 22 1 2 21 vhcurveto
          26 -33 rlineto
          hintmask 10100000
          -6 4 18 -19 27 hhcurveto
          191 -82 callsubr
          -2 hvcurveto
          3 -2 4 -1 2 vhcurveto
          -74 100 rlineto
          61 48 36 73 102 vvcurveto
          -474 141 rmoveto
          55 41 30 61 25 callgsubr
          -7 callgsubr
          vlineto
          -56 -27 callgsubr
          -61 -41 30 55 vhcurveto
          endchar
        </CharString>
        <CharString name="R">
          21 -31 callsubr
          hstem
          -97 callgsubr
          endchar
        </CharString>
        <CharString name="Racute">
          21 -31 callsubr
          31 119 hstemhm
          hintmask 11100000
          -97 callgsubr
          hintmask 00010000
          -40 352 -107 callgsubr
          endchar
        </CharString>
        <CharString name="Rcaron">
          21 -31 callsubr
          52 -39 callgsubr
          hstemhm
          hintmask 11100000
          -97 callgsubr
          hintmask 00011000
          54 413 -102 callsubr
        </CharString>
        <CharString name="Rcommaaccent">
          -150 119 52 -31 callsubr
          hstemhm
          hintmask 01110000
          -97 callgsubr
          hintmask 10000000
          -80 -529 -107 callgsubr
          endchar
        </CharString>
        <CharString name="Ring">
          719 8 callsubr
          hintmask 11010000
          394 787 -40 callsubr
          hintmask 11100000
          -47 callgsubr
        </CharString>
        <CharString name="S">
          -10 -69 callgsubr
          -103 callgsubr
          endchar
        </CharString>
        <CharString name="Sacute">
          -10 -69 callgsubr
          21 119 -103 callgsubr
          hintmask 00001000
          -169 314 -107 callgsubr
          endchar
        </CharString>
        <CharString name="Scaron">
          -10 -69 callgsubr
          42 -39 callgsubr
          -103 callgsubr
          hintmask 00001100
          -59 375 -102 callsubr
        </CharString>
        <CharString name="Scedilla">
          -87 callsubr
        </CharString>
        <CharString name="Scircumflex">
          -10 -69 callgsubr
          42 -39 callgsubr
          -103 callgsubr
          hintmask 00001100
          -59 314 rmoveto
          -107 callsubr
        </CharString>
        <CharString name="Scommaaccent">
          -15 callgsubr
          21 -69 callgsubr
          hstemhm
          hintmask 01001000
          -36 callgsubr
          hintmask 01010000
          -8 9 8 -4 14 hhcurveto
          -3 callsubr
          14 10 9 13 87 -121 120 -221 -203 -130 -94 -136 -132 108 -64 175 -21 hvcurveto
          120 -14 29 -11 -24 vvcurveto
          -22 -42 -7 -53 -47 -26 4 23 -24 vhcurveto
          hintmask 00110000
          8 -8 -9 5 -17 hhcurveto
          -205 hlineto
          -14 -9 -9 -13 -111 114 -102 245 210 152 90 146 129 -82 66 -221 25 hvcurveto
          hintmask 10000000
          -227 -567 -107 callgsubr
          endchar
        </CharString>
        <CharString name="T">
          -43 callgsubr
          hstem
          -93 callsubr
          endchar
        </CharString>
        <CharString name="Tbar">
          21 -21 255 125 105 215 hstem
          208 380 rmoveto
          -15 -12 -12 -15 hvcurveto
          -71 vlineto
          -104 callgsubr
          87 -228 -63 callgsubr
          228 87 vlineto
          -105 callsubr
          71 vlineto
          -106 callgsubr
          -87 105 -3 callsubr
          -105 callsubr
          161 vlineto
          -106 callgsubr
          -690 -86 callsubr
          215 -105 hlineto
          endchar
        </CharString>
        <CharString name="Tcaron">
          -43 callgsubr
          -18 callsubr
          -93 callsubr
          hintmask 00110000
          -345 121 -102 callsubr
        </CharString>
        <CharString name="Tcommaaccent">
          -5 callgsubr
          485 215 hstemhm
          hintmask 01100000
          -93 callsubr
          hintmask 10000000
          -519 -821 -107 callgsubr
          endchar
        </CharString>
        <CharString name="Thorn">
          -54 callgsubr
        </CharString>
        <CharString name="Tilde">
          730 19 callgsubr
          hintmask 10010000
          487 730 rmoveto
          109 27 76 25 hvcurveto
          hintmask 00100000
          10 -7 9 -12 vhcurveto
          -84 hlineto
          hintmask 01010000
          -23 2 -19 -29 -33 -23 24 -52 hhcurveto
          -110 -26 -77 -25 -10 9 -8 10 hvcurveto
          84 hlineto
          23 -3 19 30 hhcurveto
          hintmask 10010000
          33 23 -24 52 hhcurveto
          endchar
        </CharString>
        <CharString name="U">
          -6 callsubr
          hstem
          425 -10 rmoveto
          211 154 84 217 hvcurveto
          382 -52 callsubr
          -398 vlineto
          -55 -27 callgsubr
          -61 -41 30 55 vhcurveto
          398 -52 callsubr
          -382 vlineto
          -217 154 -84 211 vhcurveto
          endchar
        </CharString>
        <CharString name="Uacute">
          -6 callsubr
          51 119 hstemhm
          hintmask 11000000
          425 -10 rmoveto
          -211 -154 84 217 hvcurveto
          382 vlineto
          -102 callgsubr
          vhcurveto
          209 hlineto
          15 12 -12 -15 hvcurveto
          -398 vlineto
          -55 41 -30 61 61 41 30 55 vhcurveto
          398 vlineto
          -102 callgsubr
          vhcurveto
          209 hlineto
          15 12 -12 -15 hvcurveto
          -382 vlineto
          -217 -154 -84 -211 vhcurveto
          hintmask 00100000
          -86 770 -107 callgsubr
          endchar
        </CharString>
        <CharString name="Ubreve">
          -6 callsubr
          50 -10 callgsubr
          hintmask 11000000
          425 -10 rmoveto
          211 154 84 217 hvcurveto
          382 -52 callsubr
          -398 vlineto
          -55 -27 callgsubr
          -61 -41 30 55 vhcurveto
          398 -52 callsubr
          -382 vlineto
          -217 154 -84 211 vhcurveto
          40 852 -96 callsubr
          hintmask 00100000
          -80 callgsubr
          hintmask 00010000
          -46 callgsubr
        </CharString>
        <CharString name="Ucircumflex">
          -6 callsubr
          72 -39 callgsubr
          hstemhm
          hintmask 11000000
          425 -10 rmoveto
          -211 -154 84 217 hvcurveto
          382 vlineto
          -102 callgsubr
          vhcurveto
          209 hlineto
          15 12 -12 -15 hvcurveto
          -398 vlineto
          -55 41 -30 61 61 41 30 55 vhcurveto
          398 vlineto
          -102 callgsubr
          vhcurveto
          209 hlineto
          15 12 -12 -15 hvcurveto
          -382 vlineto
          -217 -154 -84 -211 vhcurveto
          hintmask 00110000
          770 vmoveto
          -107 callsubr
        </CharString>
        <CharString name="Udieresis">
          -6 callsubr
          55 -33 callgsubr
          hintmask 00111000
          492 854 -103 callsubr
          hintmask 11000000
          68 -864 rmoveto
          -211 -154 84 217 hvcurveto
          382 vlineto
          -102 callgsubr
          vhcurveto
          209 hlineto
          15 12 -12 -15 hvcurveto
          -398 vlineto
          -55 41 -30 61 61 41 30 55 vhcurveto
          398 vlineto
          -102 callgsubr
          vhcurveto
          209 hlineto
          15 12 -12 -15 hvcurveto
          -382 vlineto
          -217 -154 -84 -211 vhcurveto
          endchar
        </CharString>
        <CharString name="Ugrave">
          -6 callsubr
          51 119 hstemhm
          hintmask 11000000
          425 -10 rmoveto
          211 154 84 217 hvcurveto
          382 -52 callsubr
          -398 vlineto
          -55 -27 callgsubr
          -61 -41 30 55 vhcurveto
          398 -52 callsubr
          -382 vlineto
          -217 154 -84 211 vhcurveto
          29 841 rmoveto
          -14 17 -8 1 -15 1 rrcurveto
          -158 hlineto
          -12 -7 -8 -12 -5 2 -4 3 -3 hvcurveto
          95 -80 rlineto
          -6 8 10 -1 10 4 4 0 4 hhcurveto
          121 hlineto
          10 6 6 10 hvcurveto
          hintmask 00100000
          -42 callsubr
        </CharString>
        <CharString name="Uhungarumlaut">
          -6 callsubr
          51 119 hstemhm
          hintmask 11000000
          425 -10 rmoveto
          -211 -154 84 217 hvcurveto
          382 vlineto
          -102 callgsubr
          vhcurveto
          209 hlineto
          15 12 -12 -15 hvcurveto
          -398 vlineto
          -55 41 -30 61 61 41 30 55 vhcurveto
          398 vlineto
          -102 callgsubr
          vhcurveto
          209 hlineto
          15 12 -12 -15 hvcurveto
          -382 vlineto
          -217 -154 -84 -211 vhcurveto
          hintmask 00100000
          -189 770 -95 callsubr
          195 -71 -95 callsubr
          endchar
        </CharString>
        <CharString name="Umacron">
          -6 callsubr
          51 119 hstemhm
          hintmask 11000000
          425 -10 rmoveto
          -211 -154 84 217 hvcurveto
          382 vlineto
          -102 callgsubr
          vhcurveto
          209 hlineto
          15 12 -12 -15 hvcurveto
          -398 vlineto
          -55 41 -30 61 61 41 30 55 vhcurveto
          398 vlineto
          -102 callgsubr
          vhcurveto
          209 hlineto
          15 12 -12 -15 hvcurveto
          -382 vlineto
          -217 -154 -84 -211 vhcurveto
          hintmask 00100000
          -183 860 -88 callsubr
        </CharString>
        <CharString name="Uogonek">
          -150 90 760 -20 hstemhm
          334 116 -116 193 hintmask 11100000
          493 -60 rmoveto
          13 callsubr
          5 33 6 hvcurveto
          18 3 8 2 rlineto
          161 22 110 89 183 vvcurveto
          382 -52 callsubr
          -398 vlineto
          -55 -27 callgsubr
          -61 -41 30 55 vhcurveto
          398 vlineto
          -106 callgsubr
          hintmask 11010000
          22 callsubr
          -186 112 -88 165 -21 vhcurveto
          -2 -9 -1 -10 -11 vvcurveto
          -72 41 -44 111 vhcurveto
          14 hlineto
          15 12 9 15 hvcurveto
          41 vlineto
          16 -12 9 -15 vhcurveto
          endchar
        </CharString>
        <CharString name="Uring">
          -6 callsubr
          39 8 callsubr
          hintmask 11000000
          425 -10 rmoveto
          -211 -154 84 217 hvcurveto
          382 vlineto
          -102 callgsubr
          vhcurveto
          209 hlineto
          15 12 -12 -15 hvcurveto
          -398 vlineto
          -55 41 -30 61 61 41 30 55 vhcurveto
          398 vlineto
          -102 callgsubr
          vhcurveto
          209 hlineto
          15 12 -12 -15 hvcurveto
          -382 vlineto
          -217 -154 -84 -211 vhcurveto
          hintmask 00110100
          -31 797 -40 callsubr
          hintmask 00111000
          -47 callgsubr
        </CharString>
        <CharString name="Utilde">
          -6 callsubr
          50 19 callgsubr
          hintmask 11000000
          425 -10 rmoveto
          -211 -154 84 217 hvcurveto
          382 vlineto
          -102 callgsubr
          vhcurveto
          209 hlineto
          15 12 -12 -15 hvcurveto
          -398 vlineto
          -55 41 -30 61 61 41 30 55 vhcurveto
          398 vlineto
          -102 callgsubr
          vhcurveto
          209 hlineto
          15 12 -12 -15 hvcurveto
          -382 vlineto
          -217 -154 -84 -211 vhcurveto
          hintmask 00100100
          62 740 -78 callgsubr
        </CharString>
        <CharString name="V">
          -79 callsubr
          hstem
          585 700 rmoveto
          -27 -14 -18 -15 -4 hvcurveto
          -115 -383 -115 383 rlineto
          13 -4 -14 20 -27 hhcurveto
          -211 hlineto
          -50 callsubr
          -2 0 -1 1 -4 hvcurveto
          232 -641 rlineto
          -11 4 13 -19 27 hhcurveto
          233 hlineto
          27 13 18 15 5 hvcurveto
          230 638 rlineto
          1 4 0 1 2 vvcurveto
          12 -10 -41 callsubr
          endchar
        </CharString>
        <CharString name="W">
          -79 callsubr
          hstem
          429 238 rmoveto
          92 -211 rlineto
          -8 3 14 -19 27 hhcurveto
          -3 callgsubr
          27 17 20 18 2 hvcurveto
          87 637 rlineto
          1 0 1 1 vvcurveto
          12 -10 -41 callsubr
          -172 hlineto
          -27 -17 -19 -23 -3 hvcurveto
          -32 -306 -58 159 rlineto
          10 -3 -14 19 -27 hhcurveto
          -68 hlineto
          -27 -14 -19 -10 -3 hvcurveto
          -58 -159 -32 306 rlineto
          23 -3 -17 19 -27 hhcurveto
          -172 hlineto
          -50 callsubr
          hvcurveto
          -1 0 -1 -1 vvcurveto
          87 -637 rlineto
          -18 2 17 -20 27 hhcurveto
          -3 callgsubr
          27 14 19 8 3 hvcurveto
          endchar
        </CharString>
        <CharString name="Wacute">
          22 callgsubr
          429 238 rmoveto
          92 -211 rlineto
          -8 3 14 -19 27 hhcurveto
          -3 callgsubr
          27 17 20 18 2 hvcurveto
          87 637 rlineto
          1 0 1 1 vvcurveto
          12 -10 -41 callsubr
          -172 hlineto
          -27 -17 -19 -23 -3 hvcurveto
          -32 -306 -58 159 rlineto
          10 -3 -14 19 -27 hhcurveto
          -68 hlineto
          -27 -14 -19 -10 -3 hvcurveto
          -58 -159 -32 306 rlineto
          23 -3 -17 19 -27 hhcurveto
          -172 hlineto
          -50 callsubr
          hvcurveto
          -1 0 -1 -1 vvcurveto
          87 -637 rlineto
          -18 2 17 -20 27 hhcurveto
          -3 callgsubr
          27 14 19 8 3 hvcurveto
          hintmask 00100000
          -4 733 -107 callgsubr
          endchar
        </CharString>
        <CharString name="Wcircumflex">
          -79 callsubr
          72 -39 callgsubr
          hstemhm
          hintmask 11000000
          429 238 rmoveto
          92 -211 rlineto
          -8 3 14 -19 27 hhcurveto
          -3 callgsubr
          27 17 20 18 2 hvcurveto
          87 637 rlineto
          1 0 1 1 vvcurveto
          12 -10 -41 callsubr
          -172 hlineto
          -27 -17 -19 -23 -3 hvcurveto
          -32 -306 -58 159 rlineto
          10 -3 -14 19 -27 hhcurveto
          -68 hlineto
          -27 -14 -19 -10 -3 hvcurveto
          -58 -159 -32 306 rlineto
          23 -3 -17 19 -27 hhcurveto
          -172 hlineto
          -50 callsubr
          hvcurveto
          -1 0 -1 -1 vvcurveto
          87 -637 rlineto
          -18 2 17 -20 27 hhcurveto
          -3 callgsubr
          27 14 19 8 3 hvcurveto
          hintmask 00110000
          90 733 rmoveto
          -107 callsubr
        </CharString>
        <CharString name="Wdieresis">
          -8 callgsubr
          221 -30 callgsubr
          hintmask 11000000
          429 238 rmoveto
          92 -211 rlineto
          -8 3 14 -19 27 hhcurveto
          -3 callgsubr
          27 17 20 18 2 hvcurveto
          87 637 rlineto
          1 0 1 1 vvcurveto
          12 -10 -41 callsubr
          -172 hlineto
          -27 -17 -19 -23 -3 hvcurveto
          -32 -306 -58 159 rlineto
          10 -3 -14 19 -27 hhcurveto
          -68 hlineto
          -27 -14 -19 -10 -3 hvcurveto
          -58 -159 -32 306 rlineto
          23 -3 -17 19 -27 hhcurveto
          -172 hlineto
          -50 callsubr
          hvcurveto
          -1 0 -1 -1 vvcurveto
          87 -637 rlineto
          -18 2 17 -20 27 hhcurveto
          -3 callgsubr
          27 14 19 8 3 hvcurveto
          hintmask 00111000
          158 823 -103 callsubr
          endchar
        </CharString>
        <CharString name="Wgrave">
          22 callgsubr
          429 238 rmoveto
          92 -211 rlineto
          -8 3 14 -19 27 hhcurveto
          -3 callgsubr
          27 17 20 18 2 hvcurveto
          87 637 rlineto
          1 0 1 1 vvcurveto
          12 -10 -41 callsubr
          -172 hlineto
          -27 -17 -19 -23 -3 hvcurveto
          -32 -306 -58 159 rlineto
          10 -3 -14 19 -27 hhcurveto
          -68 hlineto
          -27 -14 -19 -10 -3 hvcurveto
          -58 -159 -32 306 rlineto
          23 -3 -17 19 -27 hhcurveto
          -172 hlineto
          -50 callsubr
          hvcurveto
          -1 0 -1 -1 vvcurveto
          87 -637 rlineto
          -18 2 17 -20 27 hhcurveto
          -3 callgsubr
          27 14 19 8 3 hvcurveto
          114 804 rmoveto
          -14 17 -8 1 -15 1 rrcurveto
          -158 hlineto
          -12 -7 -8 -12 -5 2 -4 3 -3 hvcurveto
          95 -80 rlineto
          -6 8 10 -1 10 4 4 0 4 hhcurveto
          121 hlineto
          10 6 6 10 hvcurveto
          hintmask 00100000
          -42 callsubr
        </CharString>
        <CharString name="X">
          1 callsubr
          358 rmoveto
          209 309 rlineto
          4 5 -1 3 3 vvcurveto
          12 -10 -41 callsubr
          -215 hlineto
          -27 -11 -19 -4 -3 hvcurveto
          -84 -130 -78 128 rlineto
          8 -5 -11 17 -26 hhcurveto
          -216 hlineto
          -50 callsubr
          -5 0 -2 3 -4 hvcurveto
          197 -296 -221 -338 rlineto
          -4 -5 1 -4 -2 -65 callgsubr
          -19 callgsubr
          25 12 17 6 4 hvcurveto
          95 149 97 -149 rlineto
          -5 3 12 -18 26 hhcurveto
          215 -82 callsubr
          2 1 4 -4 5 hvcurveto
          endchar
        </CharString>
        <CharString name="Y">
          1 callsubr
          700 -99 callsubr
          endchar
        </CharString>
        <CharString name="Yacute">
          22 callgsubr
          582 700 -99 callsubr
          hintmask 00100000
          -460 60 -107 callgsubr
          endchar
        </CharString>
        <CharString name="Ycircumflex">
          -79 callsubr
          72 -39 callgsubr
          hstemhm
          hintmask 11000000
          582 700 -99 callsubr
          hintmask 00110000
          -367 60 rmoveto
          -107 callsubr
        </CharString>
        <CharString name="Ydieresis">
          -79 callsubr
          56 -33 callgsubr
          hintmask 00111000
          492 855 -103 callsubr
          hintmask 11000000
          225 -155 -99 callsubr
          endchar
        </CharString>
        <CharString name="Ygrave">
          22 callgsubr
          582 700 -99 callsubr
          -342 131 rmoveto
          -14 17 -8 1 -15 1 rrcurveto
          -158 hlineto
          -12 -7 -8 -12 -5 2 -4 3 -3 hvcurveto
          95 -80 rlineto
          -6 8 10 -1 10 4 4 0 4 hhcurveto
          121 hlineto
          10 6 6 10 hvcurveto
          hintmask 00100000
          -42 callsubr
        </CharString>
        <CharString name="Z">
          -74 callgsubr
          hstem
          -97 callsubr
          endchar
        </CharString>
        <CharString name="Zacute">
          0 callgsubr
          hintmask 11000000
          -97 callsubr
          hintmask 00100000
          -425 555 -107 callgsubr
          endchar
        </CharString>
        <CharString name="Zcaron">
          -74 callgsubr
          -18 callsubr
          -97 callsubr
          hintmask 00110000
          -317 616 -102 callsubr
        </CharString>
        <CharString name="Zdotaccent">
          0 callgsubr
          25 callsubr
          hintmask 11000000
          -97 callsubr
          hintmask 00110000
          -390 645 -88 callgsubr
        </CharString>
        <CharString name="a">
          -66 callsubr
          hstem
          550 104 rmoveto
          25 -70 rlineto
          -16 6 12 -18 27 hhcurveto
          189 hlineto
          12 10 -20 callsubr
          -1 3 hvcurveto
          -218 639 rlineto
          15 -4 -14 18 -27 hhcurveto
          -278 hlineto
          -27 -14 -18 -15 -4 hvcurveto
          -218 -639 rlineto
          -1 -3 0 -2 -1 -65 callgsubr
          189 hlineto
          27 12 18 16 6 hvcurveto
          25 70 rlineto
          193 195 rmoveto
          -142 hlineto
          71 208 rlineto
          endchar
        </CharString>
        <CharString name="aacute">
          20 callsubr
          hintmask 11100000
          306 104 rmoveto
          -25 -70 rlineto
          -16 -6 -12 -18 -27 hhcurveto
          -189 hlineto
          -12 -10 -20 callsubr
          1 3 hvcurveto
          218 639 rlineto
          15 4 14 18 27 hhcurveto
          278 hlineto
          27 14 -18 -15 4 hvcurveto
          218 -639 rlineto
          1 -3 0 -2 -1 vvcurveto
          -50 callsubr
          vhcurveto
          -189 hlineto
          -27 -12 18 16 -6 hvcurveto
          -25 70 rlineto
          -122 403 rmoveto
          -71 -208 rlineto
          142 hlineto
          hintmask 00010000
          -150 461 -107 callgsubr
          endchar
        </CharString>
        <CharString name="abreve">
          -66 callsubr
          50 -10 callgsubr
          hintmask 11100000
          550 104 rmoveto
          25 -70 rlineto
          -16 6 12 -18 27 hhcurveto
          189 hlineto
          12 10 -20 callsubr
          -1 3 hvcurveto
          -218 639 rlineto
          15 -4 -14 18 -27 hhcurveto
          -278 hlineto
          -27 -14 -18 -15 -4 hvcurveto
          -218 -639 rlineto
          -1 -3 0 -2 -1 -65 callgsubr
          189 hlineto
          27 12 18 16 6 hvcurveto
          25 70 rlineto
          193 195 rmoveto
          -142 hlineto
          71 208 rlineto
          41 335 -96 callsubr
          hintmask 00010000
          -80 callgsubr
          hintmask 00001000
          -46 callgsubr
        </CharString>
        <CharString name="acircumflex">
          -66 callsubr
          72 -39 callgsubr
          hstemhm
          hintmask 11100000
          306 104 rmoveto
          -25 -70 rlineto
          -16 -6 -12 -18 -27 hhcurveto
          -189 hlineto
          -12 -10 -20 callsubr
          1 3 hvcurveto
          218 639 rlineto
          15 4 14 18 27 hhcurveto
          278 hlineto
          27 14 -18 -15 4 hvcurveto
          218 -639 rlineto
          1 -3 0 -2 -1 vvcurveto
          -50 callsubr
          vhcurveto
          -189 hlineto
          -27 -12 18 16 -6 hvcurveto
          -25 70 rlineto
          -122 403 rmoveto
          -71 -208 rlineto
          142 hlineto
          hintmask 00011000
          -72 461 rmoveto
          -107 callsubr
        </CharString>
        <CharString name="adieresis">
          20 callsubr
          222 -30 callgsubr
          hintmask 11100000
          306 104 rmoveto
          -25 -70 rlineto
          -16 -6 -12 -18 -27 hhcurveto
          -189 hlineto
          -12 -10 -20 callsubr
          1 3 hvcurveto
          218 639 rlineto
          15 4 14 18 27 hhcurveto
          278 hlineto
          27 14 -18 -15 4 hvcurveto
          218 -639 rlineto
          1 -3 0 -2 -1 vvcurveto
          -50 callsubr
          vhcurveto
          -189 hlineto
          -27 -12 18 16 -6 hvcurveto
          -25 70 rlineto
          -122 403 rmoveto
          -71 -208 rlineto
          142 hlineto
          hintmask 00011100
          -3 551 -103 callsubr
          endchar
        </CharString>
        <CharString name="ae">
          0 195 -91 195 -41 184 63 195 hstemhm
          422 250 hintmask 01011000
          1 callgsubr
          hintmask 10111000
          13 callgsubr
          hlineto
          -105 callsubr
          -38 callgsubr
          -106 callgsubr
          -142 63 108 hlineto
          -105 callsubr
          130 vlineto
          -106 callgsubr
          -108 63 132 hlineto
          -105 callsubr
          -38 callgsubr
          -106 callgsubr
          -521 hlineto
          -27 -13 -18 -15 -5 hvcurveto
          -228 -639 rlineto
          -1 -3 0 -2 -1 -65 callgsubr
          179 hlineto
          27 12 18 16 6 hvcurveto
          hintmask 01011000
          -20 callgsubr
          endchar
        </CharString>
        <CharString name="aeacute">
          0 195 -91 195 -41 184 63 195 31 119 hstemhm
          422 250 hintmask 01010100
          1 callgsubr
          hintmask 10110100
          13 callgsubr
          hlineto
          -105 callsubr
          -38 callgsubr
          -106 callgsubr
          -142 63 108 hlineto
          -105 callsubr
          130 vlineto
          -106 callgsubr
          -108 63 132 hlineto
          -105 callsubr
          -38 callgsubr
          -106 callgsubr
          -521 hlineto
          -27 -13 -18 -15 -5 hvcurveto
          -228 -639 rlineto
          -1 -3 0 -2 -1 -65 callgsubr
          179 hlineto
          27 12 18 16 6 hvcurveto
          hintmask 01010100
          -20 callgsubr
          hintmask 00001000
          -21 253 -107 callgsubr
          endchar
        </CharString>
        <CharString name="afii10017">
          -66 callsubr
          hstem
          550 104 rmoveto
          25 -70 rlineto
          -16 6 12 -18 27 hhcurveto
          189 hlineto
          12 10 -20 callsubr
          -1 3 hvcurveto
          -218 639 rlineto
          15 -4 -14 18 -27 hhcurveto
          -278 hlineto
          -27 -14 -18 -15 -4 hvcurveto
          -218 -639 rlineto
          -1 -3 0 -2 -1 -65 callgsubr
          189 hlineto
          27 12 18 16 6 hvcurveto
          25 70 rlineto
          193 195 rmoveto
          -142 hlineto
          71 208 rlineto
          endchar
        </CharString>
        <CharString name="afii10018">
          -55 callgsubr
        </CharString>
        <CharString name="afii10019">
          -91 callgsubr
        </CharString>
        <CharString name="afii10020">
          -29 callgsubr
        </CharString>
        <CharString name="afii10021">
          -103 -21 124 215 280 205 hstemhm
          39 215 -103 240 102 240 -138 216 hintmask 11101100
          178 -85 callgsubr
          -381 vlineto
          -51 -41 -26 -28 vhcurveto
          -16 hlineto
          hintmask 11110010
          -15 -12 -12 -15 hvcurveto
          -285 16 callgsubr
          97 341 -97 vlineto
          -104 callgsubr
          162 hlineto
          -105 callsubr
          285 vlineto
          -106 callgsubr
          hintmask 11101100
          -51 458 hlineto
          -106 callgsubr
          -213 -205 rmoveto
          -280 -111 vlineto
          6 13 3 45 18 vvcurveto
          204 vlineto
          endchar
        </CharString>
        <CharString name="afii10022">
          -81 callsubr
          hstem
          cntrmask 11100000
          350 195 -106 callsubr
          endchar
        </CharString>
        <CharString name="afii10023">
          -32 callsubr
          226 -30 callgsubr
          hintmask 11100000
          350 195 -106 callsubr
          hintmask 00011100
          -249 655 -103 callsubr
          endchar
        </CharString>
        <CharString name="afii10024">
          -81 callgsubr
        </CharString>
        <CharString name="afii10025">
          -76 callgsubr
        </CharString>
        <CharString name="afii10026">
          21 17 callsubr
          106 -34 callsubr
          161 hlineto
          22 11 12 9 7 hvcurveto
          218 278 rlineto
          -272 vlineto
          -2 callgsubr
          -162 hlineto
          -25 -11 -16 -4 -3 hvcurveto
          -218 -301 rlineto
          294 vlineto
          -106 callgsubr
          endchar
        </CharString>
        <CharString name="afii10027">
          -79 callsubr
          50 87 -87 125 -26 callgsubr
          hintmask 00100000
          472 842 -96 callsubr
          hintmask 00010000
          -80 callgsubr
          -12 -4 -7 -6 -3 hvcurveto
          -366 -142 -60 callsubr
          161 hlineto
          22 11 12 9 7 hvcurveto
          218 278 rlineto
          -272 vlineto
          -2 callgsubr
          -162 hlineto
          -25 -11 -16 -4 -3 hvcurveto
          -218 -301 rlineto
          294 vlineto
          hintmask 11001100
          -106 callgsubr
          endchar
        </CharString>
        <CharString name="afii10028">
          -79 callsubr
          hstem
          568 -98 callsubr
          endchar
        </CharString>
        <CharString name="afii10029">
          -58 callgsubr
        </CharString>
        <CharString name="afii10030">
          -79 callsubr
          hstem
          41 235 298 235 vstem
          425 433 rmoveto
          -131 240 rlineto
          7 -4 -12 20 -27 hhcurveto
          -183 hlineto
          -100 callgsubr
          181 hlineto
          -105 callsubr
          310 vlineto
          73 -144 rlineto
          -5 2 13 -20 27 hhcurveto
          68 hlineto
          27 13 20 5 2 hvcurveto
          73 144 rlineto
          -310 vlineto
          -104 callgsubr
          181 hlineto
          -105 callsubr
          646 vlineto
          -106 callgsubr
          -183 hlineto
          -27 -12 -20 -7 -4 hvcurveto
          endchar
        </CharString>
        <CharString name="afii10031">
          -16 callsubr
          232 21 callgsubr
          -205 -200 205 vlineto
          -61 callsubr
          -16 12 -11 15 vhcurveto
          206 hlineto
          -105 callsubr
          213 200 -213 vlineto
          -83 callgsubr
          endchar
        </CharString>
        <CharString name="afii10032">
          -79 callgsubr
          hstem
          797 411 rmoveto
          209 -166 90 -206 -206 -166 -89 -212 vhcurveto
          -118 vlineto
          -217 161 -15 callsubr
          161 3 callsubr
          -474 141 rmoveto
          55 41 30 61 25 callgsubr
          -7 callgsubr
          vlineto
          -56 -27 callgsubr
          -61 -41 30 55 vhcurveto
          endchar
        </CharString>
        <CharString name="afii10033">
          -44 callsubr
        </CharString>
        <CharString name="afii10034">
          21 -21 219 185 110 186 hstem
          153 -34 callsubr
          -3 callsubr
          -102 callgsubr
          hvcurveto
          192 132 vlineto
          240 68 104 135 135 -114 107 -194 hvcurveto
          -131 -186 rmoveto
          127 hlineto
          33 19 -24 -33 -33 -21 -20 -31 hvcurveto
          -127 hlineto
          endchar
        </CharString>
        <CharString name="afii10035">
          -79 callgsubr
          hstem
          333 430 rmoveto
          55 41 30 61 61 19 -25 -31 16 vhcurveto
          -16 8 10 -10 17 hhcurveto
          216 -39 callsubr
          -115 141 -254 7 callgsubr
          254 -14 callgsubr
          114 -89 callsubr
          endchar
        </CharString>
        <CharString name="afii10036">
          -43 callgsubr
          hstem
          -93 callsubr
          endchar
        </CharString>
        <CharString name="afii10037">
          0 214 486 -20 hstem
          -90 callsubr
          endchar
        </CharString>
        <CharString name="afii10038">
          11 -21 720 -20 hstem
          38 215 72 200 72 220 vstem
          817 354 rmoveto
          157 -121 93 -166 26 vhcurveto
          53 vlineto
          -106 callgsubr
          -156 hlineto
          -15 -12 -12 -15 hvcurveto
          -53 vlineto
          -160 -27 -122 -91 -158 vvcurveto
          -155 115 -102 167 -29 vhcurveto
          -51 vlineto
          -104 callgsubr
          156 hlineto
          -105 callsubr
          50 vlineto
          168 27 119 96 164 vvcurveto
          -220 -1 rmoveto
          -51 -29 -30 -43 -15 vhcurveto
          184 vlineto
          44 -15 28 -27 -46 vvcurveto
          -344 1 rmoveto
          46 28 27 44 14 vhcurveto
          -184 vlineto
          -44 15 -28 30 52 vvcurveto
          endchar
        </CharString>
        <CharString name="afii10039">
          1 callsubr
          358 rmoveto
          209 309 rlineto
          4 5 -1 3 3 vvcurveto
          12 -10 -41 callsubr
          -215 hlineto
          -27 -11 -19 -4 -3 hvcurveto
          -84 -130 -78 128 rlineto
          8 -5 -11 17 -26 hhcurveto
          -216 hlineto
          -50 callsubr
          -5 0 -2 3 -4 hvcurveto
          197 -296 -221 -338 rlineto
          -4 -5 1 -4 -2 -65 callgsubr
          -19 callgsubr
          25 12 17 6 4 hvcurveto
          95 149 97 -149 rlineto
          -5 3 12 -18 26 hhcurveto
          215 -82 callsubr
          2 1 4 -4 5 hvcurveto
          endchar
        </CharString>
        <CharString name="afii10040">
          -60 callgsubr
        </CharString>
        <CharString name="afii10041">
          21 -21 206 228 266 -20 hstem
          275 673 rmoveto
          -106 callgsubr
          -205 hlineto
          -15 -12 -12 -15 hvcurveto
          -1 -147 rlineto
          -219 -1 149 -101 196 hhcurveto
          117 -179 hlineto
          -83 callgsubr
          -206 hlineto
          -15 -12 -12 -15 hvcurveto
          -239 -114 vlineto
          -44 -43 22 66 hvcurveto
          endchar
        </CharString>
        <CharString name="afii10042">
          -56 callsubr
        </CharString>
        <CharString name="afii10043">
          -68 callsubr
        </CharString>
        <CharString name="afii10044">
          -57 callsubr
        </CharString>
        <CharString name="afii10045">
          -67 callsubr
        </CharString>
        <CharString name="afii10046">
          -51 callgsubr
        </CharString>
        <CharString name="afii10047">
          -67 callgsubr
        </CharString>
        <CharString name="afii10048">
          -69 callsubr
        </CharString>
        <CharString name="afii10049">
          21 -31 callsubr
          hstem
          28 31 rmoveto
          -1 -2 -1 -4 -3 -65 callgsubr
          227 hlineto
          19 16 10 15 7 hvcurveto
          88 198 rlineto
          84 -196 hlineto
          -104 callgsubr
          -19 callgsubr
          -105 callsubr
          646 vlineto
          -106 callgsubr
          -389 hlineto
          -182 -115 -92 -150 -91 36 -66 69 -40 hvcurveto
          338 147 rmoveto
          -125 hlineto
          -31 -15 24 27 26 13 29 33 hvcurveto
          125 hlineto
          endchar
        </CharString>
        <CharString name="afii10050">
          -46 callsubr
        </CharString>
        <CharString name="afii10051">
          -75 callsubr
        </CharString>
        <CharString name="afii10052">
          -43 callgsubr
          31 119 hstemhm
          hintmask 11000000
          453 27 rmoveto
          -15 -12 -12 -15 vhcurveto
          -206 hlineto
          -15 -12 12 15 hvcurveto
          646 vlineto
          -102 callgsubr
          vhcurveto
          543 hlineto
          15 12 -12 -15 hvcurveto
          -161 vlineto
          -15 -12 -12 -15 vhcurveto
          -311 hlineto
          hintmask 00100000
          -71 275 -107 callgsubr
          endchar
        </CharString>
        <CharString name="afii10053">
          4 callgsubr
          76 177 77 195 hstem
          497 261 rmoveto
          -105 callsubr
          123 vlineto
          -106 callgsubr
          -164 hlineto
          50 4 40 27 58 hhcurveto
          61 36 -25 -31 19 hvcurveto
          -16 10 8 -10 17 hhcurveto
          196 -39 callsubr
          -135 141 -234 7 callgsubr
          234 135 141 114 12 -10 -41 callsubr
          -196 hlineto
          -17 -8 -10 -16 -10 hvcurveto
          -31 -19 -36 -25 -61 hhcurveto
          -58 -39 27 49 -5 hvcurveto
          endchar
        </CharString>
        <CharString name="afii10054">
          -10 -69 callgsubr
          -103 callgsubr
          endchar
        </CharString>
        <CharString name="afii10055">
          -74 callgsubr
          hstem
          -105 callgsubr
          endchar
        </CharString>
        <CharString name="afii10056">
          0 callgsubr
          218 162 89 162 -104 callsubr
          hintmask 00111000
          -69 355 -103 callsubr
          endchar
        </CharString>
        <CharString name="afii10057">
          4 callgsubr
          310 205 hstem
          -92 callsubr
          endchar
        </CharString>
        <CharString name="afii10058">
          -71 callgsubr
        </CharString>
        <CharString name="afii10059">
          -72 callsubr
        </CharString>
        <CharString name="afii10060">
          -63 callsubr
        </CharString>
        <CharString name="afii10061">
          22 callgsubr
          558 -98 callsubr
          hintmask 00100000
          -477 725 -107 callgsubr
          endchar
        </CharString>
        <CharString name="afii10062">
          0 214 486 -20 50 -10 callgsubr
          hintmask 11000000
          -90 callsubr
          413 842 -96 callsubr
          hintmask 00100000
          -80 callgsubr
          hintmask 00010000
          -46 callgsubr
        </CharString>
        <CharString name="afii10065">
          -66 callsubr
          hstem
          550 104 rmoveto
          25 -70 rlineto
          -16 6 12 -18 27 hhcurveto
          189 hlineto
          12 10 -20 callsubr
          -1 3 hvcurveto
          -218 639 rlineto
          15 -4 -14 18 -27 hhcurveto
          -278 hlineto
          -27 -14 -18 -15 -4 hvcurveto
          -218 -639 rlineto
          -1 -3 0 -2 -1 -65 callgsubr
          189 hlineto
          27 12 18 16 6 hvcurveto
          25 70 rlineto
          193 195 rmoveto
          -142 hlineto
          71 208 rlineto
          endchar
        </CharString>
        <CharString name="afii10066">
          -55 callgsubr
        </CharString>
        <CharString name="afii10067">
          -91 callgsubr
        </CharString>
        <CharString name="afii10068">
          -29 callgsubr
        </CharString>
        <CharString name="afii10069">
          -103 -21 124 215 280 205 hstemhm
          39 215 -103 240 102 240 -138 216 hintmask 11101100
          178 -85 callgsubr
          -381 vlineto
          -51 -41 -26 -28 vhcurveto
          -16 hlineto
          hintmask 11110010
          -15 -12 -12 -15 hvcurveto
          -285 16 callgsubr
          97 341 -97 vlineto
          -104 callgsubr
          162 hlineto
          -105 callsubr
          285 vlineto
          -106 callgsubr
          hintmask 11101100
          -51 458 hlineto
          -106 callgsubr
          -213 -205 rmoveto
          -280 -111 vlineto
          6 13 3 45 18 vvcurveto
          204 vlineto
          endchar
        </CharString>
        <CharString name="afii10070">
          -81 callsubr
          hstem
          cntrmask 11100000
          350 195 -106 callsubr
          endchar
        </CharString>
        <CharString name="afii10071">
          -32 callsubr
          226 -30 callgsubr
          hintmask 11100000
          350 195 -106 callsubr
          hintmask 00011100
          -249 655 -103 callsubr
          endchar
        </CharString>
        <CharString name="afii10072">
          -81 callgsubr
        </CharString>
        <CharString name="afii10073">
          -76 callgsubr
        </CharString>
        <CharString name="afii10074">
          21 17 callsubr
          106 -34 callsubr
          161 hlineto
          22 11 12 9 7 hvcurveto
          218 278 rlineto
          -272 vlineto
          -2 callgsubr
          -162 hlineto
          -25 -11 -16 -4 -3 hvcurveto
          -218 -301 rlineto
          294 vlineto
          -106 callgsubr
          endchar
        </CharString>
        <CharString name="afii10075">
          -79 callsubr
          50 87 -87 125 -26 callgsubr
          hintmask 00100000
          472 842 -96 callsubr
          hintmask 00010000
          -80 callgsubr
          -12 -4 -7 -6 -3 hvcurveto
          -366 -142 -60 callsubr
          161 hlineto
          22 11 12 9 7 hvcurveto
          218 278 rlineto
          -272 vlineto
          -2 callgsubr
          -162 hlineto
          -25 -11 -16 -4 -3 hvcurveto
          -218 -301 rlineto
          294 vlineto
          hintmask 11001100
          -106 callgsubr
          endchar
        </CharString>
        <CharString name="afii10076">
          -79 callsubr
          hstem
          568 -98 callsubr
          endchar
        </CharString>
        <CharString name="afii10077">
          -58 callgsubr
        </CharString>
        <CharString name="afii10078">
          -79 callsubr
          hstem
          41 235 298 235 vstem
          425 433 rmoveto
          -131 240 rlineto
          7 -4 -12 20 -27 hhcurveto
          -183 hlineto
          -100 callgsubr
          181 hlineto
          -105 callsubr
          310 vlineto
          73 -144 rlineto
          -5 2 13 -20 27 hhcurveto
          68 hlineto
          27 13 20 5 2 hvcurveto
          73 144 rlineto
          -310 vlineto
          -104 callgsubr
          181 hlineto
          -105 callsubr
          646 vlineto
          -106 callgsubr
          -183 hlineto
          -27 -12 -20 -7 -4 hvcurveto
          endchar
        </CharString>
        <CharString name="afii10079">
          -16 callsubr
          232 21 callgsubr
          -205 -200 205 vlineto
          -61 callsubr
          -16 12 -11 15 vhcurveto
          206 hlineto
          -105 callsubr
          213 200 -213 vlineto
          -83 callgsubr
          endchar
        </CharString>
        <CharString name="afii10080">
          -79 callgsubr
          hstem
          797 411 rmoveto
          209 -166 90 -206 -206 -166 -89 -212 vhcurveto
          -118 vlineto
          -217 161 -15 callsubr
          161 3 callsubr
          -474 141 rmoveto
          55 41 30 61 25 callgsubr
          -7 callgsubr
          vlineto
          -56 -27 callgsubr
          -61 -41 30 55 vhcurveto
          endchar
        </CharString>
        <CharString name="afii10081">
          -44 callsubr
        </CharString>
        <CharString name="afii10082">
          21 -21 219 185 110 186 hstem
          153 -34 callsubr
          -3 callsubr
          -102 callgsubr
          hvcurveto
          192 132 vlineto
          240 68 104 135 135 -114 107 -194 hvcurveto
          -131 -186 rmoveto
          127 hlineto
          33 19 -24 -33 -33 -21 -20 -31 hvcurveto
          -127 hlineto
          endchar
        </CharString>
        <CharString name="afii10083">
          -79 callgsubr
          hstem
          333 430 rmoveto
          55 41 30 61 61 19 -25 -31 16 vhcurveto
          -16 8 10 -10 17 hhcurveto
          216 -39 callsubr
          -115 141 -254 7 callgsubr
          254 -14 callgsubr
          114 -89 callsubr
          endchar
        </CharString>
        <CharString name="afii10084">
          -43 callgsubr
          hstem
          -93 callsubr
          endchar
        </CharString>
        <CharString name="afii10085">
          0 214 486 -20 hstem
          -90 callsubr
          endchar
        </CharString>
        <CharString name="afii10086">
          11 -21 720 -20 hstem
          38 215 72 200 72 220 vstem
          817 354 rmoveto
          157 -121 93 -166 26 vhcurveto
          53 vlineto
          -106 callgsubr
          -156 hlineto
          -15 -12 -12 -15 hvcurveto
          -53 vlineto
          -160 -27 -122 -91 -158 vvcurveto
          -155 115 -102 167 -29 vhcurveto
          -51 vlineto
          -104 callgsubr
          156 hlineto
          -105 callsubr
          50 vlineto
          168 27 119 96 164 vvcurveto
          -220 -1 rmoveto
          -51 -29 -30 -43 -15 vhcurveto
          184 vlineto
          44 -15 28 -27 -46 vvcurveto
          -344 1 rmoveto
          46 28 27 44 14 vhcurveto
          -184 vlineto
          -44 15 -28 30 52 vvcurveto
          endchar
        </CharString>
        <CharString name="afii10087">
          1 callsubr
          358 rmoveto
          209 309 rlineto
          4 5 -1 3 3 vvcurveto
          12 -10 -41 callsubr
          -215 hlineto
          -27 -11 -19 -4 -3 hvcurveto
          -84 -130 -78 128 rlineto
          8 -5 -11 17 -26 hhcurveto
          -216 hlineto
          -50 callsubr
          -5 0 -2 3 -4 hvcurveto
          197 -296 -221 -338 rlineto
          -4 -5 1 -4 -2 -65 callgsubr
          -19 callgsubr
          25 12 17 6 4 hvcurveto
          95 149 97 -149 rlineto
          -5 3 12 -18 26 hhcurveto
          215 -82 callsubr
          2 1 4 -4 5 hvcurveto
          endchar
        </CharString>
        <CharString name="afii10088">
          -60 callgsubr
        </CharString>
        <CharString name="afii10089">
          21 -21 206 228 266 -20 hstem
          275 673 rmoveto
          -106 callgsubr
          -205 hlineto
          -15 -12 -12 -15 hvcurveto
          -1 -147 rlineto
          -219 -1 149 -101 196 hhcurveto
          117 -179 hlineto
          -83 callgsubr
          -206 hlineto
          -15 -12 -12 -15 hvcurveto
          -239 -114 vlineto
          -44 -43 22 66 hvcurveto
          endchar
        </CharString>
        <CharString name="afii10090">
          -56 callsubr
        </CharString>
        <CharString name="afii10091">
          -68 callsubr
        </CharString>
        <CharString name="afii10092">
          -57 callsubr
        </CharString>
        <CharString name="afii10093">
          -67 callsubr
        </CharString>
        <CharString name="afii10094">
          -51 callgsubr
        </CharString>
        <CharString name="afii10095">
          -67 callgsubr
        </CharString>
        <CharString name="afii10096">
          -69 callsubr
        </CharString>
        <CharString name="afii10097">
          21 -31 callsubr
          hstem
          28 31 rmoveto
          -1 -2 -1 -4 -3 -65 callgsubr
          227 hlineto
          19 16 10 15 7 hvcurveto
          88 198 rlineto
          84 -196 hlineto
          -104 callgsubr
          -19 callgsubr
          -105 callsubr
          646 vlineto
          -106 callgsubr
          -389 hlineto
          -182 -115 -92 -150 -91 36 -66 69 -40 hvcurveto
          338 147 rmoveto
          -125 hlineto
          -31 -15 24 27 26 13 29 33 hvcurveto
          125 hlineto
          endchar
        </CharString>
        <CharString name="afii10098">
          -46 callsubr
        </CharString>
        <CharString name="afii10099">
          -75 callsubr
        </CharString>
        <CharString name="afii10100">
          -43 callgsubr
          31 119 hstemhm
          hintmask 11000000
          453 27 rmoveto
          -15 -12 -12 -15 vhcurveto
          -206 hlineto
          -15 -12 12 15 hvcurveto
          646 vlineto
          -102 callgsubr
          vhcurveto
          543 hlineto
          15 12 -12 -15 hvcurveto
          -161 vlineto
          -15 -12 -12 -15 vhcurveto
          -311 hlineto
          hintmask 00100000
          -71 275 -107 callgsubr
          endchar
        </CharString>
        <CharString name="afii10101">
          4 callgsubr
          76 177 77 195 hstem
          497 261 rmoveto
          -105 callsubr
          123 vlineto
          -106 callgsubr
          -164 hlineto
          50 4 40 27 58 hhcurveto
          61 36 -25 -31 19 hvcurveto
          -16 10 8 -10 17 hhcurveto
          196 -39 callsubr
          -135 141 -234 7 callgsubr
          234 135 141 114 12 -10 -41 callsubr
          -196 hlineto
          -17 -8 -10 -16 -10 hvcurveto
          -31 -19 -36 -25 -61 hhcurveto
          -58 -39 27 49 -5 hvcurveto
          endchar
        </CharString>
        <CharString name="afii10102">
          -10 -69 callgsubr
          -103 callgsubr
          endchar
        </CharString>
        <CharString name="afii10103">
          -74 callgsubr
          hstem
          -105 callgsubr
          endchar
        </CharString>
        <CharString name="afii10104">
          0 callgsubr
          218 162 89 162 -104 callsubr
          hintmask 00111000
          -69 355 -103 callsubr
          endchar
        </CharString>
        <CharString name="afii10105">
          4 callgsubr
          310 205 hstem
          -92 callsubr
          endchar
        </CharString>
        <CharString name="afii10106">
          -71 callgsubr
        </CharString>
        <CharString name="afii10107">
          -72 callsubr
        </CharString>
        <CharString name="afii10108">
          -63 callsubr
        </CharString>
        <CharString name="afii10109">
          22 callgsubr
          558 -98 callsubr
          hintmask 00100000
          -477 725 -107 callgsubr
          endchar
        </CharString>
        <CharString name="afii10110">
          0 214 486 -20 50 -10 callgsubr
          hintmask 11000000
          -90 callsubr
          413 842 -96 callsubr
          hintmask 00100000
          -80 callgsubr
          hintmask 00010000
          -46 callgsubr
        </CharString>
        <CharString name="afii10145">
          -103 -21 145 -64 callsubr
          hstemhm
          105 240 -28 215 -27 235 hintmask 11110100
          713 hmoveto
          -105 callsubr
          646 vlineto
          -106 callgsubr
          hintmask 11101000
          -181 hlineto
          hintmask 11110100
          -15 -12 -12 -15 hvcurveto
          -458 -160 458 vlineto
          -106 callgsubr
          -186 hlineto
          -15 -12 -11 -16 hvcurveto
          -646 vlineto
          -104 callgsubr
          hintmask 11101000
          185 -97 hlineto
          -104 callgsubr
          hintmask 11110100
          161 hlineto
          hintmask 11101000
          -105 callsubr
          97 vlineto
          endchar
        </CharString>
        <CharString name="afii10193">
          -103 -21 145 -64 callsubr
          hstemhm
          105 240 -28 215 -27 235 hintmask 11110100
          713 hmoveto
          -105 callsubr
          646 vlineto
          -106 callgsubr
          hintmask 11101000
          -181 hlineto
          hintmask 11110100
          -15 -12 -12 -15 hvcurveto
          -458 -160 458 vlineto
          -106 callgsubr
          -186 hlineto
          -15 -12 -11 -16 hvcurveto
          -646 vlineto
          -104 callgsubr
          hintmask 11101000
          185 -97 hlineto
          -104 callgsubr
          hintmask 11110100
          161 hlineto
          hintmask 11101000
          -105 callsubr
          97 vlineto
          endchar
        </CharString>
        <CharString name="afii61352">
          21 -21 103 132 -105 105 161 104 200 -20 hstemhm
          0 205 100 205 27 134 46 133 hintmask 1101111110000000
          332 -85 callgsubr
          -243 vlineto
          -109 247 rlineto
          8 -3 -11 15 -27 hhcurveto
          -128 hlineto
          -100 callgsubr
          151 hlineto
          -105 callsubr
          221 vlineto
          109 -225 rlineto
          -7 3 11 -16 27 hhcurveto
          128 hlineto
          -105 callsubr
          646 vlineto
          -106 callgsubr
          340 -597 rmoveto
          15 12 -12 -15 hvcurveto
          -49 vlineto
          -15 -12 -12 -15 vhcurveto
          -259 hlineto
          -15 -12 12 15 hvcurveto
          49 vlineto
          -102 callgsubr
          vhcurveto
          107 260 rmoveto
          17 4 16 19 19 4 -15 -18 vhcurveto
          -94 vlineto
          -19 -5 -15 -18 -18 -5 15 19 vhcurveto
          179 93 rmoveto
          94 -59 44 -97 -97 -60 -43 -96 vhcurveto
          -92 vlineto
          hintmask 1011111110000000
          -96 55 -43 102 102 54 44 94 vhcurveto
          endchar
        </CharString>
        <CharString name="agrave">
          20 callsubr
          hintmask 11100000
          550 104 rmoveto
          25 -70 rlineto
          -16 6 12 -18 27 hhcurveto
          189 hlineto
          12 10 -20 callsubr
          -1 3 hvcurveto
          -218 639 rlineto
          15 -4 -14 18 -27 hhcurveto
          -278 hlineto
          -27 -14 -18 -15 -4 hvcurveto
          -218 -639 rlineto
          -1 -3 0 -2 -1 -65 callgsubr
          189 hlineto
          27 12 18 16 6 hvcurveto
          25 70 rlineto
          193 195 rmoveto
          -142 hlineto
          71 208 rlineto
          17 324 rmoveto
          -14 17 -8 1 -15 1 rrcurveto
          -158 hlineto
          -12 -7 -8 -12 -5 2 -4 3 -3 hvcurveto
          95 -80 rlineto
          -6 8 10 -1 10 4 4 0 4 hhcurveto
          121 hlineto
          10 6 6 10 hvcurveto
          hintmask 00010000
          -42 callsubr
        </CharString>
        <CharString name="alefhebrew">
          -79 callsubr
          hstem
          494 25 rmoveto
          -12 8 10 -13 27 hhcurveto
          221 hlineto
          11 9 8 11 6 1 4 -5 7 hvcurveto
          -143 225 rlineto
          100 49 65 100 154 -31 callgsubr
          -44 -16 -39 -18 -24 vhcurveto
          -138 218 rlineto
          12 -8 -9 12 -27 hhcurveto
          -221 hlineto
          -13 -7 -9 -12 -4 1 -5 3 -5 hvcurveto
          125 -199 rlineto
          -84 -53 -53 -96 -139 vvcurveto
          -151 14 callsubr
          150 vlineto
          29 7 26 9 22 vhcurveto
          endchar
        </CharString>
        <CharString name="amacron">
          20 callsubr
          hintmask 11100000
          306 104 rmoveto
          -25 -70 rlineto
          -16 -6 -12 -18 -27 hhcurveto
          -189 hlineto
          -12 -10 -20 callsubr
          1 3 hvcurveto
          218 639 rlineto
          15 4 14 18 27 hhcurveto
          278 hlineto
          27 14 -18 -15 4 hvcurveto
          218 -639 rlineto
          1 -3 0 -2 -1 vvcurveto
          -50 callsubr
          vhcurveto
          -189 hlineto
          -27 -12 18 16 -6 hvcurveto
          -25 70 rlineto
          -122 403 rmoveto
          -71 -208 rlineto
          142 hlineto
          hintmask 00010000
          -257 551 -88 callsubr
        </CharString>
        <CharString name="ampersand">
          -14 169 -134 -21 558 153 hstemhm
          71 228 -154 219 71 202 hintmask 10101100
          399 711 rmoveto
          -171 -83 -89 -97 hvcurveto
          hintmask 10110100
          -42 19 -47 37 -45 vhcurveto
          -86 -48 -44 -61 -81 vvcurveto
          -141 105 -74 182 68 59 11 37 66 vhcurveto
          hintmask 10101100
          27 -24 rlineto
          -4 5 6 -6 14 hhcurveto
          hintmask 10110100
          211 hlineto
          10 8 8 9 5 -2 5 -4 4 hvcurveto
          -120 117 rlineto
          41 44 77 113 43 vvcurveto
          hintmask 01110100
          10 -8 8 -10 vhcurveto
          -162 hlineto
          -11 -7 -5 -5 -2 hvcurveto
          -27 -55 -19 -17 0 vvcurveto
          -65 67 rlineto
          84 49 40 55 75 vvcurveto
          92 -76 89 -162 vhcurveto
          -23 -556 rmoveto
          -52 -25 26 32 20 10 14 17 8 hvcurveto
          89 -90 rlineto
          -7 -10 -15 -3 -14 hhcurveto
          23 403 rmoveto
          21 15 -9 -24 -19 -13 -17 -29 -13 hvcurveto
          -17 16 -12 15 14 vvcurveto
          22 17 15 18 vhcurveto
          endchar
        </CharString>
        <CharString name="aogonek">
          -78 callsubr
        </CharString>
        <CharString name="approxequal">
          95 8 callgsubr
          31 8 callgsubr
          hstemhm
          hintmask 00001000
          300 570 rmoveto
          -68 -52 -36 -44 hvcurveto
          -98 vlineto
          -25 3 -12 19 vhcurveto
          9 1 6 4 5 4 rrcurveto
          9 10 21 17 46 hhcurveto
          hintmask 00010000
          93 59 -42 99 hhcurveto
          68 52 36 44 hvcurveto
          98 vlineto
          25 -3 12 -19 vhcurveto
          -9 -1 -6 -4 -5 -4 rrcurveto
          -9 -10 -21 -17 -46 hhcurveto
          hintmask 00000100
          -93 -59 42 -99 hhcurveto
          hintmask 01000000
          -253 vmoveto
          -40 callgsubr
        </CharString>
        <CharString name="aring">
          -66 callsubr
          39 48 40 48 hstemhm
          323 202 -71 71 hintmask 11100000
          306 104 rmoveto
          -25 -70 rlineto
          -16 -6 -12 -18 -27 hhcurveto
          -189 hlineto
          -12 -10 -20 callsubr
          1 3 hvcurveto
          218 639 rlineto
          15 4 14 18 27 hhcurveto
          278 hlineto
          27 14 -18 -15 4 hvcurveto
          218 -639 rlineto
          1 -3 0 -2 -1 vvcurveto
          -50 callsubr
          vhcurveto
          -189 hlineto
          -27 -12 18 16 -6 hvcurveto
          -25 70 rlineto
          -122 403 rmoveto
          -71 -208 rlineto
          142 hlineto
          hintmask 00011010
          -106 488 -40 callsubr
          hintmask 00011100
          -47 callgsubr
        </CharString>
        <CharString name="asciicircum">
          752 -39 callgsubr
          hstem
          425 760 rmoveto
          -107 callsubr
        </CharString>
        <CharString name="asciitilde">
          175 8 callgsubr
          hstemhm
          hintmask 01000000
          300 397 rmoveto
          -40 callgsubr
        </CharString>
        <CharString name="asterisk">
          373 -21 391 -20 hstem
          335 357 rmoveto
          -4 5 5 -1 4 hhcurveto
          8 9 5 8 3 hvcurveto
          57 89 57 -89 rlineto
          -7 3 8 -6 9 hhcurveto
          4 5 1 4 5 hvcurveto
          88 63 rlineto
          7 5 1 7 5 vvcurveto
          4 -1 6 -7 7 vhcurveto
          -70 66 87 8 rlineto
          11 1 9 9 12 vvcurveto
          3 0 -1 -1 5 vhcurveto
          -26 98 rlineto
          8 -2 -8 8 -11 hhcurveto
          -4 -3 -1 -2 -4 hvcurveto
          -83 -33 17 79 rlineto
          1 4 0 1 2 vvcurveto
          12 -10 -41 callsubr
          -140 hlineto
          -12 -10 -11 -11 -1 0 -1 1 -4 hvcurveto
          17 -80 -83 33 rlineto
          2 -4 -3 1 -4 hhcurveto
          -12 -7 -8 -8 -2 hvcurveto
          -27 -98 rlineto
          -1 -5 0 0 -2 vvcurveto
          -12 9 -9 12 -1 vhcurveto
          86 -8 -70 -67 rlineto
          -4 -4 -3 -5 -7 vvcurveto
          -9 4 -5 3 -2 vhcurveto
          endchar
        </CharString>
        <CharString name="at">
          -69 126 -126 169 35 109 -109 131 151 127 77 126 hstemhm
          10 145 55 163 89 161 72 145 hintmask 0110111111000000
          210 339 rmoveto
          -132 41 -72 119 69 44 22 27 21 vhcurveto
          -25 15 37 -31 96 hhcurveto
          120 68 73 97 hvcurveto
          116 vlineto
          190 -105 143 -294 -294 -137 -144 -186 vhcurveto
          -142 vlineto
          -200 137 -144 295 222 82 60 74 58 vhcurveto
          3 4 2 4 6 vvcurveto
          12 -9 9 -12 vhcurveto
          -150 hlineto
          -12 -7 -8 -4 -5 hvcurveto
          hintmask 1010111111000000
          -23 -29 -30 -8 -115 hhcurveto
          -148 -137 42 179 hvcurveto
          139 vlineto
          159 137 45 149 149 105 -45 -160 vhcurveto
          -119 vlineto
          -29 -3 -24 -34 -30 -5 24 29 vhcurveto
          212 vlineto
          -106 callgsubr
          -92 hlineto
          -15 -12 -12 -15 hvcurveto
          -4 vlineto
          6 -9 -19 33 -79 hhcurveto
          -119 -41 -73 -132 hvcurveto
          163 hmoveto
          42 5 36 37 37 10 -36 -41 vhcurveto
          hintmask 1001111111000000
          -41 -10 -33 -37 -37 -5 31 42 vhcurveto
          endchar
        </CharString>
        <CharString name="atilde">
          -66 callsubr
          50 19 callgsubr
          hintmask 11100000
          306 104 rmoveto
          -25 -70 rlineto
          -16 -6 -12 -18 -27 hhcurveto
          -189 hlineto
          -12 -10 -20 callsubr
          1 3 hvcurveto
          218 639 rlineto
          15 4 14 18 27 hhcurveto
          278 hlineto
          27 14 -18 -15 4 hvcurveto
          218 -639 rlineto
          1 -3 0 -2 -1 vvcurveto
          -50 callsubr
          vhcurveto
          -189 hlineto
          -27 -12 18 16 -6 hvcurveto
          -25 70 rlineto
          -122 403 rmoveto
          -71 -208 rlineto
          142 hlineto
          hintmask 00010010
          -12 431 rmoveto
          109 27 76 25 hvcurveto
          hintmask 00000100
          10 -7 9 -12 vhcurveto
          -84 hlineto
          hintmask 00001010
          -23 2 -19 -29 -33 -23 24 -52 hhcurveto
          -110 -26 -77 -25 -10 9 -8 10 hvcurveto
          84 hlineto
          23 -3 19 30 hhcurveto
          hintmask 00010010
          33 23 -24 52 hhcurveto
          endchar
        </CharString>
        <CharString name="ayinhebrew">
          -10 209 501 -20 hstem
          394 -10 rmoveto
          226 145 80 229 hvcurveto
          374 15 callgsubr
          -369 vlineto
          -40 -8 -31 -18 -16 vhcurveto
          -156 456 rlineto
          14 -5 -7 13 -15 hhcurveto
          -216 hlineto
          -15 -17 -13 -14 5 hvcurveto
          161 -474 rlineto
          -156 hlineto
          -15 -12 -12 -15 hvcurveto
          -155 9 callsubr
        </CharString>
        <CharString name="b">
          -91 callgsubr
        </CharString>
        <CharString name="backslash">
          -63 -21 870 -20 hstem
          351 756 rmoveto
          14 -5 -14 16 -25 hhcurveto
          -143 hlineto
          -50 callsubr
          -2 0 -2 2 -5 hvcurveto
          358 -809 rlineto
          -13 5 12 -17 27 hhcurveto
          140 -82 callsubr
          2 0 2 -2 5 hvcurveto
          endchar
        </CharString>
        <CharString name="bar">
          -128 -21 999 11 callsubr
          353 850 rmoveto
          -15 -12 -12 -15 hvcurveto
          -945 vlineto
          -104 callgsubr
          144 hlineto
          -105 callsubr
          945 vlineto
          -106 callgsubr
          endchar
        </CharString>
        <CharString name="betdageshhebrew">
          23 callsubr
          200 89 hintmask 01010000
          289 373 rmoveto
          -106 callgsubr
          -35 hlineto
          -15 -12 -12 -15 hvcurveto
          -36 vlineto
          -104 callgsubr
          35 hlineto
          -105 callsubr
          hintmask 10100000
          -187 363 -12 callgsubr
          218 -16 callgsubr
          -190 -319 vlineto
          -15 -12 -12 -15 hvcurveto
          -146 vlineto
          -104 callgsubr
          668 hlineto
          -105 callsubr
          146 vlineto
          -106 callgsubr
          -79 191 hlineto
          229 -145 80 4 callsubr
          endchar
        </CharString>
        <CharString name="bethebrew">
          18 callsubr
          66 700 -12 callgsubr
          218 -16 callgsubr
          -190 -319 vlineto
          -15 -12 -12 -15 hvcurveto
          -146 vlineto
          -104 callgsubr
          668 hlineto
          -105 callsubr
          146 vlineto
          -106 callgsubr
          -79 191 hlineto
          229 -145 80 4 callsubr
          endchar
        </CharString>
        <CharString name="braceleft">
          -137 -21 934 -20 hstem
          302 210 vstem
          212 273 rmoveto
          -21 9 -12 20 -9 vhcurveto
          17 -7 rlineto
          39 -16 5 -44 -43 vvcurveto
          -203 148 -76 167 12 10 10 12 vhcurveto
          147 vlineto
          12 -10 9 -9 1 vhcurveto
          -73 9 -35 19 81 vvcurveto
          0 vlineto
          80 -36 74 -47 13 vhcurveto
          47 13 36 66 88 vvcurveto
          0 vlineto
          81 35 19 73 9 vhcurveto
          9 1 10 9 12 vvcurveto
          147 vlineto
          12 -10 10 -12 -167 -148 -76 -203 -43 -5 -44 -39 -16 vhcurveto
          -17 -7 rlineto
          -20 -9 -9 -12 -21 vvcurveto
          endchar
        </CharString>
        <CharString name="braceright">
          -137 -21 934 -20 hstem
          338 210 vstem
          638 345 rmoveto
          21 -9 12 -20 9 vhcurveto
          -17 7 rlineto
          -39 16 -5 44 43 vvcurveto
          203 -148 76 -167 -50 callsubr
          vhcurveto
          -147 vlineto
          -12 10 -9 9 -1 vhcurveto
          73 -9 35 -19 -81 vvcurveto
          0 vlineto
          -88 36 -66 47 -13 vhcurveto
          -47 -13 -36 -74 -80 vvcurveto
          0 vlineto
          -81 -35 -19 -73 -9 vhcurveto
          -9 -1 -10 -9 -12 vvcurveto
          -147 vlineto
          -41 callgsubr
          167 148 76 203 43 5 44 39 16 vhcurveto
          17 7 rlineto
          20 9 9 12 21 vvcurveto
          endchar
        </CharString>
        <CharString name="bracketleft">
          -159 173 588 173 hstem
          229 196 vstem
          256 775 rmoveto
          -15 -12 -12 -15 hvcurveto
          -880 vlineto
          -104 callgsubr
          367 hlineto
          -105 callsubr
          119 vlineto
          -106 callgsubr
          -198 588 198 hlineto
          -105 callsubr
          119 vlineto
          -106 callgsubr
          endchar
        </CharString>
        <CharString name="bracketright">
          -159 173 588 173 hstem
          425 196 vstem
          227 775 rmoveto
          -15 -12 -12 -15 hvcurveto
          -119 vlineto
          -104 callgsubr
          198 -588 -198 hlineto
          -15 -12 -12 -15 hvcurveto
          -119 vlineto
          -104 callgsubr
          367 hlineto
          -105 callsubr
          880 vlineto
          -106 callgsubr
          endchar
        </CharString>
        <CharString name="brokenbar">
          21 -21 830 11 callsubr
          353 830 -17 callsubr
          -144 -475 -17 callsubr
          endchar
        </CharString>
        <CharString name="bullet">
          -17 callgsubr
        </CharString>
        <CharString name="c">
          -79 callgsubr
          hstem
          333 430 rmoveto
          55 41 30 61 61 19 -25 -31 16 vhcurveto
          -16 8 10 -10 17 hhcurveto
          216 -39 callsubr
          -115 141 -254 7 callgsubr
          254 -14 callgsubr
          114 -89 callsubr
          endchar
        </CharString>
        <CharString name="cacute">
          -79 callgsubr
          21 119 hstemhm
          hintmask 11000000
          333 430 rmoveto
          55 41 30 61 61 19 -25 -31 16 vhcurveto
          -16 8 10 -10 17 hhcurveto
          216 -39 callsubr
          -115 141 -254 7 callgsubr
          254 -14 callgsubr
          114 -89 callsubr
          hintmask 00100000
          6 490 -107 callgsubr
          endchar
        </CharString>
        <CharString name="ccaron">
          -79 callgsubr
          42 -39 callgsubr
          hstemhm
          hintmask 11000000
          333 430 rmoveto
          55 41 30 61 61 19 -25 -31 16 vhcurveto
          -16 8 10 -10 17 hhcurveto
          216 -39 callsubr
          -115 141 -254 7 callgsubr
          254 -14 callgsubr
          114 -89 callsubr
          hintmask 00110000
          96 551 -102 callsubr
        </CharString>
        <CharString name="ccedilla">
          -150 48 -48 61 14 53 -23 -21 57 194 330 195 hstemhm
          341 242 hintmask 10101110
          333 430 rmoveto
          55 41 30 61 61 19 -25 -31 16 vhcurveto
          -16 8 10 -10 17 hhcurveto
          216 -39 callsubr
          -115 141 -254 -206 -166 -91 -210 hvcurveto
          -118 vlineto
          -190 136 -93 179 -15 vhcurveto
          -15 -46 rlineto
          -1 -3 -1 -3 -3 vvcurveto
          -8 5 -5 10 vhcurveto
          44 hlineto
          hintmask 10011110
          19 2 9 27 hhcurveto
          20 8 -7 -10 -10 -8 -9 -21 hvcurveto
          hintmask 01101110
          -35 8 13 -25 hhcurveto
          -61 hlineto
          -7 -6 -3 -8 -34 66 -16 60 51 65 17 50 40 -40 21 -51 -7 -21 0 -4 -9 hvcurveto
          6 17 rlineto
          236 9 107 135 110 vvcurveto
          -89 callsubr
          endchar
        </CharString>
        <CharString name="ccircumflex">
          -79 callgsubr
          42 -39 callgsubr
          hstemhm
          hintmask 11000000
          333 430 rmoveto
          55 41 30 61 61 19 -25 -31 16 vhcurveto
          -16 8 10 -10 17 hhcurveto
          216 -39 callsubr
          -115 141 -254 7 callgsubr
          254 -14 callgsubr
          114 -89 callsubr
          hintmask 00110000
          99 490 rmoveto
          -107 callsubr
        </CharString>
        <CharString name="cdotaccent">
          -79 callgsubr
          21 119 hstemhm
          336 182 hintmask 11000000
          333 430 rmoveto
          55 41 30 61 61 19 -25 -31 16 vhcurveto
          -16 8 10 -10 17 hhcurveto
          216 -39 callsubr
          -115 141 -254 7 callgsubr
          254 -14 callgsubr
          114 -89 callsubr
          hintmask 00110000
          26 580 -88 callgsubr
        </CharString>
        <CharString name="cent">
          -79 -21 710 -20 hstem
          294 223 vstem
          490 -100 rmoveto
          -105 callsubr
          76 vlineto
          146 38 55 108 35 vvcurveto
          -106 callgsubr
          -215 hlineto
          -15 -9 -8 -12 -5 hvcurveto
          -19 -8 -5 -11 -24 hhcurveto
          -31 -9 21 43 hvcurveto
          70 vlineto
          40 9 24 31 20 8 -11 -19 9 vhcurveto
          -12 6 8 -8 15 hhcurveto
          -3 callsubr
          -102 callgsubr
          43 -61 101 -140 36 hvcurveto
          67 vlineto
          -106 callgsubr
          -169 hlineto
          -15 -12 -12 -15 hvcurveto
          -67 vlineto
          -114 -31 -75 -81 -121 vvcurveto
          -46 vlineto
          -122 75 -81 114 -30 vhcurveto
          -77 9 callsubr
        </CharString>
        <CharString name="colon">
          0 233 108 233 hstem
          323 574 rmoveto
          -15 -12 -12 -15 hvcurveto
          -179 vlineto
          -104 callgsubr
          203 hlineto
          -105 callsubr
          179 vlineto
          -106 callgsubr
          -203 -341 rmoveto
          -15 -12 -12 -15 hvcurveto
          -179 vlineto
          -104 callgsubr
          203 hlineto
          -105 callsubr
          179 vlineto
          -106 callgsubr
          endchar
        </CharString>
        <CharString name="comma">
          -71 -11 callsubr
          280 -68 rmoveto
          -2 0 2 -2 -65 callgsubr
          128 hlineto
          26 15 19 13 5 hvcurveto
          95 241 rlineto
          1 3 0 2 2 vvcurveto
          12 -10 -41 callsubr
          -185 hlineto
          -27 -18 -21 -18 -3 hvcurveto
          endchar
        </CharString>
        <CharString name="commaaccent.cap">
          -15 callgsubr
          hstem
          291 -121 -107 callgsubr
          endchar
        </CharString>
        <CharString name="copyright">
          -10 87 95 96 -96 137 82 137 -96 96 95 87 hstemhm
          65 94 80 134 318 94 hintmask 1100111110000000
          65 350 -43 callsubr
          214 40 rmoveto
          27 20 15 31 30 9 -13 -15 9 vhcurveto
          hintmask 1011011110000000
          -8 3 5 -5 9 hhcurveto
          107 hlineto
          5 6 5 6 56 -58 70 -125 -103 -82 -45 -104 hvcurveto
          -58 vlineto
          -104 82 -45 103 125 58 70 56 6 -6 5 -5 vhcurveto
          -107 hlineto
          -9 -5 -5 -8 -3 hvcurveto
          hintmask 1101011110000000
          -15 -9 -9 -13 -30 hhcurveto
          -31 -20 15 27 hvcurveto
          endchar
        </CharString>
        <CharString name="currency">
          83 163 175 163 hstem
          175 163 174 163 vstem
          140 520 rmoveto
          -8 -9 -1 -16 10 -10 53 -54 rcurveline
          -12 -30 -7 -33 -35 vvcurveto
          -36 7 -34 14 -30 vhcurveto
          -53 -53 -11 -10 -1 -16 12 -10 rlinecurve
          94 -96 9 -9 17 0 10 9 rlinecurve
          54 54 rlineto
          -12 30 33 -7 35 hhcurveto
          35 33 7 13 30 hvcurveto
          55 -55 9 -10 15 0 10 10 rlinecurve
          96 96 12 11 -1 15 -10 10 rlinecurve
          -54 54 rlineto
          13 30 7 34 35 vvcurveto
          34 -7 33 -13 30 vhcurveto
          55 55 10 9 0 15 -10 10 rlinecurve
          -97 97 -10 11 -15 -1 -11 -10 rlinecurve
          -53 -53 rlineto
          13 -30 -34 8 -35 hhcurveto
          -36 -34 -7 -14 -31 hvcurveto
          -51 52 -10 11 -16 0 -10 -11 rlinecurve
          101 -282 rmoveto
          48 38 40 49 47 40 -40 -48 -48 -40 -39 -47 -49 -38 39 48 vhcurveto
          endchar
        </CharString>
        <CharString name="d">
          0 195 310 195 hstem
          103 700 rmoveto
          -15 -12 -12 -15 hvcurveto
          -646 vlineto
          -91 callsubr
          hlineto
          endchar
        </CharString>
        <CharString name="dagger">
          21 -21 338 186 176 11 callsubr
          184 524 rmoveto
          -15 -12 -12 -15 hvcurveto
          -132 vlineto
          -104 callgsubr
          142 -311 hlineto
          -104 callgsubr
          144 hlineto
          -105 callsubr
          311 6 callgsubr
          149 hlineto
          -106 callgsubr
          -144 hlineto
          -15 -12 -12 -15 hvcurveto
          -149 vlineto
          endchar
        </CharString>
        <CharString name="daggerdbl">
          21 -21 126 186 86 186 116 11 callsubr
          184 312 rmoveto
          -15 -12 -12 -15 hvcurveto
          -132 vlineto
          -104 callgsubr
          142 -99 hlineto
          -104 callgsubr
          144 hlineto
          -105 callsubr
          99 6 callgsubr
          86 143 hlineto
          -105 callsubr
          132 vlineto
          -106 callgsubr
          -143 89 hlineto
          -106 callgsubr
          -144 hlineto
          -15 -12 -12 -15 hvcurveto
          -89 -142 vlineto
          -15 -12 -12 -15 hvcurveto
          -132 vlineto
          -104 callgsubr
          142 -86 hlineto
          endchar
        </CharString>
        <CharString name="daletdageshhebrew">
          10 callsubr
          165 89 hintmask 01010000
          254 373 rmoveto
          -106 callgsubr
          -35 hlineto
          -15 -12 -12 -15 hvcurveto
          -36 vlineto
          -104 callgsubr
          35 hlineto
          -105 callsubr
          hintmask 10100000
          430 148 rmoveto
          -105 callsubr
          161 vlineto
          -106 callgsubr
          -578 -86 callsubr
          229 -458 hlineto
          -104 callgsubr
          -19 callgsubr
          -105 callsubr
          458 vlineto
          endchar
        </CharString>
        <CharString name="dalethebrew">
          -43 callgsubr
          hstem
          634 485 rmoveto
          -105 callsubr
          161 vlineto
          -106 callgsubr
          -578 -86 callsubr
          229 -458 hlineto
          -104 callgsubr
          -19 callgsubr
          -105 callsubr
          458 vlineto
          endchar
        </CharString>
        <CharString name="dcaron">
          0 195 310 195 -18 callsubr
          103 700 rmoveto
          -15 -12 -12 -15 hvcurveto
          -646 vlineto
          -91 callsubr
          hlineto
          hintmask 00110000
          49 626 -102 callsubr
        </CharString>
        <CharString name="dcroat">
          0 195 79 155 76 -18 callgsubr
          -244 -49 vlineto
          -15 -12 -12 -15 hvcurveto
          -101 vlineto
          -104 callgsubr
          49 -247 hlineto
          -91 callsubr
          79 35 hlineto
          -105 callsubr
          101 vlineto
          -106 callgsubr
          -35 hlineto
          endchar
        </CharString>
        <CharString name="degree">
          340 107 155 108 hstem
          210 165 100 165 vstem
          426 340 rmoveto
          138 76 82 102 102 -76 84 -138 -138 -78 -83 -103 -103 78 -81 138 hvcurveto
          107 vmoveto
          -35 -16 30 47 47 19 31 32 33 16 -30 -48 -48 -14 -29 -35 hvcurveto
          endchar
        </CharString>
        <CharString name="divide">
          38 168 43 176 43 168 hstem
          334 178 cntrmask 11100000
          168 425 rmoveto
          -15 -12 -12 -15 hvcurveto
          -122 vlineto
          -104 callgsubr
          513 hlineto
          -105 callsubr
          122 vlineto
          -106 callgsubr
          -320 211 rmoveto
          -15 -12 -12 -15 hvcurveto
          -114 vlineto
          -104 callgsubr
          124 hlineto
          -105 callsubr
          114 vlineto
          -106 callgsubr
          -124 -430 rmoveto
          -15 -12 -12 -15 hvcurveto
          -114 vlineto
          -104 callgsubr
          124 hlineto
          -105 callsubr
          114 vlineto
          -106 callgsubr
          endchar
        </CharString>
        <CharString name="dollar">
          -74 -21 895 -20 hstem
          326 188 vstem
          483 -47 callsubr
          -8 9 8 -4 14 hhcurveto
          -3 callsubr
          14 10 9 13 73 -87 98 -161 28 hvcurveto
          71 vlineto
          -106 callgsubr
          -134 hlineto
          -15 -12 -12 -15 hvcurveto
          -71 vlineto
          -148 -24 -91 -85 -113 vvcurveto
          -132 108 -64 175 -21 vhcurveto
          120 -14 29 -11 -24 vvcurveto
          -22 -42 -7 -53 -47 -26 4 23 -24 vhcurveto
          8 -8 -9 5 -17 hhcurveto
          -205 hlineto
          -14 -9 -9 -13 -95 83 -89 178 -23 hvcurveto
          -64 vlineto
          -104 callgsubr
          134 hlineto
          -105 callsubr
          64 vlineto
          162 22 110 84 124 vvcurveto
          129 -82 66 -221 25 vhcurveto
          endchar
        </CharString>
        <CharString name="e">
          -81 callsubr
          hstem
          cntrmask 11100000
          350 195 -106 callsubr
          endchar
        </CharString>
        <CharString name="eacute">
          -81 callsubr
          35 119 hstemhm
          hintmask 00010000
          348 764 -107 callgsubr
          hintmask 11100000
          -46 -640 -106 callsubr
          endchar
        </CharString>
        <CharString name="ebreve">
          -81 callsubr
          30 -10 callgsubr
          hintmask 11100000
          350 195 -106 callsubr
          -274 647 -96 callsubr
          hintmask 00010000
          -80 callgsubr
          hintmask 00001000
          -46 callgsubr
        </CharString>
        <CharString name="ecaron">
          -81 callsubr
          52 -39 callgsubr
          hstemhm
          -49 callsubr
          -324 626 -102 callsubr
        </CharString>
        <CharString name="ecircumflex">
          -81 callsubr
          52 -39 callgsubr
          hstemhm
          hintmask 11100000
          360 195 -106 callsubr
          hintmask 00011000
          -335 565 rmoveto
          -107 callsubr
        </CharString>
        <CharString name="edieresis">
          -32 callsubr
          226 -30 callgsubr
          hintmask 11100000
          360 195 -106 callsubr
          hintmask 00011100
          -259 655 -103 callsubr
          endchar
        </CharString>
        <CharString name="edotaccent">
          -71 callsubr
        </CharString>
        <CharString name="egrave">
          -32 callsubr
          hintmask 11100000
          360 195 -106 callsubr
          -271 636 rmoveto
          -14 17 -8 1 -15 1 rrcurveto
          -158 hlineto
          -12 -7 -8 -12 -5 2 -4 3 -3 hvcurveto
          95 -80 rlineto
          -6 8 10 -1 10 4 4 0 4 hhcurveto
          121 hlineto
          10 6 6 10 hvcurveto
          hintmask 00010000
          -42 callsubr
        </CharString>
        <CharString name="eight">
          -10 168 113 162 107 170 hstem
          102 243 160 240 vstem
          425 710 rmoveto
          -219 -104 -104 -106 -55 24 -42 44 -33 hvcurveto
          -57 -32 -32 -54 -66 vvcurveto
          -114 110 -114 234 233 113 113 113 67 -34 54 -62 33 vhcurveto
          46 33 24 44 55 vvcurveto
          106 -103 102 -217 vhcurveto
          80 -498 rmoveto
          -38 -40 -16 -40 -40 -40 17 37 37 40 22 40 41 38 -21 -38 1 vhcurveto
          -6 274 rmoveto
          -33 -36 -20 -38 -38 -35 19 34 34 35 20 38 38 36 -21 -33 vhcurveto
          endchar
        </CharString>
        <CharString name="eightinferior">
          -150 86 59 82 56 87 hstemhm
          254 -22 callgsubr
          hintmask 11110100
          423 220 -50 callgsubr
          -45 callgsubr
          hintmask 11111000
          -89 callgsubr
          endchar
        </CharString>
        <CharString name="eightsuperior">
          340 86 59 82 56 87 hstemhm
          254 -22 callgsubr
          hintmask 11110100
          423 710 -50 callgsubr
          -45 callgsubr
          hintmask 11111000
          -89 callgsubr
          endchar
        </CharString>
        <CharString name="ellipsis">
          0 198 hstem
          50 204 69 204 69 204 cntrmask 01110000
          77 198 rmoveto
          -15 -12 -12 -15 hvcurveto
          -144 vlineto
          -104 callgsubr
          150 hlineto
          -105 callsubr
          144 vlineto
          -106 callgsubr
          123 hmoveto
          -15 -12 -12 -15 hvcurveto
          -144 vlineto
          -104 callgsubr
          150 hlineto
          -105 callsubr
          144 vlineto
          -106 callgsubr
          123 hmoveto
          -15 -12 -12 -15 hvcurveto
          -144 vlineto
          -104 callgsubr
          150 hlineto
          -105 callsubr
          144 vlineto
          -106 callgsubr
          endchar
        </CharString>
        <CharString name="emacron">
          -32 callsubr
          hintmask 11100000
          350 195 -106 callsubr
          hintmask 00010000
          -517 655 -88 callsubr
        </CharString>
        <CharString name="emdash">
          237 190 hstem
          72 427 -19 callsubr
        </CharString>
        <CharString name="endash">
          237 190 hstem
          176 427 rmoveto
          -15 -12 -12 -15 hvcurveto
          -136 vlineto
          -104 callgsubr
          498 hlineto
          -105 callsubr
          136 vlineto
          -106 callgsubr
          endchar
        </CharString>
        <CharString name="eng">
          -66 callgsubr
        </CharString>
        <CharString name="eogonek">
          -75 callgsubr
        </CharString>
        <CharString name="equal">
          133 170 80 170 hstem
          213 553 -28 callsubr
          425 hlineto
          -105 callsubr
          116 vlineto
          -106 callgsubr
          -425 -250 -28 callsubr
          425 hlineto
          -105 callsubr
          116 vlineto
          -106 callgsubr
          endchar
        </CharString>
        <CharString name="estimated">
          -10 156 -156 189 44 155 82 150 hstemhm
          102 250 148 249 hintmask 01111100
          720 223 rmoveto
          16 13 15 18 hvcurveto
          56 vlineto
          176 -117 122 -206 -169 -155 -102 -175 vhcurveto
          -58 vlineto
          -188 144 -97 181 204 104 92 71 16 -10 10 -14 vhcurveto
          -188 hlineto
          -18 -5 -2 -14 -13 hvcurveto
          hintmask 10111100
          -14 -12 -16 -3 -34 hhcurveto
          -32 -41 25 38 hvcurveto
          14 vlineto
          74 237 rmoveto
          27 47 -10 -69 hvcurveto
          -3 -148 3 vlineto
          59 45 20 29 vhcurveto
          endchar
        </CharString>
        <CharString name="eth">
          0 195 79 155 76 -18 callgsubr
          -244 -49 vlineto
          -15 -12 -12 -15 hvcurveto
          -101 vlineto
          -104 callgsubr
          49 -247 hlineto
          -91 callsubr
          79 85 hlineto
          -105 callsubr
          101 vlineto
          -106 callgsubr
          -85 hlineto
          endchar
        </CharString>
        <CharString name="exclam">
          0 223 477 -20 hstem
          324 700 rmoveto
          -15 -12 -12 -19 hvcurveto
          -376 vlineto
          -17 -10 callsubr
          202 hlineto
          -96 callgsubr
          13 hvcurveto
          1 381 rlineto
          17 -101 callgsubr
          -203 -477 rmoveto
          -15 -12 -12 -15 hvcurveto
          -169 vlineto
          -104 callgsubr
          202 hlineto
          -105 callsubr
          169 vlineto
          -106 callgsubr
          endchar
        </CharString>
        <CharString name="exclamdown">
          -129 -21 477 223 hstem
          527 -150 rmoveto
          -96 callgsubr
          17 hvcurveto
          -1 381 rlineto
          13 -101 callgsubr
          -202 hlineto
          -15 -12 -11 -17 hvcurveto
          -376 vlineto
          -19 -101 callsubr
          202 477 rmoveto
          -105 callsubr
          169 vlineto
          -106 callgsubr
          -202 hlineto
          -15 -12 -12 -15 hvcurveto
          -169 9 callsubr
        </CharString>
        <CharString name="f">
          21 -21 225 205 64 206 hstem
          127 -34 callsubr
          -19 callgsubr
          -102 callgsubr
          hvcurveto
          198 328 vlineto
          -105 callsubr
          151 vlineto
          -106 callgsubr
          -328 64 393 hlineto
          -105 callsubr
          152 vlineto
          -106 callgsubr
          endchar
        </CharString>
        <CharString name="finalkafdageshhebrew">
          -103 -21 434 3 callgsubr
          170 89 hintmask 01010000
          259 373 rmoveto
          -106 callgsubr
          -35 hlineto
          -15 -12 -12 -15 hvcurveto
          -36 vlineto
          -104 callgsubr
          35 hlineto
          -105 callsubr
          hintmask 10100000
          431 148 rmoveto
          -105 callsubr
          161 vlineto
          -106 callgsubr
          -578 -86 callsubr
          229 9 callgsubr
          582 vlineto
          endchar
        </CharString>
        <CharString name="finalkafhebrew">
          -103 -21 609 215 hstem
          660 485 rmoveto
          -105 callsubr
          161 vlineto
          -106 callgsubr
          -578 -86 callsubr
          229 9 callgsubr
          582 vlineto
          endchar
        </CharString>
        <CharString name="finalmemhebrew">
          18 callsubr
          107 -85 callgsubr
          1 -646 rlineto
          -15 12 -12 14 vhcurveto
          630 hlineto
          16 11 13 14 hvcurveto
          364 -23 callsubr
          80 4 callsubr
          -205 vmoveto
          -26 callsubr
          -190 -143 295 vlineto
          endchar
        </CharString>
        <CharString name="finalnunhebrew">
          -103 -21 609 215 hstem
          580 -28 callgsubr
          9 callgsubr
          endchar
        </CharString>
        <CharString name="finalpehebrew">
          -103 -21 238 225 146 215 hstem
          30 240 vstem
          377 114 rmoveto
          -105 callsubr
          171 vlineto
          -106 callgsubr
          -6 hlineto
          -71 -30 29 76 hvcurveto
          41 113 vlineto
          -26 callsubr
          -477 vlineto
          -104 callgsubr
          211 hlineto
          -105 callsubr
          478 vlineto
          229 -140 90 4 callsubr
          -326 hlineto
          -15 -12 -12 -15 hvcurveto
          -230 vlineto
          -229 135 -100 206 vhcurveto
          endchar
        </CharString>
        <CharString name="finaltsadihebrew">
          0 215 39 195 51 200 hstem
          70 215 -52 callgsubr
          366 hlineto
          206 156 101 210 hvcurveto
          88 vlineto
          210 -156 91 -206 vhcurveto
          -366 hlineto
          -15 -12 -12 -15 hvcurveto
          -146 vlineto
          -212 98 -61 203 vhcurveto
          16 hlineto
          -105 callsubr
          -38 callgsubr
          -106 callgsubr
          -16 hlineto
          -43 -9 11 40 hvcurveto
          144 hlineto
          61 31 -30 -65 hvcurveto
          -100 vlineto
          -65 -31 -25 -61 vhcurveto
          endchar
        </CharString>
        <CharString name="five">
          4 callgsubr
          -195 246 48 186 -162 162 35 195 hstemhm
          hintmask 01101000
          347 220 rmoveto
          5 -4 -11 11 -21 hhcurveto
          -202 hlineto
          -50 callsubr
          -120 119 -104 212 212 133 107 143 133 -121 97 -133 -76 -34 -10 -24 -39 hvcurveto
          8 69 rlineto
          317 hlineto
          -105 callsubr
          -38 callgsubr
          -106 callgsubr
          -475 hlineto
          -25 -19 -17 -25 -3 hvcurveto
          -39 -347 rlineto
          -1 -11 1 8 -2 -65 callgsubr
          199 hlineto
          hintmask 10011000
          17 10 24 47 hhcurveto
          44 32 -22 -39 -39 -29 -23 -47 -33 -21 12 23 -18 hvcurveto
          endchar
        </CharString>
        <CharString name="fiveeighths">
          -9 callsubr
          -20 -1 callsubr
          237 141 103 -22 callgsubr
          hintmask 0111001011110000
          113 -93 callgsubr
          43 -321 -50 callgsubr
          hintmask 1011001011101000
          -45 callgsubr
          hintmask 1011001011110000
          -89 callgsubr
          -528 213 rmoveto
          hintmask 1010011011110000
          -77 callgsubr
          hintmask 1010100111110000
          -25 callsubr
        </CharString>
        <CharString name="fiveinferior">
          -150 -1 callsubr
          461 141 hintmask 01101100
          385 -33 rmoveto
          -77 callgsubr
          hintmask 10011100
          -25 callsubr
        </CharString>
        <CharString name="fivesuperior">
          340 -1 callsubr
          461 141 hintmask 01101100
          385 457 rmoveto
          -77 callgsubr
          hintmask 10011100
          -25 callsubr
        </CharString>
        <CharString name="florin">
          -150 203 272 185 45 185 hstem
          297 239 vstem
          164 -123 rmoveto
          -104 callgsubr
          49 hlineto
          192 104 83 190 hvcurveto
          202 113 vlineto
          -105 callsubr
          131 vlineto
          -106 callgsubr
          -113 12 hlineto
          21 13 12 30 -13 callgsubr
          -105 callsubr
          131 vlineto
          -106 callgsubr
          -103 hlineto
          -145 -115 -39 -174 hvcurveto
          -17 -69 vlineto
          -15 -12 -12 -15 hvcurveto
          -131 vlineto
          -104 callgsubr
          69 -191 hlineto
          -61 -24 -20 -43 vhcurveto
          -39 hlineto
          -15 -12 -12 -15 hvcurveto
          endchar
        </CharString>
        <CharString name="four">
          21 -21 112 192 396 -20 hstem
          424 248 vstem
          672 315 rmoveto
          358 vlineto
          -106 callgsubr
          -228 hlineto
          -16 -13 -7 -10 -8 hvcurveto
          -303 -365 rlineto
          -4 -5 -7 -9 -17 vvcurveto
          -148 vlineto
          -104 callgsubr
          324 -85 hlineto
          -104 callgsubr
          201 hlineto
          -105 callsubr
          85 88 vlineto
          -105 callsubr
          149 vlineto
          14 -11 13 -17 vhcurveto
          -450 -11 rmoveto
          -14 callgsubr
          rlineto
          -141 vlineto
          endchar
        </CharString>
        <CharString name="fourinferior">
          -119 -21 53 103 194 -20 hstem
          424 132 vstem
          556 21 -87 callgsubr
          endchar
        </CharString>
        <CharString name="foursuperior">
          371 -21 53 103 194 -20 hstem
          423 132 vstem
          555 511 -87 callgsubr
          endchar
        </CharString>
        <CharString name="fraction">
          -79 callsubr
          hstem
          113 -93 callgsubr
          endchar
        </CharString>
        <CharString name="g">
          4 callgsubr
          72 165 43 245 -29 callsubr
          hstemhm
          -99 callgsubr
          endchar
        </CharString>
        <CharString name="gbreve">
          4 callgsubr
          72 165 43 245 -29 callsubr
          20 -10 callgsubr
          -99 callgsubr
          -320 420 -96 callsubr
          hintmask 00001000
          -80 callgsubr
          hintmask 00000100
          -46 callgsubr
        </CharString>
        <CharString name="gcircumflex">
          4 callgsubr
          72 165 43 245 -29 callsubr
          42 -39 callgsubr
          hstemhm
          -62 callsubr
          -353 338 rmoveto
          -107 callsubr
        </CharString>
        <CharString name="gcommaaccent">
          -15 callgsubr
          21 195 72 165 43 245 -29 callsubr
          hstemhm
          hintmask 01101000
          495 422 rmoveto
          -15 -12 -12 -15 hvcurveto
          -111 vlineto
          -104 callgsubr
          62 hlineto
          -33 -1 -30 -39 -91 hhcurveto
          -61 -46 30 55 hvcurveto
          170 vlineto
          45 46 30 61 61 23 -29 -10 8 vhcurveto
          hintmask 01110000
          -7 6 8 -4 15 hhcurveto
          226 -82 callsubr
          48 -86 175 -283 -206 -171 -89 -212 hvcurveto
          -118 vlineto
          -217 166 -15 callsubr
          166 3 callsubr
          106 vlineto
          -106 callgsubr
          hintmask 10000000
          -520 -543 -107 callgsubr
          endchar
        </CharString>
        <CharString name="gdotaccent">
          4 callgsubr
          72 165 43 245 -29 callsubr
          21 119 hstemhm
          25 callsubr
          -62 callsubr
          -428 428 -88 callgsubr
        </CharString>
        <CharString name="gimeldageshhebrew">
          21 -21 134 203 13 90 65 205 hstemhm
          172 89 hintmask 00101000
          261 413 rmoveto
          -106 callgsubr
          -35 hlineto
          -15 -12 -12 -15 hvcurveto
          -36 vlineto
          -104 callgsubr
          35 hlineto
          -105 callsubr
          hintmask 11010000
          157 -40 -57 callgsubr
        </CharString>
        <CharString name="gimelhebrew">
          21 -21 134 203 168 205 hstem
          379 337 -57 callgsubr
        </CharString>
        <CharString name="greater">
          35 -21 672 -20 hstem
          686 371 rmoveto
          21 -11 9 -18 12 vhcurveto
          -420 270 rlineto
          3 -5 -4 0 -2 hhcurveto
          -12 -9 -9 -12 hvcurveto
          -162 vlineto
          -26 20 -9 12 -8 vhcurveto
          175 -110 -175 -110 rlineto
          -12 -8 -20 -9 -26 vvcurveto
          -162 vlineto
          -12 9 -9 12 2 4 0 3 5 vhcurveto
          420 270 rlineto
          18 12 11 9 21 vvcurveto
          endchar
        </CharString>
        <CharString name="greaterequal">
          0 163 533 -20 hstem
          685 471 rmoveto
          21 -9 12 -20 9 vhcurveto
          -420 180 rlineto
          2 -5 -4 1 -2 hhcurveto
          -12 -9 -9 -12 hvcurveto
          -132 vlineto
          -26 19 -14 13 -4 vhcurveto
          175 -59 -175 -60 rlineto
          -13 -5 -19 -12 -26 vvcurveto
          -132 vlineto
          -12 9 -9 12 2 4 1 2 5 vhcurveto
          420 180 rlineto
          20 9 9 12 21 vvcurveto
          -454 -246 rmoveto
          -15 -12 -12 -15 hvcurveto
          -109 vlineto
          -104 callgsubr
          427 hlineto
          -105 callsubr
          2 callgsubr
          endchar
        </CharString>
        <CharString name="guillemotleft">
          21 callsubr
          420 306 -73 callgsubr
          -273 -46 -73 callgsubr
          endchar
        </CharString>
        <CharString name="guillemotright">
          21 callsubr
          430 352 -74 callsubr
          273 46 -74 callsubr
          endchar
        </CharString>
        <CharString name="guilsinglleft">
          21 callsubr
          284 306 -73 callgsubr
          endchar
        </CharString>
        <CharString name="guilsinglright">
          21 callsubr
          566 352 -74 callsubr
          endchar
        </CharString>
        <CharString name="h">
          -16 callsubr
          232 21 callgsubr
          -205 -200 205 vlineto
          -61 callsubr
          -16 12 -11 15 vhcurveto
          206 hlineto
          -105 callsubr
          213 200 -213 vlineto
          -83 callgsubr
          endchar
        </CharString>
        <CharString name="hbar">
          -16 callsubr
          44 125 63 21 callgsubr
          -36 -200 36 vlineto
          -61 callsubr
          -16 12 -11 15 vhcurveto
          206 hlineto
          -105 callsubr
          213 200 -213 vlineto
          -83 callgsubr
          -433 -232 rmoveto
          44 200 -44 vlineto
          endchar
        </CharString>
        <CharString name="hcircumflex">
          -16 callsubr
          232 -20 72 -39 callgsubr
          hstemhm
          hintmask 11100000
          -33 callsubr
          -205 -200 205 vlineto
          -61 callsubr
          -16 12 -11 15 vhcurveto
          206 hlineto
          -105 callsubr
          213 200 -213 vlineto
          -83 callgsubr
          hintmask 00011000
          -336 60 rmoveto
          -107 callsubr
        </CharString>
        <CharString name="hedageshhebrew">
          10 callsubr
          374 89 hintmask 01010000
          463 373 rmoveto
          -106 callgsubr
          -35 hlineto
          -15 -12 -12 -15 hvcurveto
          -36 vlineto
          -104 callgsubr
          35 hlineto
          -105 callsubr
          hintmask 10100000
          -141 71 rmoveto
          -106 callgsubr
          -197 hlineto
          -15 -12 -12 -15 hvcurveto
          1 -381 rlineto
          -104 callgsubr
          196 hlineto
          -105 callsubr
          -224 673 -52 callgsubr
          327 -16 callgsubr
          -353 vlineto
          -15 12 -12 15 vhcurveto
          216 7 callsubr
          endchar
        </CharString>
        <CharString name="hehebrew">
          -43 callgsubr
          hstem
          292 408 rmoveto
          -106 callgsubr
          -197 hlineto
          -15 -12 -12 -15 hvcurveto
          1 -381 rlineto
          -104 callgsubr
          196 hlineto
          -105 callsubr
          -224 673 -52 callgsubr
          327 -16 callgsubr
          -353 vlineto
          -15 12 -12 15 vhcurveto
          216 7 callsubr
          endchar
        </CharString>
        <CharString name="hethebrew">
          -43 callgsubr
          hstem
          138 -34 callsubr
          217 hlineto
          -105 callsubr
          458 43 vlineto
          -26 callsubr
          -353 vlineto
          -15 12 -12 15 vhcurveto
          216 7 callsubr
          endchar
        </CharString>
        <CharString name="hyphen">
          -25 callgsubr
        </CharString>
        <CharString name="i">
          -74 callgsubr
          hstem
          -105 callgsubr
          endchar
        </CharString>
        <CharString name="iacute">
          0 callgsubr
          -104 callsubr
          hintmask 00100000
          -212 265 -107 callgsubr
          endchar
        </CharString>
        <CharString name="ibreve">
          -74 callgsubr
          30 -10 callgsubr
          -104 callsubr
          -95 347 -96 callsubr
          hintmask 00100000
          -80 callgsubr
          hintmask 00010000
          -46 callgsubr
        </CharString>
        <CharString name="icircumflex">
          -74 callgsubr
          52 -21 119 -20 hstemhm
          -104 callsubr
          hintmask 00110000
          -136 265 rmoveto
          -107 callsubr
        </CharString>
        <CharString name="idieresis">
          0 callgsubr
          218 162 89 162 -104 callsubr
          hintmask 00111000
          -69 355 -103 callsubr
          endchar
        </CharString>
        <CharString name="igrave">
          0 callgsubr
          -104 callsubr
          -87 336 rmoveto
          -14 17 -8 1 -15 1 rrcurveto
          -158 hlineto
          -12 -7 -8 -12 -5 2 -4 3 -3 hvcurveto
          95 -80 rlineto
          -6 8 10 -1 10 4 4 0 4 hhcurveto
          121 hlineto
          10 6 6 10 hvcurveto
          hintmask 00100000
          -42 callsubr
        </CharString>
        <CharString name="imacron">
          0 callgsubr
          -104 callsubr
          hintmask 00100000
          -319 355 -88 callsubr
        </CharString>
        <CharString name="infinity">
          49 163 117 163 hstem
          18 165 484 165 vstem
          613 492 rmoveto
          -86 -54 -38 -52 -48 hvcurveto
          52 -48 -54 38 -86 hhcurveto
          -148 -71 -117 -105 -104 71 -117 148 86 54 38 53 48 hvcurveto
          -53 48 54 -38 86 hhcurveto
          148 71 117 104 105 -71 117 -148 hvcurveto
          -6 -280 rmoveto
          -41 -42 58 0 0 42 59 41 28 32 -23 -36 -35 -32 -23 -28 hvcurveto
          -364 hmoveto
          -28 -32 23 35 36 32 23 28 42 41 -59 0 0 -41 -58 -42 hvcurveto
          endchar
        </CharString>
        <CharString name="integral">
          -200 175 550 175 hstem
          326 189 vstem
          326 38 rmoveto
          -41 -23 -22 -40 vhcurveto
          -31 hlineto
          -15 -12 -12 -15 hvcurveto
          -121 vlineto
          -104 callgsubr
          51 hlineto
          130 102 78 130 hvcurveto
          454 vlineto
          41 23 22 40 vhcurveto
          31 hlineto
          -105 callsubr
          121 vlineto
          -106 callgsubr
          -51 hlineto
          -130 -102 -78 -130 hvcurveto
          endchar
        </CharString>
        <CharString name="iogonek">
          -76 callsubr
        </CharString>
        <CharString name="itilde">
          -74 callgsubr
          30 19 callgsubr
          -104 callsubr
          hintmask 00100100
          -74 235 -78 callgsubr
        </CharString>
        <CharString name="j">
          4 callgsubr
          310 205 hstem
          -92 callsubr
          endchar
        </CharString>
        <CharString name="jcircumflex">
          4 callgsubr
          310 205 -18 callsubr
          -92 callsubr
          hintmask 00110000
          -333 469 rmoveto
          -107 callsubr
        </CharString>
        <CharString name="k">
          -79 callsubr
          hstem
          568 -98 callsubr
          endchar
        </CharString>
        <CharString name="kafdageshhebrew">
          0 215 95 3 callgsubr
          240 89 hintmask 01010000
          329 373 rmoveto
          -106 callgsubr
          -35 hlineto
          -15 -12 -12 -15 hvcurveto
          -36 vlineto
          -104 callgsubr
          35 hlineto
          -105 callsubr
          -229 -122 -37 callgsubr
          hintmask 10100000
          -60 -31 -40 -71 vhcurveto
          endchar
        </CharString>
        <CharString name="kafhebrew">
          0 215 270 215 hstem
          60 215 -37 callgsubr
          -60 -31 -40 -71 vhcurveto
          endchar
        </CharString>
        <CharString name="kcommaaccent">
          -12 callsubr
          hintmask 01100000
          568 -98 callsubr
          hintmask 10000000
          -577 -156 -107 callgsubr
          endchar
        </CharString>
        <CharString name="l">
          0 205 495 -20 hstem
          410 205 -70 callsubr
        </CharString>
        <CharString name="lacute">
          -5 callsubr
          51 119 hstemhm
          hintmask 11000000
          410 205 -92 callgsubr
          hintmask 00100000
          -569 555 -107 callgsubr
          endchar
        </CharString>
        <CharString name="lameddageshhebrew">
          0 200 110 90 85 215 150 -20 hstemhm
          86 230 -96 89 hintmask 01000100
          309 373 rmoveto
          -106 callgsubr
          -35 hlineto
          -15 -12 -12 -15 hvcurveto
          -36 vlineto
          -104 callgsubr
          35 hlineto
          -105 callsubr
          hintmask 10111000
          -223 175 -42 callgsubr
        </CharString>
        <CharString name="lamedhebrew">
          0 200 285 215 150 -20 hstem
          56 230 vstem
          56 512 -42 callgsubr
        </CharString>
        <CharString name="lcaron">
          -62 callgsubr
        </CharString>
        <CharString name="lcommaaccent">
          -15 callgsubr
          31 -8 callsubr
          hstemhm
          hintmask 01100000
          410 205 -92 callgsubr
          hintmask 10000000
          -468 -326 -107 callgsubr
          endchar
        </CharString>
        <CharString name="ldot">
          -61 callgsubr
        </CharString>
        <CharString name="less">
          35 -21 672 -20 hstem
          165 329 rmoveto
          -21 11 -9 18 -12 vhcurveto
          420 -270 rlineto
          -3 5 4 0 2 hhcurveto
          12 9 9 12 hvcurveto
          162 vlineto
          26 -20 9 -12 8 vhcurveto
          -175 110 175 110 rlineto
          12 8 20 9 26 vvcurveto
          162 vlineto
          12 -9 9 -12 -2 -4 0 -3 -5 vhcurveto
          -420 -270 rlineto
          -18 -12 -11 -9 -21 vvcurveto
          endchar
        </CharString>
        <CharString name="lessequal">
          0 163 533 -20 hstem
          165 409 rmoveto
          -21 9 -12 20 -9 vhcurveto
          420 -180 rlineto
          -2 5 4 -1 2 hhcurveto
          12 9 9 12 hvcurveto
          132 vlineto
          26 -19 12 -13 5 vhcurveto
          -175 60 175 59 rlineto
          13 4 19 14 26 vvcurveto
          132 vlineto
          12 -9 9 -12 -2 -4 -1 -2 -5 vhcurveto
          -420 -180 rlineto
          -20 -9 -9 -12 -21 vvcurveto
          27 -308 rmoveto
          -15 -12 -12 -15 hvcurveto
          -109 vlineto
          -104 callgsubr
          427 hlineto
          -105 callsubr
          2 callgsubr
          endchar
        </CharString>
        <CharString name="logicalnot">
          168 -21 106 170 hstem
          501 170 vstem
          501 174 rmoveto
          -104 callgsubr
          116 hlineto
          -105 callsubr
          222 vlineto
          -106 callgsubr
          -455 hlineto
          -15 -12 -12 -15 hvcurveto
          -116 vlineto
          -104 callgsubr
          312 hlineto
          endchar
        </CharString>
        <CharString name="lozenge">
          21 -21 710 -20 hstem
          372 710 rmoveto
          -27 -15 -20 -13 -8 hvcurveto
          -188 -300 rlineto
          -5 -7 -3 -5 -10 vvcurveto
          -10 3 -5 5 -7 vhcurveto
          188 -300 rlineto
          -13 8 15 -20 27 hhcurveto
          106 hlineto
          27 15 20 13 8 hvcurveto
          188 300 rlineto
          5 7 3 5 10 vvcurveto
          10 -3 5 -5 7 vhcurveto
          -188 300 rlineto
          13 -8 -15 20 -27 hhcurveto
          -142 -355 rmoveto
          89 142 89 -142 -89 -143 rlineto
          endchar
        </CharString>
        <CharString name="lslash">
          -65 callsubr
        </CharString>
        <CharString name="m">
          -79 callsubr
          hstem
          41 235 298 235 vstem
          425 433 rmoveto
          -131 240 rlineto
          7 -4 -12 20 -27 hhcurveto
          -183 hlineto
          -100 callgsubr
          181 hlineto
          -105 callsubr
          310 vlineto
          73 -144 rlineto
          -5 2 13 -20 27 hhcurveto
          68 hlineto
          27 13 20 5 2 hvcurveto
          73 144 rlineto
          -310 vlineto
          -104 callgsubr
          181 hlineto
          -105 callsubr
          646 vlineto
          -106 callgsubr
          -183 hlineto
          -27 -12 -20 -7 -4 hvcurveto
          endchar
        </CharString>
        <CharString name="memdageshhebrew">
          0 215 95 3 callgsubr
          412 89 hintmask 01010000
          501 373 rmoveto
          -106 callgsubr
          -35 hlineto
          -15 -12 -12 -15 hvcurveto
          -36 vlineto
          -104 callgsubr
          35 hlineto
          -105 callsubr
          hintmask 10100000
          -43 -122 -53 callgsubr
        </CharString>
        <CharString name="memhebrew">
          0 215 270 215 hstem
          478 215 -53 callgsubr
        </CharString>
        <CharString name="minus">
          -25 callgsubr
        </CharString>
        <CharString name="mu">
          -178 -21 220 -21 520 -20 hstem
          128 250 100 244 vstem
          128 -172 rmoveto
          -104 callgsubr
          196 hlineto
          -105 callsubr
          172 vlineto
          49 6 41 17 25 37 rrcurveto
          -33 vlineto
          -104 callgsubr
          175 hlineto
          -105 callsubr
          466 vlineto
          -106 callgsubr
          -190 hlineto
          -15 -12 -12 -15 hvcurveto
          -269 vlineto
          -36 -18 -19 -32 -32 -18 19 36 vhcurveto
          269 vlineto
          -106 callgsubr
          -196 hlineto
          -15 -12 -12 -15 hvcurveto
          endchar
        </CharString>
        <CharString name="multiply">
          87 -21 542 -20 hstem
          707 451 rmoveto
          7 6 3 7 8 vvcurveto
          8 -3 5 -3 4 vhcurveto
          -96 110 rlineto
          6 -5 -8 3 -7 hhcurveto
          -7 -7 -3 -4 -4 hvcurveto
          -152 -133 -152 133 rlineto
          4 -4 -7 3 -7 hhcurveto
          -7 -8 -3 -6 -5 hvcurveto
          -96 -110 rlineto
          -3 -4 -3 -5 -8 vvcurveto
          -8 3 -7 7 -6 vhcurveto
          130 -114 -130 -114 rlineto
          -8 -7 -2 -7 -7 vvcurveto
          -7 3 -7 4 -4 vhcurveto
          96 -109 rlineto
          -6 5 8 -3 7 hhcurveto
          7 7 3 4 4 hvcurveto
          151 132 151 -132 rlineto
          -4 4 7 -3 7 hhcurveto
          7 8 3 6 5 hvcurveto
          96 109 rlineto
          4 4 3 7 7 vvcurveto
          7 -2 7 -8 7 vhcurveto
          -131 114 rlineto
          endchar
        </CharString>
        <CharString name="n">
          21 17 callsubr
          552 700 -48 callsubr
        </CharString>
        <CharString name="nacute">
          -8 callgsubr
          79 240 206 240 hintmask 11011000
          552 700 -98 callgsubr
          hintmask 00100000
          -407 60 -107 callgsubr
          endchar
        </CharString>
        <CharString name="ncaron">
          -79 callsubr
          72 -39 callgsubr
          -26 callgsubr
          hintmask 11001100
          552 700 -98 callgsubr
          hintmask 00110000
          -313 121 -102 callsubr
        </CharString>
        <CharString name="ncommaaccent">
          -12 callsubr
          79 240 206 240 hintmask 01111000
          552 700 -98 callgsubr
          hintmask 10000000
          -477 -821 -107 callgsubr
          endchar
        </CharString>
        <CharString name="nine">
          21 -21 205 181 130 194 hstem
          87 250 vstem
          210 35 rmoveto
          -2 -3 -2 -4 -6 -65 callgsubr
          210 hlineto
          22 11 13 7 6 hvcurveto
          183 214 rlineto
          86 101 12 65 56 vvcurveto
          160 -152 94 -188 -188 -143 -108 -156 -190 166 -57 104 6 vhcurveto
          148 246 -1 callgsubr
        </CharString>
        <CharString name="nineinferior">
          -140 5 callsubr
          -122 -44 callgsubr
        </CharString>
        <CharString name="ninesuperior">
          350 5 callsubr
          368 -44 callgsubr
        </CharString>
        <CharString name="notequal">
          63 240 -170 170 80 170 -170 239 hstemhm
          hintmask 10100000
          213 553 -28 callsubr
          147 hlineto
          -33 -80 rlineto
          -114 hlineto
          -15 -12 -12 -15 hvcurveto
          -116 vlineto
          hintmask 01100000
          -104 callgsubr
          44 hlineto
          -16 -39 rlineto
          -2 -5 0 -2 -2 vvcurveto
          hintmask 10100000
          -59 callsubr
          91 hlineto
          27 12 17 13 5 hvcurveto
          hintmask 01100000
          17 40 rlineto
          225 hlineto
          -105 callsubr
          116 vlineto
          -106 callgsubr
          -154 hlineto
          34 80 rlineto
          120 hlineto
          -105 callsubr
          116 vlineto
          -106 callgsubr
          -49 hlineto
          16 38 rlineto
          2 5 0 2 2 vvcurveto
          hintmask 10010000
          12 -10 -41 callsubr
          -94 hlineto
          -25 -13 -16 -14 -6 hvcurveto
          hintmask 10100000
          -16 -39 rlineto
          endchar
        </CharString>
        <CharString name="ntilde">
          -83 callsubr
        </CharString>
        <CharString name="numbersign">
          60 -21 106 175 82 165 88 -20 hstem
          385 402 rmoveto
          91 hlineto
          -13 -82 rlineto
          -91 hlineto
          357 247 rmoveto
          -59 hlineto
          10 63 rlineto
          1 0 1 1 vvcurveto
          12 -10 -41 callsubr
          -126 hlineto
          -13 -9 -10 -11 -2 hvcurveto
          -11 -67 rlineto
          -85 hlineto
          10 63 rlineto
          1 0 0 2 vvcurveto
          12 -10 -41 callsubr
          -126 hlineto
          -13 -9 -10 -11 -2 hvcurveto
          -11 -67 rlineto
          -91 hlineto
          -14 -11 -11 -14 hvcurveto
          -118 vlineto
          -14 11 -11 14 vhcurveto
          66 hlineto
          -11 -76 rlineto
          -81 hlineto
          -14 -11 -11 -14 hvcurveto
          -128 vlineto
          -14 11 -11 14 vhcurveto
          55 hlineto
          -13 -82 rlineto
          -1 0 0 -1 -65 callgsubr
          126 hlineto
          13 10 9 12 2 hvcurveto
          13 85 rlineto
          85 hlineto
          -13 -82 rlineto
          -1 0 0 -1 -65 callgsubr
          126 hlineto
          13 10 9 12 2 hvcurveto
          13 85 rlineto
          95 hlineto
          14 11 11 14 hvcurveto
          128 vlineto
          14 -11 11 -14 vhcurveto
          -69 hlineto
          11 76 rlineto
          84 hlineto
          14 11 11 14 hvcurveto
          118 vlineto
          14 -11 11 -14 vhcurveto
          endchar
        </CharString>
        <CharString name="nundageshhebrew">
          0 215 95 90 85 225 hstemhm
          240 89 hintmask 01010000
          329 373 rmoveto
          -106 callgsubr
          -35 hlineto
          -15 -12 -12 -15 hvcurveto
          -36 vlineto
          -104 callgsubr
          35 hlineto
          -105 callsubr
          hintmask 10100000
          -117 373 -36 callsubr
        </CharString>
        <CharString name="nunhebrew">
          0 215 270 225 hstem
          142 710 -36 callsubr
        </CharString>
        <CharString name="o">
          -79 callgsubr
          hstem
          797 411 rmoveto
          209 -166 90 -206 -206 -166 -89 -212 vhcurveto
          -118 vlineto
          -217 161 -15 callsubr
          161 3 callsubr
          -474 141 rmoveto
          55 41 30 61 25 callgsubr
          -7 callgsubr
          vlineto
          -56 -27 callgsubr
          -61 -41 30 55 vhcurveto
          endchar
        </CharString>
        <CharString name="oacute">
          -79 callgsubr
          21 119 hstemhm
          hintmask 11000000
          797 411 rmoveto
          209 -166 90 -206 -206 -166 -89 -212 vhcurveto
          -118 vlineto
          -217 161 -15 callsubr
          161 3 callsubr
          -474 141 rmoveto
          55 41 30 61 25 callgsubr
          -7 callgsubr
          vlineto
          -56 -27 callgsubr
          -61 -41 30 55 vhcurveto
          hintmask 00100000
          6 490 -107 callgsubr
          endchar
        </CharString>
        <CharString name="obreve">
          -79 callgsubr
          20 -10 callgsubr
          hintmask 11000000
          797 411 rmoveto
          209 -166 90 -206 -206 -166 -89 -212 vhcurveto
          -118 vlineto
          -217 161 -15 callsubr
          161 3 callsubr
          -474 141 rmoveto
          55 41 30 61 25 callgsubr
          -7 callgsubr
          vlineto
          -56 -27 callgsubr
          -61 -41 30 55 vhcurveto
          141 572 -96 callsubr
          hintmask 00100000
          -80 callgsubr
          hintmask 00010000
          -46 callgsubr
        </CharString>
        <CharString name="ocircumflex">
          -79 callgsubr
          42 -39 callgsubr
          hstemhm
          hintmask 11000000
          797 411 rmoveto
          209 -166 90 -206 -206 -166 -89 -212 vhcurveto
          -118 vlineto
          -217 161 -15 callsubr
          161 3 callsubr
          -474 141 rmoveto
          55 41 30 61 25 callgsubr
          -7 callgsubr
          vlineto
          -56 -27 callgsubr
          -61 -41 30 55 vhcurveto
          hintmask 00110000
          103 490 rmoveto
          -107 callsubr
        </CharString>
        <CharString name="odieresis">
          -79 callgsubr
          25 119 hstemhm
          219 -30 callgsubr
          hintmask 00111000
          493 854 -103 callsubr
          hintmask 11000000
          439 -443 rmoveto
          209 -166 90 -206 -206 -166 -89 -212 vhcurveto
          -118 vlineto
          -217 161 -15 callsubr
          161 3 callsubr
          -474 141 rmoveto
          55 41 30 61 25 callgsubr
          -7 callgsubr
          vlineto
          -56 -27 callgsubr
          -61 -41 30 55 vhcurveto
          endchar
        </CharString>
        <CharString name="oe">
          -81 callsubr
          hstem
          54 240 102 240 cntrmask 11100000
          778 hmoveto
          -105 callsubr
          -38 callgsubr
          -106 callgsubr
          -142 63 108 hlineto
          -105 callsubr
          130 vlineto
          -106 callgsubr
          -108 63 132 hlineto
          -105 callsubr
          -38 callgsubr
          -106 callgsubr
          -372 hlineto
          -206 -136 -89 -212 hvcurveto
          -99 vlineto
          -217 131 -83 211 vhcurveto
          -102 420 rmoveto
          55 41 30 61 vhcurveto
          -310 vlineto
          -61 -41 29 55 hvcurveto
          endchar
        </CharString>
        <CharString name="ograve">
          -79 callgsubr
          21 119 hstemhm
          hintmask 11000000
          797 411 rmoveto
          209 -166 90 -206 -206 -166 -89 -212 vhcurveto
          -118 vlineto
          -217 161 -15 callsubr
          161 3 callsubr
          -474 141 rmoveto
          55 41 30 61 25 callgsubr
          -7 callgsubr
          vlineto
          -56 -27 callgsubr
          -61 -41 30 55 vhcurveto
          136 561 rmoveto
          -14 17 -8 1 -15 1 rrcurveto
          -158 hlineto
          -12 -7 -8 -12 -5 2 -4 3 -3 hvcurveto
          95 -80 rlineto
          -6 8 10 -1 10 4 4 0 4 hhcurveto
          121 hlineto
          10 6 6 10 hvcurveto
          hintmask 00100000
          -42 callsubr
        </CharString>
        <CharString name="ohungarumlaut">
          -79 callgsubr
          21 119 hstemhm
          hintmask 11000000
          797 411 rmoveto
          209 -166 90 -206 -206 -166 -89 -212 vhcurveto
          -118 vlineto
          -217 161 -15 callsubr
          161 3 callsubr
          -474 141 rmoveto
          55 41 30 61 25 callgsubr
          -7 callgsubr
          vlineto
          -56 -27 callgsubr
          -61 -41 30 55 vhcurveto
          hintmask 00100000
          -72 490 -95 callsubr
          195 -71 -95 callsubr
          endchar
        </CharString>
        <CharString name="omacron">
          -79 callgsubr
          21 119 hstemhm
          hintmask 11000000
          797 411 rmoveto
          209 -166 90 -206 -206 -166 -89 -212 vhcurveto
          -118 vlineto
          -217 161 -15 callsubr
          161 3 callsubr
          -474 141 rmoveto
          55 41 30 61 25 callgsubr
          -7 callgsubr
          vlineto
          -56 -27 callgsubr
          -61 -41 30 55 vhcurveto
          hintmask 00100000
          -81 580 -88 callsubr
        </CharString>
        <CharString name="one">
          -14 callsubr
          589 673 rmoveto
          -106 callgsubr
          -206 hlineto
          -6 -5 -1 -3 -5 hvcurveto
          -222 -145 -12 -9 -4 -17 7 -13 rlinecurve
          81 -126 9 -13 16 -4 13 9 rlinecurve
          101 67 rlineto
          -240 -185 vlineto
          -100 callsubr
          604 hlineto
          -105 callsubr
          151 vlineto
          -106 callgsubr
          -159 hlineto
          endchar
        </CharString>
        <CharString name="oneeighth">
          -9 callsubr
          340 -20 hstemhm
          149 137 195 -22 callgsubr
          hintmask 0111111100000000
          113 -93 callgsubr
          -321 -80 callsubr
          364 -4 -50 callgsubr
          hintmask 1011111010000000
          -45 callgsubr
          hintmask 1011111100000000
          -89 callgsubr
          endchar
        </CharString>
        <CharString name="onehalf">
          0 2 callsubr
          340 -20 hstemhm
          149 137 380 140 hintmask 11011100
          93 -86 callgsubr
          386 -255 -51 callsubr
          hintmask 10111100
          -73 callsubr
        </CharString>
        <CharString name="oneinferior">
          -140 18 callgsubr
          197 -84 callsubr
          -104 -95 vlineto
          -7 -6 -6 -8 hvcurveto
          -82 vlineto
          -7 6 -7 7 vhcurveto
          313 hlineto
          8 6 7 7 hvcurveto
          82 vlineto
          8 -6 6 -8 vhcurveto
          -81 hlineto
          endchar
        </CharString>
        <CharString name="onequarter">
          21 -21 53 103 544 -20 hstem
          159 137 325 132 vstem
          103 -86 callgsubr
          457 -203 -87 callgsubr
          endchar
        </CharString>
        <CharString name="onesuperior">
          350 18 callgsubr
          687 -84 callsubr
          -104 -95 vlineto
          -7 -6 -6 -8 hvcurveto
          -82 vlineto
          -7 6 -7 7 vhcurveto
          313 hlineto
          8 6 7 7 hvcurveto
          82 vlineto
          8 -6 6 -8 vhcurveto
          -81 hlineto
          endchar
        </CharString>
        <CharString name="onethird">
          17 callgsubr
          350 -20 hstemhm
          139 137 402 142 hintmask 00110111
          83 -86 callgsubr
          510 -113 -64 callgsubr
          hintmask 10001111
          -54 callsubr
          hintmask 10010111
          -59 callgsubr
          hintmask 01010111
          -72 callgsubr
          endchar
        </CharString>
        <CharString name="ordfeminine">
          434 76 112 88 -72 72 hstemhm
          447 133 hintmask 11010000
          270 515 rmoveto
          -46 46 -35 64 31 27 12 21 14 vhcurveto
          -14 vlineto
          -7 7 -7 8 vhcurveto
          99 hlineto
          8 6 7 7 hvcurveto
          146 vlineto
          71 -49 40 -98 -101 -43 -50 -26 -7 4 -5 6 vhcurveto
          97 hlineto
          hintmask 10110000
          17 1 16 17 hhcurveto
          15 1 -7 -19 hvcurveto
          -54 -8 rlineto
          -69 -12 -54 -27 -50 vvcurveto
          145 -5 rmoveto
          -12 -8 6 8 7 6 7 18 4 hvcurveto
          30 8 rlineto
          -28 -14 -12 -20 vhcurveto
          endchar
        </CharString>
        <CharString name="ordmasculine">
          434 82 112 82 hstem
          266 136 46 136 vstem
          266 554 rmoveto
          -80 60 -40 99 99 60 40 80 vhcurveto
          36 vlineto
          80 -66 40 -93 -93 -66 -40 -80 vhcurveto
          182 -40 rmoveto
          -25 -6 -9 -17 -17 -6 6 28 vhcurveto
          44 vlineto
          25 6 9 17 17 6 -9 -25 vhcurveto
          endchar
        </CharString>
        <CharString name="oslash">
          4 callgsubr
          331 195 hstem
          -94 callsubr
          endchar
        </CharString>
        <CharString name="oslashacute">
          4 callgsubr
          331 195 20 119 hstemhm
          hintmask 11000000
          -94 callsubr
          hintmask 00100000
          8 368 -107 callgsubr
          endchar
        </CharString>
        <CharString name="otilde">
          -79 callgsubr
          23 -4 callgsubr
          101 hstemhm
          hintmask 00010000
          494 -85 callsubr
          hintmask 11000000
          303 -322 rmoveto
          209 -166 90 -206 -206 -166 -89 -212 vhcurveto
          -118 vlineto
          -217 161 -15 callsubr
          161 3 callsubr
          -474 141 rmoveto
          55 41 30 61 25 callgsubr
          -7 callgsubr
          vlineto
          -56 -27 callgsubr
          -61 -41 30 55 vhcurveto
          endchar
        </CharString>
        <CharString name="p">
          21 -21 219 185 110 186 hstem
          153 -34 callsubr
          -3 callsubr
          -102 callgsubr
          hvcurveto
          192 132 vlineto
          240 68 104 135 135 -114 107 -194 hvcurveto
          -131 -186 rmoveto
          127 hlineto
          33 19 -24 -33 -33 -21 -20 -31 hvcurveto
          -127 hlineto
          endchar
        </CharString>
        <CharString name="paragraph">
          -79 -21 682 118 hstem
          366 118 79 118 vstem
          362 700 rmoveto
          -107 -86 -89 -108 -109 88 -88 109 hvcurveto
          -379 vlineto
          -104 callgsubr
          64 hlineto
          -105 callsubr
          655 79 -655 vlineto
          -104 callgsubr
          64 hlineto
          -105 callsubr
          746 vlineto
          -106 callgsubr
          endchar
        </CharString>
        <CharString name="parenleft">
          -138 -21 935 -20 hstem
          257 205 vstem
          462 446 rmoveto
          86 55 49 73 9 vhcurveto
          9 1 10 9 12 vvcurveto
          142 vlineto
          12 -10 10 -12 -177 -153 -106 -223 vhcurveto
          -277 vlineto
          -223 153 -106 177 12 10 10 12 vhcurveto
          142 vlineto
          12 -10 9 -9 1 vhcurveto
          -73 9 -55 49 86 vvcurveto
          endchar
        </CharString>
        <CharString name="parenleftinferior">
          -185 12 callsubr
          105 -105 180 hintmask 11100000
          440 103 -34 callgsubr
        </CharString>
        <CharString name="parenleftsuperior">
          306 12 callsubr
          105 -105 180 hintmask 11100000
          440 594 -34 callgsubr
        </CharString>
        <CharString name="parenright">
          -138 -21 935 -20 hstem
          388 205 vstem
          388 171 rmoveto
          -86 -55 -49 -73 -9 vhcurveto
          -9 -1 -10 -9 -12 vvcurveto
          -142 vlineto
          -41 callgsubr
          177 153 106 223 vhcurveto
          277 vlineto
          223 -153 106 -177 -50 callsubr
          vhcurveto
          -142 vlineto
          -12 10 -9 9 -1 vhcurveto
          73 -9 55 -49 -86 vvcurveto
          endchar
        </CharString>
        <CharString name="parenrightinferior">
          -185 12 callsubr
          180 -105 105 hintmask 11010000
          410 -38 rmoveto
          -43 -28 -25 -37 -5 vhcurveto
          hintmask 11100000
          -5 -1 -5 -4 -6 vvcurveto
          -73 vlineto
          -6 5 -5 6 91 78 54 114 vhcurveto
          -38 callgsubr
          114 -78 54 -91 -6 -5 -5 -6 vhcurveto
          -73 vlineto
          -6 5 -4 5 -1 vhcurveto
          hintmask 11010000
          37 -5 28 -25 -43 vvcurveto
          endchar
        </CharString>
        <CharString name="parenrightsuperior">
          306 12 callsubr
          180 -105 105 hintmask 11010000
          410 453 rmoveto
          -43 -28 -25 -37 -5 vhcurveto
          hintmask 11100000
          -5 -1 -5 -4 -6 vvcurveto
          -73 vlineto
          -6 5 -5 6 91 78 54 114 vhcurveto
          -38 callgsubr
          114 -78 54 -91 -6 -5 -5 -6 vhcurveto
          -73 vlineto
          -6 5 -4 5 -1 vhcurveto
          hintmask 11010000
          37 -5 28 -25 -43 vvcurveto
          endchar
        </CharString>
        <CharString name="partialdiff">
          -10 165 150 165 230 -20 hstem
          115 245 130 245 vstem
          115 226 rmoveto
          -157 126 -79 184 184 126 79 157 vhcurveto
          62 vlineto
          175 -84 141 -116 83 vhcurveto
          7 -10 -16 6 -27 hhcurveto
          -208 hlineto
          -50 callsubr
          -5 4 -8 9 -6 hvcurveto
          74 -50 69 -66 31 -73 rrcurveto
          -14 hlineto
          -163 -147 -79 -157 hvcurveto
          375 -11 rmoveto
          -51 -32 -17 -33 -33 -32 14 54 vhcurveto
          14 vlineto
          51 32 17 33 30 33 -15 -42 2 vhcurveto
          -11 vlineto
          endchar
        </CharString>
        <CharString name="pedageshhebrew">
          0 215 39 195 -139 90 100 200 hstemhm
          433 89 hintmask 00101000
          522 373 rmoveto
          -106 callgsubr
          -35 hlineto
          -15 -12 -12 -15 hvcurveto
          -36 vlineto
          -104 callgsubr
          35 hlineto
          -105 callsubr
          hintmask 11010000
          -432 -122 -52 callgsubr
          366 hlineto
          206 156 101 210 hvcurveto
          88 vlineto
          210 -156 91 -206 vhcurveto
          -366 hlineto
          -15 -12 -12 -15 hvcurveto
          -146 vlineto
          -212 98 -61 203 vhcurveto
          16 hlineto
          -105 callsubr
          -38 callgsubr
          -106 callgsubr
          -16 hlineto
          -43 -9 11 40 hvcurveto
          144 hlineto
          61 31 -30 -65 hvcurveto
          -100 vlineto
          -65 -31 -25 -61 vhcurveto
          endchar
        </CharString>
        <CharString name="pehebrew">
          -103 -21 824 -20 hstem
          353 -99 rmoveto
          -13 6 12 -12 27 hhcurveto
          -19 callgsubr
          11 9 8 11 6 -1 3 -3 8 hvcurveto
          -142 324 rlineto
          137 33 97 108 187 -31 callgsubr
          -67 -35 -53 -29 -13 vhcurveto
          -106 244 rlineto
          13 -6 -11 11 -27 hhcurveto
          -216 hlineto
          -13 -7 -9 -12 -4 2 -5 2 -5 hvcurveto
          endchar
        </CharString>
        <CharString name="percent">
          -9 105 -75 -21 257 104 -21 105 161 104 -10 -20 hstemhm
          17 144 66 143 107 144 66 143 hintmask 1001101111000000
          161 573 rmoveto
          -70 callgsubr
          251 -254 rmoveto
          hintmask 1010101111000000
          -70 callgsubr
          -718 -98 rmoveto
          -3 -4 -1 -5 -2 vvcurveto
          hintmask 0110011111000000
          -12 10 -8 14 vhcurveto
          84 hlineto
          19 8 7 12 9 hvcurveto
          484 650 rlineto
          3 4 1 5 2 vvcurveto
          12 -10 8 -14 vhcurveto
          -84 hlineto
          -19 -8 -7 -12 -9 hvcurveto
          endchar
        </CharString>
        <CharString name="period">
          0 238 hstem
          320 238 rmoveto
          -15 -12 -12 -15 hvcurveto
          -184 vlineto
          -104 callgsubr
          210 hlineto
          -105 callsubr
          184 vlineto
          -106 callgsubr
          endchar
        </CharString>
        <CharString name="periodcentered">
          -17 callgsubr
        </CharString>
        <CharString name="perthousand">
          -10 105 -74 -21 256 104 -20 105 161 104 -10 -20 hstemhm
          8 104 46 103 57 104 46 103 17 104 46 103 hintmask 0101101111110000
          112 573 -55 callsubr
          -235 -457 rmoveto
          -3 -4 -1 -5 -4 callsubr
          -8 14 vhcurveto
          54 hlineto
          19 9 6 13 8 hvcurveto
          414 650 rlineto
          hintmask 1010011111110000
          3 4 1 5 2 vvcurveto
          12 -10 8 -14 vhcurveto
          -54 hlineto
          -19 -9 -6 -13 -8 hvcurveto
          -18 -458 -55 callsubr
          121 85 -55 callsubr
          endchar
        </CharString>
        <CharString name="plus">
          93 -21 183 193 178 -20 hstem
          322 206 vstem
          322 99 rmoveto
          -104 callgsubr
          152 hlineto
          -105 callsubr
          156 159 vlineto
          -105 callsubr
          139 vlineto
          -106 callgsubr
          -159 151 hlineto
          -106 callgsubr
          -152 hlineto
          -15 -12 -12 -15 hvcurveto
          -151 -159 vlineto
          -15 -12 -12 -15 hvcurveto
          -139 vlineto
          -104 callgsubr
          159 hlineto
          endchar
        </CharString>
        <CharString name="plusminus">
          0 120 210 193 158 -20 hstem
          322 206 vstem
          322 194 rmoveto
          -104 callgsubr
          152 hlineto
          -105 callsubr
          136 139 vlineto
          -105 callsubr
          139 vlineto
          -106 callgsubr
          -139 131 hlineto
          -106 callgsubr
          -152 hlineto
          -15 -12 -12 -15 hvcurveto
          -131 -139 vlineto
          -15 -12 -12 -15 hvcurveto
          -139 vlineto
          -104 callgsubr
          139 hlineto
          -139 -210 rmoveto
          -15 -12 -12 -15 hvcurveto
          -66 vlineto
          -104 callgsubr
          484 hlineto
          -105 callsubr
          66 vlineto
          -106 callgsubr
          endchar
        </CharString>
</ttFont>
